<?xml version="1.0" encoding="utf-8"?>
<!-- Generator: Adobe Illustrator 23.1.0, SVG Export Plug-In . SVG Version: 6.00 Build 0)  -->
<svg version="1.1" id="Layer_1" xmlns="http://www.w3.org/2000/svg" xmlns:xlink="http://www.w3.org/1999/xlink" x="0px" y="0px"
	 viewBox="0 0 1920 1080" style="enable-background:new 0 0 1920 1080;" xml:space="preserve">
<style type="text/css">
	.st0{fill:#FCFDFF;}
	.st1{fill:#FFFFFA;}
	.st2{fill:none;stroke:#141412;stroke-width:4;stroke-linecap:round;stroke-miterlimit:10;stroke-dasharray:0.1,8;}
	.st3{opacity:0.5;}
	.st4{fill:#FFFFFF;}
	.st5{fill:#FFD300;}
</style>
<g>
	<path class="st0" d="M1610.74,931.35h-0.17c-1.84,0-3.34-1.49-3.34-3.34s1.49-3.34,3.34-3.34s3.42,1.49,3.42,3.34
		S1612.58,931.35,1610.74,931.35z M1597.22,931.35h-0.17c-1.84,0-3.34-1.49-3.34-3.34s1.49-3.34,3.34-3.34h0.17
		c1.84,0,3.34,1.49,3.34,3.34S1599.06,931.35,1597.22,931.35z M1583.7,931.35h-0.17c-1.84,0-3.34-1.49-3.34-3.34
		s1.49-3.34,3.34-3.34c1.84,0,3.42,1.49,3.42,3.34S1585.54,931.35,1583.7,931.35z M1570.18,931.35h-0.17
		c-1.84,0-3.34-1.49-3.34-3.34s1.49-3.34,3.34-3.34h0.17c1.84,0,3.34,1.49,3.34,3.34S1572.03,931.35,1570.18,931.35z
		 M1556.67,931.35h-0.17c-1.84,0-3.34-1.49-3.34-3.34s1.49-3.34,3.34-3.34s3.42,1.49,3.42,3.34S1558.51,931.35,1556.67,931.35z
		 M1543.15,931.35h-0.17c-1.84,0-3.34-1.49-3.34-3.34s1.49-3.34,3.34-3.34s3.42,1.49,3.42,3.34S1544.99,931.35,1543.15,931.35z
		 M1529.63,931.35h-0.17c-1.84,0-3.34-1.49-3.34-3.34s1.49-3.34,3.34-3.34h0.17c1.84,0,3.34,1.49,3.34,3.34
		S1531.48,931.35,1529.63,931.35z M1516.11,931.35h-0.17c-1.84,0-3.34-1.49-3.34-3.34s1.49-3.34,3.34-3.34s3.42,1.49,3.42,3.34
		S1517.96,931.35,1516.11,931.35z M1502.6,931.35h-0.17c-1.84,0-3.34-1.49-3.34-3.34s1.49-3.34,3.34-3.34h0.17
		c1.84,0,3.34,1.49,3.34,3.34S1504.44,931.35,1502.6,931.35z M1489.08,931.35h-0.17c-1.84,0-3.34-1.49-3.34-3.34
		s1.49-3.34,3.34-3.34c1.84,0,3.42,1.49,3.42,3.34S1490.92,931.35,1489.08,931.35z M1475.56,931.35h-0.17
		c-1.84,0-3.34-1.49-3.34-3.34s1.49-3.34,3.34-3.34s3.42,1.49,3.42,3.34S1477.41,931.35,1475.56,931.35z M1462.05,931.35h-0.17
		c-1.84,0-3.34-1.49-3.34-3.34s1.49-3.34,3.34-3.34h0.17c1.84,0,3.34,1.49,3.34,3.34S1463.89,931.35,1462.05,931.35z
		 M1448.53,931.35h-0.17c-1.84,0-3.34-1.49-3.34-3.34s1.49-3.34,3.34-3.34c1.84,0,3.42,1.49,3.42,3.34
		S1450.37,931.35,1448.53,931.35z M1435.01,931.35h-0.17c-1.84,0-3.34-1.49-3.34-3.34s1.49-3.34,3.34-3.34h0.17
		c1.84,0,3.34,1.49,3.34,3.34S1436.86,931.35,1435.01,931.35z M1421.49,931.35h-0.17c-1.84,0-3.34-1.49-3.34-3.34
		s1.49-3.34,3.34-3.34s3.42,1.49,3.42,3.34S1423.34,931.35,1421.49,931.35z M1407.98,931.35h-0.17c-1.84,0-3.34-1.49-3.34-3.34
		s1.49-3.34,3.34-3.34s3.42,1.49,3.42,3.34S1409.82,931.35,1407.98,931.35z M1394.46,931.35h-0.17c-1.84,0-3.34-1.49-3.34-3.34
		s1.49-3.34,3.34-3.34h0.17c1.84,0,3.34,1.49,3.34,3.34S1396.3,931.35,1394.46,931.35z M1380.94,931.35h-0.17
		c-1.84,0-3.34-1.49-3.34-3.34s1.49-3.34,3.34-3.34s3.42,1.49,3.42,3.34S1382.79,931.35,1380.94,931.35z M1367.43,931.35h-0.17
		c-1.84,0-3.34-1.49-3.34-3.34s1.49-3.34,3.34-3.34h0.17c1.84,0,3.34,1.49,3.34,3.34S1369.27,931.35,1367.43,931.35z
		 M1353.91,931.35h-0.17c-1.84,0-3.34-1.49-3.34-3.34s1.49-3.34,3.34-3.34c1.84,0,3.42,1.49,3.42,3.34
		S1355.75,931.35,1353.91,931.35z M1340.39,931.35h-0.17c-1.84,0-3.34-1.49-3.34-3.34s1.49-3.34,3.34-3.34s3.42,1.49,3.42,3.34
		S1342.23,931.35,1340.39,931.35z M1326.87,931.35h-0.17c-1.84,0-3.34-1.49-3.34-3.34s1.49-3.34,3.34-3.34h0.17
		c1.84,0,3.34,1.49,3.34,3.34S1328.72,931.35,1326.87,931.35z M1313.36,931.35h-0.17c-1.84,0-3.34-1.49-3.34-3.34
		s1.49-3.34,3.34-3.34s3.42,1.49,3.42,3.34S1315.2,931.35,1313.36,931.35z M1299.84,931.35h-0.17c-1.84,0-3.34-1.49-3.34-3.34
		s1.49-3.34,3.34-3.34h0.17c1.84,0,3.34,1.49,3.34,3.34S1301.68,931.35,1299.84,931.35z M1286.32,931.35h-0.17
		c-1.84,0-3.34-1.49-3.34-3.34s1.49-3.34,3.34-3.34s3.42,1.49,3.42,3.34S1288.16,931.35,1286.32,931.35z M1272.81,931.35h-0.17
		c-1.84,0-3.34-1.49-3.34-3.34s1.49-3.34,3.34-3.34s3.42,1.49,3.42,3.34S1274.65,931.35,1272.81,931.35z M1259.29,931.35h-0.17
		c-1.84,0-3.34-1.49-3.34-3.34s1.49-3.34,3.34-3.34h0.17c1.84,0,3.34,1.49,3.34,3.34S1261.13,931.35,1259.29,931.35z
		 M1245.77,931.35h-0.17c-1.84,0-3.34-1.49-3.34-3.34s1.49-3.34,3.34-3.34s3.42,1.49,3.42,3.34S1247.61,931.35,1245.77,931.35z
		 M1232.25,931.35h-0.17c-1.84,0-3.34-1.49-3.34-3.34s1.49-3.34,3.34-3.34h0.17c1.84,0,3.34,1.49,3.34,3.34
		S1234.1,931.35,1232.25,931.35z M1218.74,931.35h-0.17c-1.84,0-3.34-1.49-3.34-3.34s1.49-3.34,3.34-3.34s3.42,1.49,3.42,3.34
		S1220.58,931.35,1218.74,931.35z M1205.22,931.35h-0.17c-1.84,0-3.34-1.49-3.34-3.34s1.49-3.34,3.34-3.34
		c1.84,0,3.42,1.49,3.42,3.34S1207.06,931.35,1205.22,931.35z M1191.7,931.35h-0.17c-1.84,0-3.34-1.49-3.34-3.34
		s1.49-3.34,3.34-3.34h0.17c1.84,0,3.34,1.49,3.34,3.34S1193.55,931.35,1191.7,931.35z M1178.18,931.35h-0.17
		c-1.84,0-3.34-1.49-3.34-3.34s1.49-3.34,3.34-3.34s3.42,1.49,3.42,3.34S1180.03,931.35,1178.18,931.35z M1164.67,931.35h-0.17
		c-1.84,0-3.34-1.49-3.34-3.34s1.49-3.34,3.34-3.34c1.84,0,3.42,1.49,3.42,3.34S1166.51,931.35,1164.67,931.35z M1151.15,931.35
		h-0.17c-1.84,0-3.34-1.49-3.34-3.34s1.49-3.34,3.34-3.34h0.17c1.84,0,3.34,1.49,3.34,3.34S1152.99,931.35,1151.15,931.35z
		 M1137.63,931.35h-0.17c-1.84,0-3.34-1.49-3.34-3.34s1.49-3.34,3.34-3.34s3.42,1.49,3.42,3.34S1139.48,931.35,1137.63,931.35z
		 M1124.12,931.35h-0.17c-1.84,0-3.34-1.49-3.34-3.34s1.49-3.34,3.34-3.34h0.17c1.84,0,3.34,1.49,3.34,3.34
		S1125.96,931.35,1124.12,931.35z M1110.6,931.35h-0.17c-1.84,0-3.34-1.49-3.34-3.34s1.49-3.34,3.34-3.34
		c1.84,0,3.42,1.49,3.42,3.34S1112.44,931.35,1110.6,931.35z M1097.08,931.35h-0.17c-1.84,0-3.34-1.49-3.34-3.34
		s1.49-3.34,3.34-3.34s3.42,1.49,3.42,3.34S1098.93,931.35,1097.08,931.35z M1083.57,931.35h-0.17c-1.84,0-3.34-1.49-3.34-3.34
		s1.49-3.34,3.34-3.34h0.17c1.84,0,3.34,1.49,3.34,3.34S1085.41,931.35,1083.57,931.35z M1070.05,931.35h-0.17
		c-1.84,0-3.34-1.49-3.34-3.34s1.49-3.34,3.34-3.34c1.84,0,3.42,1.49,3.42,3.34S1071.89,931.35,1070.05,931.35z M1056.53,931.35
		h-0.17c-1.84,0-3.34-1.49-3.34-3.34s1.49-3.34,3.34-3.34s3.42,1.49,3.42,3.34S1058.37,931.35,1056.53,931.35z M1043.01,931.35
		h-0.17c-1.84,0-3.34-1.49-3.34-3.34s1.49-3.34,3.34-3.34h0.17c1.84,0,3.34,1.49,3.34,3.34S1044.86,931.35,1043.01,931.35z
		 M1029.5,931.35h-0.17c-1.84,0-3.34-1.49-3.34-3.34s1.49-3.34,3.34-3.34c1.84,0,3.42,1.49,3.42,3.34S1031.34,931.35,1029.5,931.35z
		 M1015.98,931.35h-0.17c-1.84,0-3.34-1.49-3.34-3.34s1.49-3.34,3.34-3.34h0.17c1.84,0,3.34,1.49,3.34,3.34
		S1017.82,931.35,1015.98,931.35z M1002.46,931.35h-0.17c-1.84,0-3.34-1.49-3.34-3.34s1.49-3.34,3.34-3.34
		c1.84,0,3.42,1.49,3.42,3.34S1004.3,931.35,1002.46,931.35z M988.94,931.35h-0.17c-1.84,0-3.34-1.49-3.34-3.34s1.49-3.34,3.34-3.34
		c1.84,0,3.42,1.49,3.42,3.34S990.79,931.35,988.94,931.35z M975.43,931.35h-0.17c-1.84,0-3.34-1.49-3.34-3.34s1.49-3.34,3.34-3.34
		h0.17c1.84,0,3.34,1.49,3.34,3.34S977.27,931.35,975.43,931.35z M961.91,931.35h-0.17c-1.84,0-3.34-1.49-3.34-3.34
		s1.49-3.34,3.34-3.34c1.84,0,3.42,1.49,3.42,3.34S963.75,931.35,961.91,931.35z M948.39,931.35h-0.17c-1.84,0-3.34-1.49-3.34-3.34
		s1.49-3.34,3.34-3.34s3.42,1.49,3.42,3.34S950.24,931.35,948.39,931.35z M934.88,931.35h-0.17c-1.84,0-3.34-1.49-3.34-3.34
		s1.49-3.34,3.34-3.34h0.17c1.84,0,3.34,1.49,3.34,3.34S936.72,931.35,934.88,931.35z M921.36,931.35h-0.17
		c-1.84,0-3.34-1.49-3.34-3.34s1.49-3.34,3.34-3.34c1.84,0,3.42,1.49,3.42,3.34S923.2,931.35,921.36,931.35z M907.84,931.35h-0.17
		c-1.84,0-3.34-1.49-3.34-3.34s1.49-3.34,3.34-3.34h0.17c1.84,0,3.34,1.49,3.34,3.34S909.69,931.35,907.84,931.35z M894.32,931.35
		h-0.17c-1.84,0-3.34-1.49-3.34-3.34s1.49-3.34,3.34-3.34c1.84,0,3.42,1.49,3.42,3.34S896.17,931.35,894.32,931.35z M880.81,931.35
		h-0.17c-1.84,0-3.34-1.49-3.34-3.34s1.49-3.34,3.34-3.34h0.17c1.84,0,3.34,1.49,3.34,3.34S882.65,931.35,880.81,931.35z
		 M867.29,931.35h-0.17c-1.84,0-3.34-1.49-3.34-3.34s1.49-3.34,3.34-3.34c1.84,0,3.42,1.49,3.42,3.34S869.13,931.35,867.29,931.35z
		 M853.77,931.35h-0.17c-1.84,0-3.34-1.49-3.34-3.34s1.49-3.34,3.34-3.34s3.42,1.49,3.42,3.34S855.62,931.35,853.77,931.35z
		 M840.26,931.35h-0.17c-1.84,0-3.34-1.49-3.34-3.34s1.49-3.34,3.34-3.34h0.17c1.84,0,3.34,1.49,3.34,3.34
		S842.1,931.35,840.26,931.35z M826.74,931.35h-0.17c-1.84,0-3.34-1.49-3.34-3.34s1.49-3.34,3.34-3.34c1.84,0,3.42,1.49,3.42,3.34
		S828.58,931.35,826.74,931.35z M813.22,931.35h-0.17c-1.84,0-3.34-1.49-3.34-3.34s1.49-3.34,3.34-3.34h0.17
		c1.84,0,3.34,1.49,3.34,3.34S815.06,931.35,813.22,931.35z M799.7,931.35h-0.17c-1.84,0-3.34-1.49-3.34-3.34s1.49-3.34,3.34-3.34
		c1.84,0,3.42,1.49,3.42,3.34S801.55,931.35,799.7,931.35z M786.19,931.35h-0.17c-1.84,0-3.34-1.49-3.34-3.34s1.49-3.34,3.34-3.34
		h0.17c1.84,0,3.34,1.49,3.34,3.34S788.03,931.35,786.19,931.35z M772.67,931.35h-0.17c-1.84,0-3.34-1.49-3.34-3.34
		s1.49-3.34,3.34-3.34c1.84,0,3.42,1.49,3.42,3.34S774.51,931.35,772.67,931.35z M759.15,931.35h-0.17c-1.84,0-3.34-1.49-3.34-3.34
		s1.49-3.34,3.34-3.34c1.84,0,3.42,1.49,3.42,3.34S761,931.35,759.15,931.35z M745.64,931.35h-0.17c-1.84,0-3.34-1.49-3.34-3.34
		s1.49-3.34,3.34-3.34h0.17c1.84,0,3.34,1.49,3.34,3.34S747.48,931.35,745.64,931.35z M732.12,931.35h-0.17
		c-1.84,0-3.34-1.49-3.34-3.34s1.49-3.34,3.34-3.34c1.84,0,3.42,1.49,3.42,3.34S733.96,931.35,732.12,931.35z M718.6,931.35h-0.17
		c-1.84,0-3.34-1.49-3.34-3.34s1.49-3.34,3.34-3.34h0.17c1.84,0,3.34,1.49,3.34,3.34S720.44,931.35,718.6,931.35z M705.08,931.35
		h-0.17c-1.84,0-3.34-1.49-3.34-3.34s1.49-3.34,3.34-3.34c1.84,0,3.42,1.49,3.42,3.34S706.93,931.35,705.08,931.35z M691.57,931.35
		h-0.17c-1.84,0-3.34-1.49-3.34-3.34s1.49-3.34,3.34-3.34h0.17c1.84,0,3.34,1.49,3.34,3.34S693.41,931.35,691.57,931.35z
		 M678.05,931.35h-0.17c-1.84,0-3.34-1.49-3.34-3.34s1.49-3.34,3.34-3.34c1.84,0,3.42,1.49,3.42,3.34S679.89,931.35,678.05,931.35z
		 M664.53,931.35h-0.17c-1.84,0-3.34-1.49-3.34-3.34s1.49-3.34,3.34-3.34c1.84,0,3.42,1.49,3.42,3.34S666.37,931.35,664.53,931.35z
		 M651.01,931.35h-0.17c-1.84,0-3.34-1.49-3.34-3.34s1.49-3.34,3.34-3.34h0.17c1.84,0,3.34,1.49,3.34,3.34
		S652.86,931.35,651.01,931.35z M637.5,931.35h-0.17c-1.84,0-3.34-1.49-3.34-3.34s1.49-3.34,3.34-3.34c1.84,0,3.42,1.49,3.42,3.34
		S639.34,931.35,637.5,931.35z M623.98,931.35h-0.17c-1.84,0-3.34-1.49-3.34-3.34s1.49-3.34,3.34-3.34h0.17
		c1.84,0,3.34,1.49,3.34,3.34S625.82,931.35,623.98,931.35z M610.46,931.35h-0.17c-1.84,0-3.34-1.49-3.34-3.34s1.49-3.34,3.34-3.34
		c1.84,0,3.42,1.49,3.42,3.34S612.3,931.35,610.46,931.35z M596.95,931.35h-0.17c-1.84,0-3.34-1.49-3.34-3.34s1.49-3.34,3.34-3.34
		s3.42,1.49,3.42,3.34S598.79,931.35,596.95,931.35z M583.43,931.35h-0.17c-1.84,0-3.34-1.49-3.34-3.34s1.49-3.34,3.34-3.34h0.17
		c1.84,0,3.34,1.49,3.34,3.34S585.27,931.35,583.43,931.35z M569.91,931.35h-0.17c-1.84,0-3.34-1.49-3.34-3.34s1.49-3.34,3.34-3.34
		c1.84,0,3.42,1.49,3.42,3.34S571.75,931.35,569.91,931.35z M556.39,931.35h-0.17c-1.84,0-3.34-1.49-3.34-3.34s1.49-3.34,3.34-3.34
		h0.17c1.84,0,3.34,1.49,3.34,3.34S558.24,931.35,556.39,931.35z M542.88,931.35h-0.17c-1.84,0-3.34-1.49-3.34-3.34
		s1.49-3.34,3.34-3.34c1.84,0,3.42,1.49,3.42,3.34S544.72,931.35,542.88,931.35z M529.36,931.35h-0.17c-1.84,0-3.34-1.49-3.34-3.34
		s1.49-3.34,3.34-3.34h0.17c1.84,0,3.34,1.49,3.34,3.34S531.2,931.35,529.36,931.35z M515.84,931.35h-0.17
		c-1.84,0-3.34-1.49-3.34-3.34s1.49-3.34,3.34-3.34c1.84,0,3.42,1.49,3.42,3.34S517.68,931.35,515.84,931.35z M502.32,931.35h-0.17
		c-1.84,0-3.34-1.49-3.34-3.34s1.49-3.34,3.34-3.34s3.42,1.49,3.42,3.34S504.17,931.35,502.32,931.35z M488.81,931.35h-0.17
		c-1.84,0-3.34-1.49-3.34-3.34s1.49-3.34,3.34-3.34c1.84,0,3.42,1.49,3.42,3.34S490.65,931.35,488.81,931.35z M475.29,931.35h-0.17
		c-1.84,0-3.34-1.49-3.34-3.34s1.49-3.34,3.34-3.34s3.42,1.49,3.42,3.34S477.13,931.35,475.29,931.35z M461.77,931.35h-0.17
		c-1.84,0-3.34-1.49-3.34-3.34s1.49-3.34,3.34-3.34h0.17c1.84,0,3.34,1.49,3.34,3.34S463.62,931.35,461.77,931.35z M448.25,931.35
		h-0.17c-1.84,0-3.34-1.49-3.34-3.34s1.49-3.34,3.34-3.34s3.42,1.49,3.42,3.34S450.1,931.35,448.25,931.35z M434.74,931.35h-0.17
		c-1.84,0-3.34-1.49-3.34-3.34s1.49-3.34,3.34-3.34h0.17c1.84,0,3.34,1.49,3.34,3.34S436.58,931.35,434.74,931.35z M421.22,931.35
		h-0.17c-1.84,0-3.34-1.49-3.34-3.34s1.49-3.34,3.34-3.34c1.84,0,3.42,1.49,3.42,3.34S423.06,931.35,421.22,931.35z M407.7,931.35
		h-0.17c-1.84,0-3.34-1.49-3.34-3.34s1.49-3.34,3.34-3.34s3.42,1.49,3.42,3.34S409.55,931.35,407.7,931.35z M394.19,931.35h-0.17
		c-1.84,0-3.34-1.49-3.34-3.34s1.49-3.34,3.34-3.34h0.17c1.84,0,3.34,1.49,3.34,3.34S396.03,931.35,394.19,931.35z M380.67,931.35
		h-0.17c-1.84,0-3.34-1.49-3.34-3.34s1.49-3.34,3.34-3.34s3.42,1.49,3.42,3.34S382.51,931.35,380.67,931.35z M367.15,931.35h-0.17
		c-1.84,0-3.34-1.49-3.34-3.34s1.49-3.34,3.34-3.34h0.17c1.84,0,3.34,1.49,3.34,3.34S369,931.35,367.15,931.35z M353.63,931.35
		h-0.17c-1.84,0-3.34-1.49-3.34-3.34s1.49-3.34,3.34-3.34s3.42,1.49,3.42,3.34S355.48,931.35,353.63,931.35z M340.12,931.35h-0.17
		c-1.84,0-3.34-1.49-3.34-3.34s1.49-3.34,3.34-3.34h0.17c1.84,0,3.34,1.49,3.34,3.34S341.96,931.35,340.12,931.35z M326.6,931.35
		h-0.17c-1.84,0-3.34-1.49-3.34-3.34s1.49-3.34,3.34-3.34c1.84,0,3.42,1.49,3.42,3.34S328.44,931.35,326.6,931.35z M313.08,931.35
		h-0.17c-1.84,0-3.34-1.49-3.34-3.34s1.49-3.34,3.34-3.34h0.17c1.84,0,3.34,1.49,3.34,3.34S314.93,931.35,313.08,931.35z
		 M299.57,931.35h-0.17c-1.84,0-3.34-1.49-3.34-3.34s1.49-3.34,3.34-3.34h0.17c1.84,0,3.34,1.49,3.34,3.34
		S301.41,931.35,299.57,931.35z M286.05,931.35h-0.17c-1.84,0-3.34-1.49-3.34-3.34s1.49-3.34,3.34-3.34s3.42,1.49,3.42,3.34
		S287.89,931.35,286.05,931.35z M272.54,931.04c-0.07,0-0.13,0-0.2-0.01c-0.03,0-0.23-0.01-0.26-0.02
		c-1.84-0.16-3.19-1.78-3.03-3.62c0.16-1.84,1.8-3.18,3.62-3.03c1.82,0.16,3.25,1.76,3.12,3.58
		C275.66,929.69,274.27,931.04,272.54,931.04z M1621.01,931.01c-1.72,0-3.19-1.32-3.33-3.06c-0.15-1.83,1.19-3.44,3.02-3.6
		c0.03,0,0.23-0.02,0.26-0.02c1.79-0.08,3.42,1.3,3.53,3.14c0.11,1.84-1.3,3.42-3.14,3.53l-0.2-3.33l0.13,3.34
		C1621.19,931.01,1621.1,931.01,1621.01,931.01z M259.11,929.58c-0.16,0-0.33-0.01-0.49-0.04c-0.03,0-0.22-0.04-0.25-0.04
		c-1.81-0.32-3.03-2.05-2.71-3.87c0.32-1.82,2.05-3.02,3.87-2.71c1.8,0.32,3.09,2.03,2.8,3.84
		C262.06,928.41,260.71,929.58,259.11,929.58z M1634.45,929.52c-1.6,0-3.02-1.14-3.3-2.76c-0.31-1.81,0.87-3.52,2.67-3.85
		c0.04-0.01,0.24-0.04,0.28-0.04c1.83-0.27,3.52,0.99,3.79,2.82c0.27,1.82-0.99,3.52-2.82,3.79l-0.49-3.3l0.42,3.31
		C1634.82,929.5,1634.63,929.52,1634.45,929.52z M245.87,926.95c-0.26,0-0.52-0.03-0.79-0.09l0.79-3.24l-0.94,3.21
		c-1.79-0.43-2.9-2.23-2.47-4.02c0.43-1.79,2.23-2.9,4.02-2.47c0,0,0.17,0.04,0.17,0.04c1.79,0.43,2.89,2.24,2.46,4.03
		C248.74,925.92,247.37,926.95,245.87,926.95z M1647.67,926.85c-1.47,0-2.83-0.98-3.23-2.47c-0.48-1.78,0.56-3.6,2.34-4.09
		c0.03-0.01,0.22-0.06,0.25-0.06c1.78-0.44,3.59,0.66,4.03,2.46c0.44,1.79-0.66,3.6-2.46,4.03l-0.79-3.24l0.72,3.26
		C1648.24,926.81,1647.95,926.85,1647.67,926.85z M232.91,923.14c-0.35,0-0.72-0.06-1.07-0.18l-0.16-0.05
		c-1.75-0.59-2.68-2.49-2.09-4.23c0.59-1.75,2.49-2.68,4.23-2.09l0.16,0.05c1.75,0.59,2.68,2.49,2.09,4.23
		C235.6,922.26,234.3,923.14,232.91,923.14z M1660.6,923.01c-1.36,0-2.64-0.84-3.14-2.2c-0.63-1.73,0.26-3.65,2-4.28l0.21-0.07
		c1.74-0.6,3.64,0.33,4.24,2.07c0.6,1.74-0.33,3.64-2.07,4.24l-0.1,0.04C1661.37,922.95,1660.98,923.01,1660.6,923.01z
		 M220.3,918.17c-0.44,0-0.89-0.09-1.32-0.28l-0.17-0.08c-1.68-0.76-2.43-2.74-1.67-4.42c0.76-1.68,2.74-2.43,4.42-1.67
		c1.68,0.75,2.51,2.75,1.76,4.43C222.76,917.42,221.56,918.17,220.3,918.17z M1673.15,918.03c-1.27,0-2.49-0.73-3.04-1.96
		c-0.76-1.68-0.01-3.66,1.67-4.41c1.68-0.76,3.73-0.05,4.49,1.63c0.76,1.68,0.09,3.62-1.59,4.38l-0.15,0.07
		C1674.08,917.93,1673.61,918.03,1673.15,918.03z M208.24,912.13c-0.56,0-1.12-0.14-1.64-0.43l-0.09-0.05
		c-1.62-0.88-2.22-2.9-1.34-4.52c0.88-1.62,2.9-2.22,4.52-1.34l0.2,0.11c1.6,0.91,2.17,2.95,1.26,4.55
		C210.54,911.52,209.41,912.13,208.24,912.13z M1685.21,911.95c-1.18,0-2.32-0.62-2.93-1.73c-0.89-1.61-0.3-3.64,1.31-4.53
		c1.6-0.89,3.7-0.35,4.6,1.25c0.9,1.6,0.4,3.59-1.19,4.49c-0.01,0.01-0.17,0.09-0.18,0.1
		C1686.31,911.82,1685.76,911.95,1685.21,911.95z M196.72,905.02c-0.62,0-1.25-0.18-1.81-0.55l-0.2-0.14
		c-1.51-1.06-1.87-3.14-0.81-4.65c1.06-1.51,3.14-1.88,4.65-0.81c1.53,1.02,1.98,3.12,0.96,4.65
		C198.85,904.49,197.79,905.02,196.72,905.02z M1696.69,904.82c-1.04,0-2.07-0.49-2.72-1.4c-1.07-1.5-0.73-3.58,0.78-4.66
		c0.02-0.01,0.18-0.12,0.2-0.14c1.53-1.03,3.6-0.64,4.64,0.89c1.03,1.53,0.64,3.6-0.89,4.64l-1.87-2.76l1.8,2.81
		C1698.04,904.62,1697.36,904.82,1696.69,904.82z M185.93,896.94c-0.75,0-1.51-0.25-2.13-0.77l-0.07-0.06
		c-1.44-1.14-1.69-3.24-0.54-4.69c1.14-1.44,3.24-1.69,4.69-0.54l0.19,0.15c1.42,1.18,1.61,3.28,0.44,4.7
		C187.84,896.53,186.88,896.94,185.93,896.94z M1707.49,896.71c-0.99,0-1.98-0.44-2.64-1.29c-1.13-1.45-0.87-3.55,0.59-4.68
		c1.43-1.11,3.56-0.93,4.7,0.48c1.14,1.41,1.02,3.42-0.37,4.6c-0.04,0.03-0.2,0.16-0.24,0.19
		C1708.93,896.48,1708.21,896.71,1707.49,896.71z M175.79,887.9c-0.82,0-1.63-0.31-2.27-0.93l-0.14-0.14c-1.3-1.3-1.3-3.42,0-4.72
		c1.3-1.3,3.42-1.3,4.72,0c1.32,1.29,1.39,3.45,0.1,4.77C177.53,887.55,176.66,887.9,175.79,887.9z M1717.53,887.68
		c-0.88,0-1.75-0.34-2.41-1.03c-1.28-1.33-1.23-3.44,0.1-4.72c1.3-1.31,3.45-1.34,4.76-0.04c1.3,1.3,1.34,3.38,0.03,4.69l-0.17,0.16
		C1719.2,887.37,1718.36,887.68,1717.53,887.68z M166.63,878.06c-0.95,0-1.89-0.4-2.55-1.18l-0.08-0.1
		c-1.21-1.39-1.05-3.5,0.34-4.71c1.39-1.21,3.5-1.05,4.71,0.34l0.13,0.15c1.19,1.41,1.02,3.51-0.39,4.7
		C168.15,877.81,167.39,878.06,166.63,878.06z M1726.75,877.79c-0.76,0-1.53-0.26-2.15-0.79c-1.41-1.19-1.58-3.3-0.39-4.7
		c1.19-1.41,3.35-1.65,4.76-0.45c1.41,1.19,1.64,3.23,0.44,4.64l-0.11,0.13C1728.63,877.39,1727.69,877.79,1726.75,877.79z
		 M158.3,867.43c-1.04,0-2.07-0.49-2.72-1.4l2.72-1.94l-2.8,1.82c-1.08-1.49-0.74-3.58,0.75-4.66s3.58-0.74,4.66,0.75
		c0,0,0.1,0.15,0.11,0.15c1.07,1.5,0.72,3.58-0.78,4.66C159.65,867.23,158.97,867.43,158.3,867.43z M1735.05,867.14
		c-0.65,0-1.3-0.19-1.87-0.58c-1.53-1.03-1.92-3.11-0.89-4.64l0.14-0.2c1.07-1.5,3.16-1.85,4.66-0.78c1.5,1.07,1.85,3.16,0.78,4.66
		l-0.05,0.07C1737.17,866.63,1736.12,867.14,1735.05,867.14z M150.85,856.05c-1.1,0-2.15-0.54-2.77-1.56
		c-0.01-0.01-0.1-0.17-0.11-0.19c-0.93-1.59-0.39-3.64,1.2-4.56c1.59-0.93,3.64-0.39,4.56,1.2c0.92,1.58,0.44,3.69-1.14,4.62
		C152.05,855.89,151.44,856.05,150.85,856.05z M1742.38,855.79c-0.6,0-1.21-0.16-1.76-0.5c-1.57-0.97-2.05-3.03-1.08-4.6
		c0.91-1.61,2.95-2.18,4.56-1.27c1.6,0.91,2.17,2.93,1.27,4.54l-0.15,0.26C1744.59,855.23,1743.5,855.79,1742.38,855.79z
		 M144.62,844.17c-1.26,0-2.46-0.71-3.03-1.92l3.02-1.41l-3.08,1.3c-0.8-1.66-0.11-3.66,1.55-4.46c1.66-0.8,3.66-0.11,4.46,1.55
		c0.01,0.01,0.08,0.17,0.09,0.19c0.78,1.67,0.06,3.66-1.61,4.44C145.57,844.07,145.09,844.17,144.62,844.17z M1748.68,843.83
		c-0.46,0-0.93-0.1-1.37-0.3c-1.68-0.76-2.42-2.73-1.66-4.41l0.11-0.23c0.81-1.66,2.81-2.35,4.46-1.55c1.66,0.8,2.35,2.8,1.55,4.46
		l-3.01-1.45l2.97,1.53C1751.17,843.1,1749.95,843.83,1748.68,843.83z M139.3,831.65c-1.32,0-2.55-0.78-3.05-2.1
		c-0.01-0.01-0.07-0.18-0.07-0.2c-0.62-1.74,0.28-3.65,2.01-4.27c1.73-0.63,3.65,0.28,4.27,2.01c0.62,1.73-0.24,3.71-1.96,4.34
		C140.1,831.58,139.7,831.65,139.3,831.65z M1753.89,831.34c-0.36,0-0.72-0.06-1.07-0.18c-1.73-0.6-2.67-2.45-2.09-4.19l0.1-0.27
		c0.65-1.73,2.57-2.59,4.3-1.95c1.73,0.65,2.6,2.57,1.95,4.3l-3.13-1.17l3.11,1.22C1756.57,830.46,1755.27,831.34,1753.89,831.34z
		 M135.22,818.8c-1.45,0-2.77-0.93-3.17-2.41l-0.05-0.21c-0.46-1.78,0.61-3.6,2.4-4.06c1.79-0.46,3.6,0.61,4.06,2.4
		c0.49,1.78-0.55,3.67-2.33,4.16C135.83,818.76,135.52,818.8,135.22,818.8z M1757.97,818.47c-0.26,0-0.53-0.03-0.8-0.1
		c-1.78-0.44-2.88-2.23-2.45-4.02c0.01-0.03,0.06-0.22,0.07-0.25c0.49-1.78,2.31-2.82,4.1-2.34c1.78,0.49,2.83,2.32,2.34,4.1
		l-3.22-0.88l3.2,0.95C1760.84,817.45,1759.47,818.47,1757.97,818.47z M132.32,805.67c-1.59,0-3-1.14-3.28-2.76l-0.03-0.15
		c-0.33-1.81,0.87-3.55,2.69-3.88c1.82-0.32,3.55,0.87,3.88,2.69l0.03,0.18c0.32,1.82-0.89,3.55-2.71,3.87
		C132.71,805.65,132.51,805.67,132.32,805.67z M1760.89,805.29c-0.17,0-0.34-0.01-0.51-0.04c-1.82-0.28-3.07-1.98-2.8-3.8l0.04-0.24
		c0.32-1.81,2.04-3.02,3.87-2.71c1.82,0.32,3.03,2.05,2.71,3.87l-3.29-0.58l3.27,0.66C1763.93,804.11,1762.51,805.29,1760.89,805.29
		z M130.54,792.2c-1.7,0-3.14-1.23-3.3-2.96l-0.01-0.17c-0.16-1.84,1.2-3.46,3.03-3.62c1.85-0.17,3.46,1.19,3.62,3.03
		c0.16,1.84-1.19,3.54-3.02,3.7C130.74,792.19,130.64,792.2,130.54,792.2z M1762.61,791.88c-0.07,0-0.14,0-0.21-0.01
		c-1.83-0.11-3.23-1.68-3.12-3.51c0-0.03,0.02-0.23,0.02-0.26c0.16-1.84,1.77-3.18,3.62-3.03c1.84,0.16,3.19,1.78,3.03,3.62
		l-3.32-0.29l3.32,0.37C1765.82,790.52,1764.36,791.88,1762.61,791.88z M129.99,778.78c-1.84,0-3.34-1.49-3.34-3.34v-0.17
		c0-1.84,1.49-3.34,3.34-3.34c1.84,0,3.34,1.49,3.34,3.34v0.17C133.33,777.29,131.83,778.78,129.99,778.78z M1763.15,778.4
		c-1.84,0-3.34-1.49-3.34-3.34c0-1.84,1.49-3.42,3.34-3.42c1.84,0,3.34,1.41,3.34,3.25v0.17C1766.49,776.9,1765,778.4,1763.15,778.4
		z M129.99,765.18c-1.84,0-3.34-1.41-3.34-3.25v-0.17c0-1.84,1.49-3.34,3.34-3.34c1.84,0,3.34,1.49,3.34,3.34
		C133.33,763.6,131.83,765.18,129.99,765.18z M1763.15,764.88c-1.84,0-3.34-1.49-3.34-3.34v-0.17c0-1.84,1.49-3.34,3.34-3.34
		c1.84,0,3.34,1.49,3.34,3.34v0.17C1766.49,763.39,1765,764.88,1763.15,764.88z M129.99,751.66c-1.84,0-3.34-1.41-3.34-3.25v-0.17
		c0-1.84,1.49-3.34,3.34-3.34c1.84,0,3.34,1.49,3.34,3.34C133.33,750.09,131.83,751.66,129.99,751.66z M1763.15,751.36
		c-1.84,0-3.34-1.49-3.34-3.34c0-1.84,1.49-3.42,3.34-3.42c1.84,0,3.34,1.41,3.34,3.25v0.17
		C1766.49,749.87,1765,751.36,1763.15,751.36z M129.99,738.23c-1.84,0-3.34-1.49-3.34-3.34v-0.17c0-1.84,1.49-3.34,3.34-3.34
		c1.84,0,3.34,1.49,3.34,3.34v0.17C133.33,736.74,131.83,738.23,129.99,738.23z M1763.15,737.85c-1.84,0-3.34-1.49-3.34-3.34v-0.17
		c0-1.84,1.49-3.34,3.34-3.34c1.84,0,3.34,1.49,3.34,3.34v0.17C1766.49,736.35,1765,737.85,1763.15,737.85z M129.99,724.63
		c-1.84,0-3.34-1.41-3.34-3.25v-0.17c0-1.84,1.49-3.34,3.34-3.34c1.84,0,3.34,1.49,3.34,3.34
		C133.33,723.05,131.83,724.63,129.99,724.63z M1763.15,724.33c-1.84,0-3.34-1.49-3.34-3.34c0-1.84,1.49-3.42,3.34-3.42
		c1.84,0,3.34,1.41,3.34,3.25v0.17C1766.49,722.83,1765,724.33,1763.15,724.33z M129.99,711.2c-1.84,0-3.34-1.49-3.34-3.34v-0.17
		c0-1.84,1.49-3.34,3.34-3.34c1.84,0,3.34,1.49,3.34,3.34v0.17C133.33,709.7,131.83,711.2,129.99,711.2z M1763.15,710.81
		c-1.84,0-3.34-1.49-3.34-3.34c0-1.84,1.49-3.42,3.34-3.42c1.84,0,3.34,1.41,3.34,3.25v0.17
		C1766.49,709.32,1765,710.81,1763.15,710.81z M129.99,697.59c-1.84,0-3.34-1.41-3.34-3.25v-0.17c0-1.84,1.49-3.34,3.34-3.34
		c1.84,0,3.34,1.49,3.34,3.34C133.33,696.02,131.83,697.59,129.99,697.59z M1763.15,697.3c-1.84,0-3.34-1.49-3.34-3.34v-0.17
		c0-1.84,1.49-3.34,3.34-3.34c1.84,0,3.34,1.49,3.34,3.34v0.17C1766.49,695.8,1765,697.3,1763.15,697.3z M129.99,684.08
		c-1.84,0-3.34-1.41-3.34-3.25v-0.17c0-1.84,1.49-3.34,3.34-3.34c1.84,0,3.34,1.49,3.34,3.34
		C133.33,682.5,131.83,684.08,129.99,684.08z M1763.15,683.78c-1.84,0-3.34-1.49-3.34-3.34c0-1.84,1.49-3.42,3.34-3.42
		c1.84,0,3.34,1.41,3.34,3.25v0.17C1766.49,682.28,1765,683.78,1763.15,683.78z M129.99,670.64c-1.84,0-3.34-1.49-3.34-3.34v-0.17
		c0-1.84,1.49-3.34,3.34-3.34c1.84,0,3.34,1.49,3.34,3.34v0.17C133.33,669.15,131.83,670.64,129.99,670.64z M1763.15,670.26
		c-1.84,0-3.34-1.49-3.34-3.34v-0.17c0-1.84,1.49-3.34,3.34-3.34c1.84,0,3.34,1.49,3.34,3.34v0.17
		C1766.49,668.77,1765,670.26,1763.15,670.26z M129.99,657.04c-1.84,0-3.34-1.41-3.34-3.25v-0.17c0-1.84,1.49-3.34,3.34-3.34
		c1.84,0,3.34,1.49,3.34,3.34C133.33,655.47,131.83,657.04,129.99,657.04z M1763.15,656.74c-1.84,0-3.34-1.49-3.34-3.34
		c0-1.84,1.49-3.42,3.34-3.42c1.84,0,3.34,1.41,3.34,3.25v0.17C1766.49,655.25,1765,656.74,1763.15,656.74z M129.99,643.61
		c-1.84,0-3.34-1.49-3.34-3.34v-0.17c0-1.84,1.49-3.34,3.34-3.34c1.84,0,3.34,1.49,3.34,3.34v0.17
		C133.33,642.12,131.83,643.61,129.99,643.61z M1763.15,643.23c-1.84,0-3.34-1.49-3.34-3.34c0-1.84,1.49-3.42,3.34-3.42
		c1.84,0,3.34,1.41,3.34,3.25v0.17C1766.49,641.73,1765,643.23,1763.15,643.23z M129.99,630.01c-1.84,0-3.34-1.41-3.34-3.25v-0.17
		c0-1.84,1.49-3.34,3.34-3.34c1.84,0,3.34,1.49,3.34,3.34C133.33,628.43,131.83,630.01,129.99,630.01z M1763.15,629.71
		c-1.84,0-3.34-1.49-3.34-3.34v-0.17c0-1.84,1.49-3.34,3.34-3.34c1.84,0,3.34,1.49,3.34,3.34v0.17
		C1766.49,628.22,1765,629.71,1763.15,629.71z M129.99,616.49c-1.84,0-3.34-1.41-3.34-3.25v-0.17c0-1.84,1.49-3.34,3.34-3.34
		c1.84,0,3.34,1.49,3.34,3.34C133.33,614.91,131.83,616.49,129.99,616.49z M1763.15,616.19c-1.84,0-3.34-1.49-3.34-3.34
		c0-1.84,1.49-3.42,3.34-3.42c1.84,0,3.34,1.41,3.34,3.25v0.17C1766.49,614.7,1765,616.19,1763.15,616.19z M129.99,603.06
		c-1.84,0-3.34-1.49-3.34-3.34v-0.17c0-1.84,1.49-3.34,3.34-3.34c1.84,0,3.34,1.49,3.34,3.34v0.17
		C133.33,601.56,131.83,603.06,129.99,603.06z M1763.15,602.68c-1.84,0-3.34-1.49-3.34-3.34c0-1.84,1.49-3.42,3.34-3.42
		c1.84,0,3.34,1.41,3.34,3.25v0.17C1766.49,601.18,1765,602.68,1763.15,602.68z M129.99,589.46c-1.84,0-3.34-1.41-3.34-3.25v-0.17
		c0-1.84,1.49-3.34,3.34-3.34c1.84,0,3.34,1.49,3.34,3.34C133.33,587.88,131.83,589.46,129.99,589.46z M1763.15,589.16
		c-1.84,0-3.34-1.49-3.34-3.34v-0.17c0-1.84,1.49-3.34,3.34-3.34c1.84,0,3.34,1.49,3.34,3.34v0.17
		C1766.49,587.66,1765,589.16,1763.15,589.16z M129.99,576.02c-1.84,0-3.34-1.49-3.34-3.34v-0.17c0-1.84,1.49-3.34,3.34-3.34
		c1.84,0,3.34,1.49,3.34,3.34v0.17C133.33,574.53,131.83,576.02,129.99,576.02z M1763.15,575.64c-1.84,0-3.34-1.49-3.34-3.34
		c0-1.84,1.49-3.42,3.34-3.42c1.84,0,3.34,1.41,3.34,3.25v0.17C1766.49,574.15,1765,575.64,1763.15,575.64z M129.99,562.42
		c-1.84,0-3.34-1.41-3.34-3.25V559c0-1.84,1.49-3.34,3.34-3.34c1.84,0,3.34,1.49,3.34,3.34
		C133.33,560.84,131.83,562.42,129.99,562.42z M1763.15,562.12c-1.84,0-3.34-1.49-3.34-3.34v-0.17c0-1.84,1.49-3.34,3.34-3.34
		c1.84,0,3.34,1.49,3.34,3.34v0.17C1766.49,560.63,1765,562.12,1763.15,562.12z M129.99,548.91c-1.84,0-3.34-1.41-3.34-3.25v-0.17
		c0-1.84,1.49-3.34,3.34-3.34c1.84,0,3.34,1.49,3.34,3.34C133.33,547.33,131.83,548.91,129.99,548.91z M1763.15,548.61
		c-1.84,0-3.34-1.49-3.34-3.34c0-1.84,1.49-3.42,3.34-3.42c1.84,0,3.34,1.41,3.34,3.25v0.17
		C1766.49,547.11,1765,548.61,1763.15,548.61z M129.99,535.47c-1.84,0-3.34-1.49-3.34-3.34v-0.17c0-1.84,1.49-3.34,3.34-3.34
		c1.84,0,3.34,1.49,3.34,3.34v0.17C133.33,533.98,131.83,535.47,129.99,535.47z M1763.15,535.09c-1.84,0-3.34-1.49-3.34-3.34
		c0-1.84,1.49-3.42,3.34-3.42c1.84,0,3.34,1.41,3.34,3.25v0.17C1766.49,533.59,1765,535.09,1763.15,535.09z M129.99,521.87
		c-1.84,0-3.34-1.41-3.34-3.25v-0.17c0-1.84,1.49-3.34,3.34-3.34c1.84,0,3.34,1.49,3.34,3.34
		C133.33,520.29,131.83,521.87,129.99,521.87z M1763.15,521.57c-1.84,0-3.34-1.49-3.34-3.34v-0.17c0-1.84,1.49-3.34,3.34-3.34
		c1.84,0,3.34,1.49,3.34,3.34v0.17C1766.49,520.08,1765,521.57,1763.15,521.57z M129.99,508.44c-1.84,0-3.34-1.49-3.34-3.34v-0.17
		c0-1.84,1.49-3.34,3.34-3.34c1.84,0,3.34,1.49,3.34,3.34v0.17C133.33,506.94,131.83,508.44,129.99,508.44z M1763.15,508.05
		c-1.84,0-3.34-1.49-3.34-3.34s1.49-3.42,3.34-3.42c1.84,0,3.34,1.41,3.34,3.25v0.17C1766.49,506.56,1765,508.05,1763.15,508.05z
		 M129.99,494.84c-1.84,0-3.34-1.41-3.34-3.25v-0.17c0-1.84,1.49-3.34,3.34-3.34c1.84,0,3.34,1.49,3.34,3.34
		S131.83,494.84,129.99,494.84z M1763.15,494.54c-1.84,0-3.34-1.49-3.34-3.34v-0.17c0-1.84,1.49-3.34,3.34-3.34
		c1.84,0,3.34,1.49,3.34,3.34v0.17C1766.49,493.04,1765,494.54,1763.15,494.54z M129.99,481.32c-1.84,0-3.34-1.41-3.34-3.25v-0.17
		c0-1.84,1.49-3.34,3.34-3.34c1.84,0,3.34,1.49,3.34,3.34S131.83,481.32,129.99,481.32z M1763.15,481.02
		c-1.84,0-3.34-1.49-3.34-3.34c0-1.84,1.49-3.42,3.34-3.42c1.84,0,3.34,1.41,3.34,3.25v0.17
		C1766.49,479.53,1765,481.02,1763.15,481.02z M129.99,467.89c-1.84,0-3.34-1.49-3.34-3.34v-0.17c0-1.84,1.49-3.34,3.34-3.34
		c1.84,0,3.34,1.49,3.34,3.34v0.17C133.33,466.39,131.83,467.89,129.99,467.89z M1763.15,467.5c-1.84,0-3.34-1.49-3.34-3.34
		s1.49-3.42,3.34-3.42c1.84,0,3.34,1.41,3.34,3.25v0.17C1766.49,466.01,1765,467.5,1763.15,467.5z M129.99,454.28
		c-1.84,0-3.34-1.41-3.34-3.25v-0.17c0-1.84,1.49-3.34,3.34-3.34c1.84,0,3.34,1.49,3.34,3.34S131.83,454.28,129.99,454.28z
		 M1763.15,453.99c-1.84,0-3.34-1.49-3.34-3.34v-0.17c0-1.84,1.49-3.34,3.34-3.34c1.84,0,3.34,1.49,3.34,3.34v0.17
		C1766.49,452.49,1765,453.99,1763.15,453.99z M129.99,440.77c-1.84,0-3.34-1.41-3.34-3.25v-0.17c0-1.84,1.49-3.34,3.34-3.34
		c1.84,0,3.34,1.49,3.34,3.34C133.33,439.19,131.83,440.77,129.99,440.77z M1763.15,440.47c-1.84,0-3.34-1.49-3.34-3.34
		s1.49-3.42,3.34-3.42c1.84,0,3.34,1.41,3.34,3.25v0.17C1766.49,438.97,1765,440.47,1763.15,440.47z M129.99,427.33
		c-1.84,0-3.34-1.49-3.34-3.34v-0.17c0-1.84,1.49-3.34,3.34-3.34c1.84,0,3.34,1.49,3.34,3.34V424
		C133.33,425.84,131.83,427.33,129.99,427.33z M1763.15,426.95c-1.84,0-3.34-1.49-3.34-3.34v-0.17c0-1.84,1.49-3.34,3.34-3.34
		c1.84,0,3.34,1.49,3.34,3.34v0.17C1766.49,425.46,1765,426.95,1763.15,426.95z M129.99,413.73c-1.84,0-3.34-1.41-3.34-3.25v-0.17
		c0-1.84,1.49-3.34,3.34-3.34c1.84,0,3.34,1.49,3.34,3.34S131.83,413.73,129.99,413.73z M1763.15,413.43
		c-1.84,0-3.34-1.49-3.34-3.34s1.49-3.42,3.34-3.42c1.84,0,3.34,1.41,3.34,3.25v0.17C1766.49,411.94,1765,413.43,1763.15,413.43z
		 M129.99,400.3c-1.84,0-3.34-1.49-3.34-3.34v-0.17c0-1.84,1.49-3.34,3.34-3.34c1.84,0,3.34,1.49,3.34,3.34v0.17
		C133.33,398.81,131.83,400.3,129.99,400.3z M1763.15,399.92c-1.84,0-3.34-1.49-3.34-3.34s1.49-3.42,3.34-3.42
		c1.84,0,3.34,1.41,3.34,3.25v0.17C1766.49,398.42,1765,399.92,1763.15,399.92z M129.99,386.78c-1.84,0-3.34-1.49-3.34-3.34v-0.17
		c0-1.84,1.49-3.34,3.34-3.34c1.84,0,3.34,1.49,3.34,3.34v0.17C133.33,385.29,131.83,386.78,129.99,386.78z M1763.15,386.4
		c-1.84,0-3.34-1.49-3.34-3.34v-0.17c0-1.84,1.49-3.34,3.34-3.34c1.84,0,3.34,1.49,3.34,3.34v0.17
		C1766.49,384.91,1765,386.4,1763.15,386.4z M129.99,373.27c-1.84,0-3.34-1.49-3.34-3.34v-0.17c0-1.84,1.49-3.34,3.34-3.34
		c1.84,0,3.34,1.49,3.34,3.34v0.17C133.33,371.77,131.83,373.27,129.99,373.27z M1763.15,372.88c-1.84,0-3.34-1.49-3.34-3.34
		s1.49-3.42,3.34-3.42c1.84,0,3.34,1.41,3.34,3.25v0.17C1766.49,371.39,1765,372.88,1763.15,372.88z M129.99,359.75
		c-1.84,0-3.34-1.49-3.34-3.34v-0.17c0-1.84,1.49-3.34,3.34-3.34c1.84,0,3.34,1.49,3.34,3.34v0.17
		C133.33,358.25,131.83,359.75,129.99,359.75z M1763.15,359.37c-1.84,0-3.34-1.49-3.34-3.34v-0.17c0-1.84,1.49-3.34,3.34-3.34
		c1.84,0,3.34,1.49,3.34,3.34v0.17C1766.49,357.87,1765,359.37,1763.15,359.37z M129.99,346.15c-1.84,0-3.34-1.41-3.34-3.25v-0.17
		c0-1.84,1.49-3.34,3.34-3.34c1.84,0,3.34,1.49,3.34,3.34C133.33,344.57,131.83,346.15,129.99,346.15z M1763.15,345.85
		c-1.84,0-3.34-1.49-3.34-3.34v-0.17c0-1.84,1.49-3.34,3.34-3.34c1.84,0,3.34,1.49,3.34,3.34v0.17
		C1766.49,344.35,1765,345.85,1763.15,345.85z M129.99,332.71c-1.84,0-3.34-1.49-3.34-3.34v-0.17c0-1.84,1.49-3.34,3.34-3.34
		c1.84,0,3.34,1.49,3.34,3.34v0.17C133.33,331.22,131.83,332.71,129.99,332.71z M1763.15,332.33c-1.84,0-3.34-1.49-3.34-3.34v-0.17
		c0-1.84,1.49-3.34,3.34-3.34c1.84,0,3.34,1.49,3.34,3.34v0.17C1766.49,330.84,1765,332.33,1763.15,332.33z M129.99,319.2
		c-1.84,0-3.34-1.49-3.34-3.34v-0.17c0-1.84,1.49-3.34,3.34-3.34c1.84,0,3.34,1.49,3.34,3.34v0.17
		C133.33,317.7,131.83,319.2,129.99,319.2z M1763.15,318.81c-1.84,0-3.34-1.49-3.34-3.34v-0.17c0-1.84,1.49-3.34,3.34-3.34
		c1.84,0,3.34,1.49,3.34,3.34v0.17C1766.49,317.32,1765,318.81,1763.15,318.81z M129.99,305.68c-1.84,0-3.34-1.49-3.34-3.34v-0.17
		c0-1.84,1.49-3.34,3.34-3.34c1.84,0,3.34,1.49,3.34,3.34v0.17C133.33,304.19,131.83,305.68,129.99,305.68z M1763.15,305.3
		c-1.84,0-3.34-1.49-3.34-3.34s1.49-3.42,3.34-3.42c1.84,0,3.34,1.41,3.34,3.25v0.17C1766.49,303.8,1765,305.3,1763.15,305.3z
		 M130.06,292.16c-0.03,0-0.07,0-0.1,0c-1.84-0.05-3.29-1.59-3.24-3.43l0-0.17c0.05-1.84,1.57-3.27,3.43-3.24
		c1.84,0.05,3.29,1.59,3.24,3.43l0,0.17C133.34,290.73,131.85,292.16,130.06,292.16z M1763.07,291.78c-1.8,0-3.28-1.43-3.33-3.24
		c-0.05-1.84,1.39-3.46,3.23-3.52c1.92-0.07,3.38,1.31,3.43,3.16l0,0.17c0.05,1.84-1.4,3.38-3.24,3.43
		C1763.14,291.78,1763.11,291.78,1763.07,291.78z M131.03,278.61c-0.12,0-0.25-0.01-0.38-0.02c-1.83-0.22-3.15-1.79-2.93-3.62
		c0,0,0.02-0.17,0.02-0.17c0.22-1.83,1.88-3.14,3.71-2.92c1.83,0.22,3.14,1.88,2.92,3.71C134.17,277.29,132.71,278.61,131.03,278.61
		z M1762.05,278.31c-1.67,0-3.11-1.25-3.31-2.94c0,0-0.02-0.17-0.02-0.17c-0.22-1.83,1.09-3.49,2.93-3.71
		c1.84-0.21,3.49,1.1,3.7,2.92l-3.31,0.39l3.33-0.23c0.22,1.83-1.09,3.49-2.92,3.71C1762.32,278.31,1762.19,278.31,1762.05,278.31z
		 M133.21,265.36c-0.23,0-0.46-0.02-0.69-0.07c-1.8-0.38-2.96-2.14-2.58-3.95l0.04-0.16c0.38-1.8,2.15-2.96,3.95-2.58
		c1.8,0.38,2.96,2.15,2.58,3.95l-0.03,0.16C136.14,264.28,134.76,265.36,133.21,265.36z M1759.85,264.99
		c-1.54,0-2.93-1.08-3.26-2.65c0,0-0.04-0.17-0.04-0.17c-0.38-1.8,0.78-3.57,2.58-3.95c1.8-0.38,3.57,0.78,3.95,2.58l-3.27,0.68
		l3.3-0.53c0.38,1.8-0.77,3.57-2.57,3.96C1760.32,264.96,1760.08,264.99,1759.85,264.99z M136.54,252.2c-0.31,0-0.62-0.04-0.93-0.14
		c-1.76-0.53-2.78-2.32-2.25-4.09l0.05-0.17c0.54-1.76,2.41-2.75,4.17-2.21c1.76,0.54,2.75,2.41,2.21,4.17
		C139.35,251.21,137.99,252.2,136.54,252.2z M1756.47,251.91c-1.43,0-2.76-0.93-3.19-2.37c-0.54-1.76,0.42-3.7,2.19-4.24
		c1.76-0.54,3.61,0.37,4.15,2.13l0.05,0.17c0.53,1.76-0.46,3.63-2.23,4.16C1757.12,251.86,1756.8,251.91,1756.47,251.91z
		 M141.05,239.51c-0.42,0-0.84-0.08-1.25-0.24c-1.71-0.69-2.53-2.62-1.84-4.33c0,0,0.02-0.04,0.02-0.04c0.69-1.7,2.64-2.58,4.35-1.9
		c1.7,0.68,2.56,2.55,1.9,4.25c-0.01,0.02-0.06,0.15-0.07,0.17C143.63,238.72,142.38,239.51,141.05,239.51z M1751.94,239.18
		c-1.32,0-2.57-0.79-3.09-2.08c-0.7-1.7,0.08-3.72,1.78-4.43c1.71-0.7,3.63,0.04,4.33,1.74l0.07,0.17c0.69,1.71-0.13,3.65-1.83,4.35
		C1752.78,239.1,1752.36,239.18,1751.94,239.18z M146.67,227.17c-0.5,0-1-0.11-1.47-0.35c-1.64-0.84-2.33-2.79-1.49-4.43l0.1-0.19
		c0.85-1.63,2.87-2.26,4.51-1.4c1.63,0.86,2.26,2.87,1.4,4.51C149.12,226.48,147.91,227.17,146.67,227.17z M1746.3,226.92
		c-1.23,0-2.42-0.69-3-1.87c-0.8-1.64-0.19-3.69,1.44-4.52c1.62-0.83,3.57-0.28,4.43,1.33c0.02,0.03,0.11,0.21,0.13,0.24
		c0.81,1.65,0.13,3.65-1.52,4.47C1747.29,226.81,1746.79,226.92,1746.3,226.92z M153.37,215.43c-0.59,0-1.19-0.16-1.72-0.49
		c-1.57-0.97-2.08-2.98-1.11-4.54l0.11-0.18c0.99-1.55,3.06-2.01,4.61-1.02c1.55,0.99,2.01,3.05,1.02,4.61
		C155.64,214.85,154.51,215.43,153.37,215.43z M1739.58,215.2c-1.09,0-2.15-0.53-2.79-1.51c-0.01-0.02-0.11-0.17-0.12-0.19
		c-0.98-1.56-0.52-3.62,1.04-4.6c1.56-0.99,3.62-0.52,4.61,1.04l-2.82,1.78l2.88-1.69c1.01,1.54,0.58,3.61-0.96,4.62
		C1740.84,215.02,1740.21,215.2,1739.58,215.2z M161.08,204.31c-0.69,0-1.39-0.21-1.97-0.66c-1.47-1.11-1.8-3.15-0.69-4.61
		l0.11-0.14c1.12-1.46,3.21-1.75,4.68-0.63c1.47,1.12,1.75,3.21,0.63,4.68C163.16,203.84,162.12,204.31,161.08,204.31z
		 M1731.85,204.12c-1.02,0-2.03-0.47-2.69-1.35c-1.09-1.47-0.84-3.61,0.61-4.71c1.45-1.11,3.48-0.9,4.6,0.54
		c0.01,0.02,0.13,0.17,0.15,0.19c1.1,1.48,0.79,3.57-0.7,4.67C1733.24,203.91,1732.54,204.12,1731.85,204.12z M169.73,194.02
		c-0.81,0-1.62-0.29-2.26-0.88c-1.36-1.25-1.44-3.36-0.2-4.72l2.46,2.26l-2.37-2.36c1.24-1.37,3.35-1.48,4.71-0.24
		c1.37,1.23,1.48,3.35,0.24,4.71c-0.01,0.01-0.13,0.14-0.14,0.15C171.53,193.66,170.63,194.02,169.73,194.02z M1723.17,193.76
		c-0.91,0-1.82-0.37-2.48-1.1c-1.23-1.36-1.18-3.53,0.17-4.76c1.36-1.24,3.41-1.2,4.65,0.15c0.01,0.01,0.13,0.14,0.14,0.15
		c1.23,1.37,1.13,3.48-0.24,4.71C1724.77,193.48,1723.97,193.76,1723.17,193.76z M179.26,184.45c-0.9,0-1.8-0.36-2.46-1.08
		c-1.25-1.36-1.16-3.47,0.2-4.72l0.12-0.11c1.36-1.25,3.47-1.16,4.72,0.19c1.25,1.36,1.16,3.47-0.19,4.72l-0.13,0.11
		C180.88,184.15,180.07,184.45,179.26,184.45z M1713.62,184.21c-0.79,0-1.57-0.28-2.21-0.84l-0.17-0.16
		c-1.36-1.25-1.44-3.36-0.2-4.72c1.25-1.36,3.36-1.45,4.72-0.2l0.07,0.07c1.38,1.22,1.51,3.33,0.29,4.71
		C1715.46,183.83,1714.54,184.21,1713.62,184.21z M189.66,175.67c-1,0-1.99-0.43-2.64-1.27c-1.12-1.46-0.92-3.49,0.53-4.62
		c0.01-0.01,0.15-0.12,0.16-0.13c1.47-1.11,3.56-0.83,4.68,0.64c1.11,1.47,0.83,3.56-0.64,4.68
		C191.13,175.44,190.4,175.67,189.66,175.67z M1703.26,175.54c-0.72,0-1.44-0.23-2.05-0.7c-1.45-1.13-1.78-3.26-0.66-4.72
		c1.12-1.46,3.14-1.79,4.6-0.67c0.01,0.01,0.15,0.12,0.16,0.12c1.46,1.13,1.72,3.23,0.59,4.68
		C1705.24,175.09,1704.25,175.54,1703.26,175.54z M200.75,167.92c-1.11,0-2.2-0.53-2.83-1.52c-0.98-1.54-0.6-3.55,0.93-4.54
		c0.02-0.01,0.18-0.11,0.2-0.13c1.56-0.97,3.62-0.49,4.6,1.08c0.97,1.57,0.49,3.62-1.08,4.6C202,167.75,201.37,167.92,200.75,167.92
		z M1692.17,167.81c-0.6,0-1.21-0.16-1.76-0.5l-0.18-0.11c-1.55-0.99-2.01-3.05-1.02-4.61c0.99-1.55,3.06-2.01,4.61-1.02l0.11,0.07
		c1.57,0.97,2.05,3.03,1.08,4.6C1694.38,167.25,1693.29,167.81,1692.17,167.81z M212.37,161.26c-1.21,0-2.37-0.66-2.97-1.81
		c-0.85-1.64-0.2-3.65,1.43-4.5l1.53,2.97l-1.4-3.03c1.63-0.86,3.65-0.23,4.51,1.4c0.86,1.63,0.23,3.65-1.4,4.51
		c-0.01,0-0.16,0.08-0.17,0.09C213.41,161.14,212.89,161.26,212.37,161.26z M1680.45,161.09c-0.52,0-1.04-0.12-1.53-0.37l-0.15-0.08
		c-1.64-0.85-2.28-2.86-1.43-4.5c0.84-1.64,2.86-2.28,4.5-1.43l0.15,0.08c1.64,0.85,2.28,2.86,1.44,4.5
		C1682.82,160.43,1681.66,161.09,1680.45,161.09z M224.74,155.52c-1.32,0-2.6-0.76-3.13-2.04c-0.7-1.7,0.03-3.62,1.73-4.33
		l0.15-0.06c1.7-0.71,3.66,0.11,4.36,1.81c0.7,1.7-0.11,3.66-1.81,4.36C225.62,155.44,225.18,155.52,224.74,155.52z M1668.17,155.44
		c-0.42,0-0.84-0.08-1.25-0.24l-0.16-0.07c-1.71-0.69-2.53-2.64-1.83-4.35c0.69-1.71,2.63-2.53,4.35-1.84l0.15,0.06
		c1.71,0.69,2.54,2.63,1.85,4.34C1670.74,154.65,1669.49,155.44,1668.17,155.44z M237.46,150.98c-1.44,0-2.8-0.91-3.24-2.34
		c-0.54-1.76,0.37-3.61,2.13-4.15l0.17-0.05c1.77-0.54,3.63,0.46,4.16,2.23c0.53,1.76-0.46,3.63-2.23,4.16
		C238.13,150.93,237.8,150.98,237.46,150.98z M1655.44,150.91c-0.33,0-0.67-0.05-1-0.15c-1.76-0.54-2.83-2.42-2.29-4.18
		c0.53-1.76,2.32-2.79,4.1-2.25l0.19,0.06c1.76,0.55,2.74,2.42,2.19,4.18C1658.18,149.99,1656.86,150.91,1655.44,150.91z
		 M250.4,147.61c-1.55,0-2.94-1.08-3.26-2.66c-0.38-1.8,0.78-3.57,2.58-3.95l0.68,3.27l-0.58-3.29c1.8-0.41,3.59,0.72,3.99,2.51
		c0.41,1.8-0.72,3.59-2.51,3.99c-0.02,0-0.2,0.04-0.22,0.05C250.86,147.59,250.63,147.61,250.4,147.61z M1642.36,147.53
		c-0.22,0-0.45-0.02-0.68-0.07c-0.01,0-0.18-0.04-0.18-0.04c-1.8-0.38-2.95-2.15-2.57-3.96c0.38-1.8,2.15-2.95,3.96-2.57l-0.69,3.27
		l0.84-3.23c1.81,0.37,2.97,2.14,2.6,3.94C1645.3,146.45,1643.91,147.53,1642.36,147.53z M263.72,145.38
		c-1.67,0-3.11-1.25-3.31-2.95c-0.22-1.83,1.09-3.49,2.92-3.71l0.39,3.31l-0.28-3.33c1.83-0.24,3.51,1.04,3.75,2.86
		c0.25,1.83-1.04,3.51-2.86,3.75c-0.02,0-0.2,0.02-0.22,0.03C263.99,145.37,263.86,145.38,263.72,145.38z M1629.03,145.33
		c-0.13,0-0.26-0.01-0.39-0.02l-0.17-0.02c-1.83-0.22-3.14-1.87-2.93-3.71c0.22-1.83,1.86-3.13,3.7-2.92l0.17,0.02
		c1.83,0.22,3.14,1.87,2.93,3.71C1632.15,144.08,1630.71,145.33,1629.03,145.33z M277.2,144.33c-1.8,0-3.28-1.43-3.33-3.24
		c-0.05-1.84,1.4-3.38,3.24-3.43l0.1,3.34l0.02-3.34c1.88-0.07,3.4,1.35,3.48,3.19c0.08,1.84-1.35,3.4-3.19,3.48
		c-0.02,0-0.2,0.01-0.22,0.01C277.26,144.33,277.23,144.33,277.2,144.33z M1615.56,144.32c-0.03,0-0.07,0-0.1,0
		c-1.84-0.05-3.38-1.59-3.32-3.44c0.05-1.81,1.46-3.24,3.25-3.24c0.03,0,0.07,0,0.1,0l0.17,0c1.84,0.05,3.29,1.59,3.24,3.43
		C1618.84,142.89,1617.36,144.32,1615.56,144.32z M1602.05,144.25c-1.84,0-3.42-1.49-3.42-3.34c0-1.84,1.41-3.34,3.25-3.34h0.17
		c1.84,0,3.34,1.49,3.34,3.34C1605.38,142.75,1603.89,144.25,1602.05,144.25z M1588.53,144.25h-0.17c-1.84,0-3.34-1.49-3.34-3.34
		c0-1.84,1.49-3.34,3.34-3.34h0.17c1.84,0,3.34,1.49,3.34,3.34C1591.87,142.75,1590.37,144.25,1588.53,144.25z M1575.01,144.25
		c-1.84,0-3.42-1.49-3.42-3.34c0-1.84,1.41-3.34,3.25-3.34h0.17c1.84,0,3.34,1.49,3.34,3.34
		C1578.35,142.75,1576.86,144.25,1575.01,144.25z M1561.5,144.25h-0.17c-1.84,0-3.34-1.49-3.34-3.34c0-1.84,1.49-3.34,3.34-3.34
		h0.17c1.84,0,3.34,1.49,3.34,3.34C1564.83,142.75,1563.34,144.25,1561.5,144.25z M1547.98,144.25c-1.84,0-3.42-1.49-3.42-3.34
		c0-1.84,1.41-3.34,3.25-3.34h0.17c1.84,0,3.34,1.49,3.34,3.34C1551.32,142.75,1549.82,144.25,1547.98,144.25z M1534.46,144.25
		c-1.84,0-3.42-1.49-3.42-3.34c0-1.84,1.41-3.34,3.25-3.34h0.17c1.84,0,3.34,1.49,3.34,3.34
		C1537.8,142.75,1536.3,144.25,1534.46,144.25z M1520.94,144.25h-0.17c-1.84,0-3.34-1.49-3.34-3.34c0-1.84,1.49-3.34,3.34-3.34h0.17
		c1.84,0,3.34,1.49,3.34,3.34C1524.28,142.75,1522.79,144.25,1520.94,144.25z M1507.43,144.25c-1.84,0-3.42-1.49-3.42-3.34
		c0-1.84,1.41-3.34,3.25-3.34h0.17c1.84,0,3.34,1.49,3.34,3.34C1510.76,142.75,1509.27,144.25,1507.43,144.25z M1493.91,144.25
		h-0.17c-1.84,0-3.34-1.49-3.34-3.34c0-1.84,1.49-3.34,3.34-3.34h0.17c1.84,0,3.34,1.49,3.34,3.34
		C1497.25,142.75,1495.75,144.25,1493.91,144.25z M1480.39,144.25c-1.84,0-3.42-1.49-3.42-3.34c0-1.84,1.41-3.34,3.25-3.34h0.17
		c1.84,0,3.34,1.49,3.34,3.34C1483.73,142.75,1482.24,144.25,1480.39,144.25z M1466.88,144.25h-0.17c-1.84,0-3.34-1.49-3.34-3.34
		c0-1.84,1.49-3.34,3.34-3.34h0.17c1.84,0,3.34,1.49,3.34,3.34C1470.21,142.75,1468.72,144.25,1466.88,144.25z M1453.36,144.25
		c-1.84,0-3.42-1.49-3.42-3.34c0-1.84,1.41-3.34,3.25-3.34h0.17c1.84,0,3.34,1.49,3.34,3.34
		C1456.69,142.75,1455.2,144.25,1453.36,144.25z M1439.84,144.25c-1.84,0-3.42-1.49-3.42-3.34c0-1.84,1.41-3.34,3.25-3.34h0.17
		c1.84,0,3.34,1.49,3.34,3.34C1443.18,142.75,1441.68,144.25,1439.84,144.25z M1426.32,144.25h-0.17c-1.84,0-3.34-1.49-3.34-3.34
		c0-1.84,1.49-3.34,3.34-3.34h0.17c1.84,0,3.34,1.49,3.34,3.34C1429.66,142.75,1428.17,144.25,1426.32,144.25z M1412.81,144.25
		c-1.84,0-3.42-1.49-3.42-3.34c0-1.84,1.41-3.34,3.25-3.34h0.17c1.84,0,3.34,1.49,3.34,3.34
		C1416.14,142.75,1414.65,144.25,1412.81,144.25z M1399.29,144.25h-0.17c-1.84,0-3.34-1.49-3.34-3.34c0-1.84,1.49-3.34,3.34-3.34
		h0.17c1.84,0,3.34,1.49,3.34,3.34C1402.63,142.75,1401.13,144.25,1399.29,144.25z M1385.77,144.25c-1.84,0-3.42-1.49-3.42-3.34
		c0-1.84,1.41-3.34,3.25-3.34h0.17c1.84,0,3.34,1.49,3.34,3.34C1389.11,142.75,1387.61,144.25,1385.77,144.25z M1372.25,144.25
		h-0.17c-1.84,0-3.34-1.49-3.34-3.34c0-1.84,1.49-3.34,3.34-3.34h0.17c1.84,0,3.34,1.49,3.34,3.34
		C1375.59,142.75,1374.1,144.25,1372.25,144.25z M1358.74,144.25c-1.84,0-3.42-1.49-3.42-3.34c0-1.84,1.41-3.34,3.25-3.34h0.17
		c1.84,0,3.34,1.49,3.34,3.34C1362.07,142.75,1360.58,144.25,1358.74,144.25z M1345.22,144.25c-1.84,0-3.42-1.49-3.42-3.34
		c0-1.84,1.41-3.34,3.25-3.34h0.17c1.84,0,3.34,1.49,3.34,3.34C1348.56,142.75,1347.06,144.25,1345.22,144.25z M1331.7,144.25h-0.17
		c-1.84,0-3.34-1.49-3.34-3.34c0-1.84,1.49-3.34,3.34-3.34h0.17c1.84,0,3.34,1.49,3.34,3.34
		C1335.04,142.75,1333.55,144.25,1331.7,144.25z M1318.19,144.25c-1.84,0-3.42-1.49-3.42-3.34c0-1.84,1.41-3.34,3.25-3.34h0.17
		c1.84,0,3.34,1.49,3.34,3.34C1321.52,142.75,1320.03,144.25,1318.19,144.25z M1304.67,144.25h-0.17c-1.84,0-3.34-1.49-3.34-3.34
		c0-1.84,1.49-3.34,3.34-3.34h0.17c1.84,0,3.34,1.49,3.34,3.34C1308.01,142.75,1306.51,144.25,1304.67,144.25z M1291.15,144.25
		c-1.84,0-3.42-1.49-3.42-3.34c0-1.84,1.41-3.34,3.25-3.34h0.17c1.84,0,3.34,1.49,3.34,3.34
		C1294.49,142.75,1292.99,144.25,1291.15,144.25z M1277.63,144.25h-0.17c-1.84,0-3.34-1.49-3.34-3.34c0-1.84,1.49-3.34,3.34-3.34
		h0.17c1.84,0,3.34,1.49,3.34,3.34C1280.97,142.75,1279.48,144.25,1277.63,144.25z M1264.12,144.25c-1.84,0-3.42-1.49-3.42-3.34
		c0-1.84,1.41-3.34,3.25-3.34h0.17c1.84,0,3.34,1.49,3.34,3.34C1267.45,142.75,1265.96,144.25,1264.12,144.25z M1250.6,144.25
		c-1.84,0-3.42-1.49-3.42-3.34c0-1.84,1.41-3.34,3.25-3.34h0.17c1.84,0,3.34,1.49,3.34,3.34
		C1253.94,142.75,1252.44,144.25,1250.6,144.25z M1237.08,144.25h-0.17c-1.84,0-3.34-1.49-3.34-3.34c0-1.84,1.49-3.34,3.34-3.34
		h0.17c1.84,0,3.34,1.49,3.34,3.34C1240.42,142.75,1238.93,144.25,1237.08,144.25z M1223.56,144.25c-1.84,0-3.42-1.49-3.42-3.34
		c0-1.84,1.41-3.34,3.25-3.34h0.17c1.84,0,3.34,1.49,3.34,3.34C1226.9,142.75,1225.41,144.25,1223.56,144.25z M1210.05,144.25h-0.17
		c-1.84,0-3.34-1.49-3.34-3.34c0-1.84,1.49-3.34,3.34-3.34h0.17c1.84,0,3.34,1.49,3.34,3.34
		C1213.39,142.75,1211.89,144.25,1210.05,144.25z M1196.53,144.25c-1.84,0-3.42-1.49-3.42-3.34c0-1.84,1.41-3.34,3.25-3.34h0.17
		c1.84,0,3.34,1.49,3.34,3.34C1199.87,142.75,1198.37,144.25,1196.53,144.25z M1183.01,144.25c-1.84,0-3.42-1.49-3.42-3.34
		c0-1.84,1.41-3.34,3.25-3.34h0.17c1.84,0,3.34,1.49,3.34,3.34C1186.35,142.75,1184.86,144.25,1183.01,144.25z M1169.5,144.25h-0.17
		c-1.84,0-3.34-1.49-3.34-3.34c0-1.84,1.49-3.34,3.34-3.34h0.17c1.84,0,3.34,1.49,3.34,3.34
		C1172.83,142.75,1171.34,144.25,1169.5,144.25z M1155.98,144.25c-1.84,0-3.42-1.49-3.42-3.34c0-1.84,1.41-3.34,3.25-3.34h0.17
		c1.84,0,3.34,1.49,3.34,3.34C1159.32,142.75,1157.82,144.25,1155.98,144.25z M1142.46,144.25h-0.17c-1.84,0-3.34-1.49-3.34-3.34
		c0-1.84,1.49-3.34,3.34-3.34h0.17c1.84,0,3.34,1.49,3.34,3.34C1145.8,142.75,1144.31,144.25,1142.46,144.25z M1128.94,144.25
		c-1.84,0-3.42-1.49-3.42-3.34c0-1.84,1.41-3.34,3.25-3.34h0.17c1.84,0,3.34,1.49,3.34,3.34
		C1132.28,142.75,1130.79,144.25,1128.94,144.25z M1115.43,144.25h-0.17c-1.84,0-3.34-1.49-3.34-3.34c0-1.84,1.49-3.34,3.34-3.34
		h0.17c1.84,0,3.34,1.49,3.34,3.34C1118.76,142.75,1117.27,144.25,1115.43,144.25z M1101.91,144.25c-1.84,0-3.42-1.49-3.42-3.34
		c0-1.84,1.41-3.34,3.25-3.34h0.17c1.84,0,3.34,1.49,3.34,3.34C1105.25,142.75,1103.75,144.25,1101.91,144.25z M1088.39,144.25
		c-1.84,0-3.42-1.49-3.42-3.34c0-1.84,1.41-3.34,3.25-3.34h0.17c1.84,0,3.34,1.49,3.34,3.34
		C1091.73,142.75,1090.24,144.25,1088.39,144.25z M1074.88,144.25h-0.17c-1.84,0-3.34-1.49-3.34-3.34c0-1.84,1.49-3.34,3.34-3.34
		h0.17c1.84,0,3.34,1.49,3.34,3.34C1078.21,142.75,1076.72,144.25,1074.88,144.25z M1061.36,144.25c-1.84,0-3.42-1.49-3.42-3.34
		c0-1.84,1.41-3.34,3.25-3.34h0.17c1.84,0,3.34,1.49,3.34,3.34C1064.7,142.75,1063.2,144.25,1061.36,144.25z M1047.84,144.25h-0.17
		c-1.84,0-3.34-1.49-3.34-3.34c0-1.84,1.49-3.34,3.34-3.34h0.17c1.84,0,3.34,1.49,3.34,3.34
		C1051.18,142.75,1049.68,144.25,1047.84,144.25z M1034.32,144.25c-1.84,0-3.42-1.49-3.42-3.34c0-1.84,1.41-3.34,3.25-3.34h0.17
		c1.84,0,3.34,1.49,3.34,3.34C1037.66,142.75,1036.17,144.25,1034.32,144.25z M1020.81,144.25h-0.17c-1.84,0-3.34-1.49-3.34-3.34
		c0-1.84,1.49-3.34,3.34-3.34h0.17c1.84,0,3.34,1.49,3.34,3.34C1024.14,142.75,1022.65,144.25,1020.81,144.25z M1007.29,144.25
		c-1.84,0-3.42-1.49-3.42-3.34c0-1.84,1.41-3.34,3.25-3.34h0.17c1.84,0,3.34,1.49,3.34,3.34
		C1010.63,142.75,1009.13,144.25,1007.29,144.25z M993.77,144.25c-1.84,0-3.42-1.49-3.42-3.34c0-1.84,1.41-3.34,3.25-3.34h0.17
		c1.84,0,3.34,1.49,3.34,3.34C997.11,142.75,995.61,144.25,993.77,144.25z M980.26,144.25h-0.17c-1.84,0-3.34-1.49-3.34-3.34
		c0-1.84,1.49-3.34,3.34-3.34h0.17c1.84,0,3.34,1.49,3.34,3.34C983.59,142.75,982.1,144.25,980.26,144.25z M966.74,144.25
		c-1.84,0-3.42-1.49-3.42-3.34c0-1.84,1.41-3.34,3.25-3.34h0.17c1.84,0,3.34,1.49,3.34,3.34
		C970.07,142.75,968.58,144.25,966.74,144.25z M953.22,144.25h-0.17c-1.84,0-3.34-1.49-3.34-3.34c0-1.84,1.49-3.34,3.34-3.34h0.17
		c1.84,0,3.34,1.49,3.34,3.34C956.56,142.75,955.06,144.25,953.22,144.25z M939.7,144.25c-1.84,0-3.42-1.49-3.42-3.34
		c0-1.84,1.41-3.34,3.25-3.34h0.17c1.84,0,3.34,1.49,3.34,3.34C943.04,142.75,941.55,144.25,939.7,144.25z M926.19,144.25
		c-1.84,0-3.42-1.49-3.42-3.34c0-1.84,1.41-3.34,3.25-3.34h0.17c1.84,0,3.34,1.49,3.34,3.34
		C929.52,142.75,928.03,144.25,926.19,144.25z M912.67,144.25h-0.17c-1.84,0-3.34-1.49-3.34-3.34c0-1.84,1.49-3.34,3.34-3.34h0.17
		c1.84,0,3.34,1.49,3.34,3.34C916.01,142.75,914.51,144.25,912.67,144.25z M899.15,144.25c-1.84,0-3.42-1.49-3.42-3.34
		c0-1.84,1.41-3.34,3.25-3.34h0.17c1.84,0,3.34,1.49,3.34,3.34C902.49,142.75,900.99,144.25,899.15,144.25z M885.63,144.25h-0.17
		c-1.84,0-3.34-1.49-3.34-3.34c0-1.84,1.49-3.34,3.34-3.34h0.17c1.84,0,3.34,1.49,3.34,3.34
		C888.97,142.75,887.48,144.25,885.63,144.25z M872.12,144.25c-1.84,0-3.42-1.49-3.42-3.34c0-1.84,1.41-3.34,3.25-3.34h0.17
		c1.84,0,3.34,1.49,3.34,3.34C875.45,142.75,873.96,144.25,872.12,144.25z M858.6,144.25c-1.84,0-3.42-1.49-3.42-3.34
		c0-1.84,1.41-3.34,3.25-3.34h0.17c1.84,0,3.34,1.49,3.34,3.34C861.94,142.75,860.44,144.25,858.6,144.25z M845.08,144.25h-0.17
		c-1.84,0-3.34-1.49-3.34-3.34c0-1.84,1.49-3.34,3.34-3.34h0.17c1.84,0,3.34,1.49,3.34,3.34
		C848.42,142.75,846.93,144.25,845.08,144.25z M831.57,144.25c-1.84,0-3.42-1.49-3.42-3.34c0-1.84,1.41-3.34,3.25-3.34h0.17
		c1.84,0,3.34,1.49,3.34,3.34C834.9,142.75,833.41,144.25,831.57,144.25z M818.05,144.25c-1.84,0-3.42-1.49-3.42-3.34
		c0-1.84,1.41-3.34,3.25-3.34h0.17c1.84,0,3.34,1.49,3.34,3.34C821.39,142.75,819.89,144.25,818.05,144.25z M804.53,144.25h-0.17
		c-1.84,0-3.34-1.49-3.34-3.34c0-1.84,1.49-3.34,3.34-3.34h0.17c1.84,0,3.34,1.49,3.34,3.34
		C807.87,142.75,806.38,144.25,804.53,144.25z M791.01,144.25c-1.84,0-3.42-1.49-3.42-3.34c0-1.84,1.41-3.34,3.25-3.34h0.17
		c1.84,0,3.34,1.49,3.34,3.34C794.35,142.75,792.86,144.25,791.01,144.25z M777.5,144.25h-0.17c-1.84,0-3.34-1.49-3.34-3.34
		c0-1.84,1.49-3.34,3.34-3.34h0.17c1.84,0,3.34,1.49,3.34,3.34C780.83,142.75,779.34,144.25,777.5,144.25z M763.98,144.25
		c-1.84,0-3.42-1.49-3.42-3.34c0-1.84,1.41-3.34,3.25-3.34h0.17c1.84,0,3.34,1.49,3.34,3.34
		C767.32,142.75,765.82,144.25,763.98,144.25z M750.46,144.25c-1.84,0-3.42-1.49-3.42-3.34c0-1.84,1.41-3.34,3.25-3.34h0.17
		c1.84,0,3.34,1.49,3.34,3.34C753.8,142.75,752.31,144.25,750.46,144.25z M736.95,144.25h-0.17c-1.84,0-3.34-1.49-3.34-3.34
		c0-1.84,1.49-3.34,3.34-3.34h0.17c1.84,0,3.34,1.49,3.34,3.34C740.28,142.75,738.79,144.25,736.95,144.25z M723.43,144.25
		c-1.84,0-3.42-1.49-3.42-3.34c0-1.84,1.41-3.34,3.25-3.34h0.17c1.84,0,3.34,1.49,3.34,3.34
		C726.77,142.75,725.27,144.25,723.43,144.25z M709.91,144.25c-1.84,0-3.42-1.49-3.42-3.34c0-1.84,1.41-3.34,3.25-3.34h0.17
		c1.84,0,3.34,1.49,3.34,3.34C713.25,142.75,711.75,144.25,709.91,144.25z M696.39,144.25h-0.17c-1.84,0-3.34-1.49-3.34-3.34
		c0-1.84,1.49-3.34,3.34-3.34h0.17c1.84,0,3.34,1.49,3.34,3.34C699.73,142.75,698.24,144.25,696.39,144.25z M682.88,144.25
		c-1.84,0-3.42-1.49-3.42-3.34c0-1.84,1.41-3.34,3.25-3.34h0.17c1.84,0,3.34,1.49,3.34,3.34
		C686.21,142.75,684.72,144.25,682.88,144.25z M669.36,144.25h-0.17c-1.84,0-3.34-1.49-3.34-3.34c0-1.84,1.49-3.34,3.34-3.34h0.17
		c1.84,0,3.34,1.49,3.34,3.34C672.7,142.75,671.2,144.25,669.36,144.25z M655.84,144.25c-1.84,0-3.42-1.49-3.42-3.34
		c0-1.84,1.41-3.34,3.25-3.34h0.17c1.84,0,3.34,1.49,3.34,3.34C659.18,142.75,657.68,144.25,655.84,144.25z M642.33,144.25
		c-1.84,0-3.42-1.49-3.42-3.34c0-1.84,1.41-3.34,3.25-3.34h0.17c1.84,0,3.34,1.49,3.34,3.34
		C645.66,142.75,644.17,144.25,642.33,144.25z M628.81,144.25h-0.17c-1.84,0-3.34-1.49-3.34-3.34c0-1.84,1.49-3.34,3.34-3.34h0.17
		c1.84,0,3.34,1.49,3.34,3.34C632.15,142.75,630.65,144.25,628.81,144.25z M615.29,144.25c-1.84,0-3.42-1.49-3.42-3.34
		c0-1.84,1.41-3.34,3.25-3.34h0.17c1.84,0,3.34,1.49,3.34,3.34C618.63,142.75,617.13,144.25,615.29,144.25z M601.77,144.25h-0.17
		c-1.84,0-3.34-1.49-3.34-3.34c0-1.84,1.49-3.34,3.34-3.34h0.17c1.84,0,3.34,1.49,3.34,3.34
		C605.11,142.75,603.62,144.25,601.77,144.25z M588.26,144.25c-1.84,0-3.42-1.49-3.42-3.34c0-1.84,1.41-3.34,3.25-3.34h0.17
		c1.84,0,3.34,1.49,3.34,3.34C591.59,142.75,590.1,144.25,588.26,144.25z M574.74,144.25c-1.84,0-3.42-1.49-3.42-3.34
		c0-1.84,1.41-3.34,3.25-3.34h0.17c1.84,0,3.34,1.49,3.34,3.34C578.08,142.75,576.58,144.25,574.74,144.25z M561.22,144.25h-0.17
		c-1.84,0-3.34-1.49-3.34-3.34c0-1.84,1.49-3.34,3.34-3.34h0.17c1.84,0,3.34,1.49,3.34,3.34
		C564.56,142.75,563.07,144.25,561.22,144.25z M547.7,144.25c-1.84,0-3.42-1.49-3.42-3.34c0-1.84,1.41-3.34,3.25-3.34h0.17
		c1.84,0,3.34,1.49,3.34,3.34C551.04,142.75,549.55,144.25,547.7,144.25z M534.19,144.25h-0.17c-1.84,0-3.34-1.49-3.34-3.34
		c0-1.84,1.49-3.34,3.34-3.34h0.17c1.84,0,3.34,1.49,3.34,3.34C537.53,142.75,536.03,144.25,534.19,144.25z M520.67,144.25
		c-1.84,0-3.42-1.49-3.42-3.34c0-1.84,1.41-3.34,3.25-3.34h0.17c1.84,0,3.34,1.49,3.34,3.34
		C524.01,142.75,522.51,144.25,520.67,144.25z M507.15,144.25c-1.84,0-3.42-1.49-3.42-3.34c0-1.84,1.41-3.34,3.25-3.34h0.17
		c1.84,0,3.34,1.49,3.34,3.34C510.49,142.75,509,144.25,507.15,144.25z M493.64,144.25h-0.17c-1.84,0-3.34-1.49-3.34-3.34
		c0-1.84,1.49-3.34,3.34-3.34h0.17c1.84,0,3.34,1.49,3.34,3.34C496.97,142.75,495.48,144.25,493.64,144.25z M480.12,144.25
		c-1.84,0-3.42-1.49-3.42-3.34c0-1.84,1.41-3.34,3.25-3.34h0.17c1.84,0,3.34,1.49,3.34,3.34
		C483.46,142.75,481.96,144.25,480.12,144.25z M466.6,144.25h-0.17c-1.84,0-3.34-1.49-3.34-3.34c0-1.84,1.49-3.34,3.34-3.34h0.17
		c1.84,0,3.34,1.49,3.34,3.34C469.94,142.75,468.45,144.25,466.6,144.25z M453.08,144.25c-1.84,0-3.42-1.49-3.42-3.34
		c0-1.84,1.41-3.34,3.25-3.34h0.17c1.84,0,3.34,1.49,3.34,3.34C456.42,142.75,454.93,144.25,453.08,144.25z M439.57,144.25
		c-1.84,0-3.42-1.49-3.42-3.34c0-1.84,1.41-3.34,3.25-3.34h0.17c1.84,0,3.34,1.49,3.34,3.34
		C442.9,142.75,441.41,144.25,439.57,144.25z M426.05,144.25h-0.17c-1.84,0-3.34-1.49-3.34-3.34c0-1.84,1.49-3.34,3.34-3.34h0.17
		c1.84,0,3.34,1.49,3.34,3.34C429.39,142.75,427.89,144.25,426.05,144.25z M412.53,144.25c-1.84,0-3.42-1.49-3.42-3.34
		c0-1.84,1.41-3.34,3.25-3.34h0.17c1.84,0,3.34,1.49,3.34,3.34C415.87,142.75,414.38,144.25,412.53,144.25z M399.02,144.25h-0.17
		c-1.84,0-3.34-1.49-3.34-3.34c0-1.84,1.49-3.34,3.34-3.34h0.17c1.84,0,3.34,1.49,3.34,3.34
		C402.35,142.75,400.86,144.25,399.02,144.25z M385.5,144.25c-1.84,0-3.42-1.49-3.42-3.34c0-1.84,1.41-3.34,3.25-3.34h0.17
		c1.84,0,3.34,1.49,3.34,3.34C388.84,142.75,387.34,144.25,385.5,144.25z M371.98,144.25c-1.84,0-3.42-1.49-3.42-3.34
		c0-1.84,1.41-3.34,3.25-3.34h0.17c1.84,0,3.34,1.49,3.34,3.34C375.32,142.75,373.82,144.25,371.98,144.25z M358.46,144.25h-0.17
		c-1.84,0-3.34-1.49-3.34-3.34c0-1.84,1.49-3.34,3.34-3.34h0.17c1.84,0,3.34,1.49,3.34,3.34
		C361.8,142.75,360.31,144.25,358.46,144.25z M344.95,144.25c-1.84,0-3.42-1.49-3.42-3.34c0-1.84,1.41-3.34,3.25-3.34h0.17
		c1.84,0,3.34,1.49,3.34,3.34C348.28,142.75,346.79,144.25,344.95,144.25z M331.43,144.25h-0.17c-1.84,0-3.34-1.49-3.34-3.34
		c0-1.84,1.49-3.34,3.34-3.34h0.17c1.84,0,3.34,1.49,3.34,3.34C334.77,142.75,333.27,144.25,331.43,144.25z M317.91,144.25h-0.17
		c-1.84,0-3.34-1.49-3.34-3.34c0-1.84,1.49-3.34,3.34-3.34h0.17c1.84,0,3.34,1.49,3.34,3.34
		C321.25,142.75,319.76,144.25,317.91,144.25z M304.4,144.25h-0.17c-1.84,0-3.34-1.49-3.34-3.34c0-1.84,1.49-3.34,3.34-3.34h0.17
		c1.84,0,3.34,1.49,3.34,3.34C307.73,142.75,306.24,144.25,304.4,144.25z M290.88,144.25h-0.17c-1.84,0-3.34-1.49-3.34-3.34
		c0-1.84,1.49-3.34,3.34-3.34h0.17c1.84,0,3.34,1.49,3.34,3.34C294.22,142.75,292.72,144.25,290.88,144.25z"/>
</g>
<g>
	<g>
		<path class="st1" d="M889.44,220.86c-0.07,0.08-0.13,0.19-0.16,0.3c-0.05,0.25,0.04,0.5,0.24,0.66l2.52,2l-0.22,3.21
			c-0.02,0.25,0.11,0.49,0.32,0.62c0.22,0.13,0.49,0.12,0.7-0.02l2.68-1.78l2.99,1.21c0.23,0.1,0.5,0.05,0.68-0.12
			c0.19-0.17,0.27-0.42,0.2-0.67l-0.86-3.11l2.07-2.47c0.17-0.19,0.2-0.46,0.1-0.69c-0.1-0.23-0.33-0.38-0.58-0.4l-0.96-0.04
			l-1.31-0.06l-0.96-0.04l-1.71-2.73c-0.13-0.21-0.38-0.33-0.63-0.31c-0.25,0.03-0.47,0.19-0.55,0.43l-1.13,3.01l-1.57,0.39
			l-1.26,0.31l-0.3,0.07C889.65,220.7,889.53,220.77,889.44,220.86z"/>
	</g>
</g>
<g>
	<g>
		<path class="st1" d="M1348.64,94.72c-0.13,0.15-0.23,0.33-0.28,0.54c-0.09,0.44,0.07,0.89,0.42,1.18l4.51,3.58l-0.4,5.75
			c-0.03,0.45,0.19,0.88,0.58,1.1c0.39,0.23,0.88,0.21,1.25-0.03l4.8-3.18l5.35,2.16c0.42,0.17,0.89,0.09,1.22-0.21
			c0.34-0.3,0.48-0.76,0.35-1.19l-1.53-5.56l3.7-4.42c0.3-0.35,0.36-0.83,0.18-1.23c-0.18-0.42-0.58-0.69-1.03-0.71l-1.71-0.07
			l-2.34-0.1l-1.71-0.07l-3.05-4.89c-0.24-0.38-0.67-0.59-1.12-0.55c-0.45,0.05-0.83,0.34-0.99,0.77l-2.02,5.39l-2.8,0.7l-2.25,0.56
			l-0.54,0.13C1349,94.43,1348.79,94.55,1348.64,94.72z"/>
	</g>
</g>
<g>
	<path class="st2" d="M1317.39,662.25"/>
</g>
<g>
</g>
<g class="st3">
	<g>
		<path class="st4" d="M1358.92,679.68c-0.09,0.06-0.17,0.13-0.23,0.22c-0.12,0.21-0.11,0.46,0.02,0.66l1.68,2.54l-1.14,2.82
			c-0.09,0.22-0.05,0.47,0.11,0.65s0.4,0.25,0.63,0.19l2.93-0.81l2.33,1.96c0.18,0.15,0.43,0.19,0.65,0.09
			c0.22-0.09,0.36-0.3,0.37-0.54l0.14-3.04l2.58-1.61c0.2-0.12,0.32-0.36,0.29-0.59c-0.02-0.24-0.18-0.44-0.4-0.52l-0.85-0.32
			l-1.15-0.44l-0.85-0.32l-0.73-2.95c-0.06-0.23-0.24-0.41-0.47-0.46c-0.23-0.05-0.47,0.03-0.62,0.22l-1.9,2.37l-1.52-0.11
			l-1.22-0.09l-0.29-0.02C1359.15,679.59,1359.03,679.62,1358.92,679.68z"/>
	</g>
</g>
<g class="st3">
	<g>
		<path class="st4" d="M1358.92,834.75c-0.09,0.06-0.17,0.13-0.23,0.22c-0.12,0.21-0.11,0.46,0.02,0.66l1.68,2.54l-1.14,2.82
			c-0.09,0.22-0.05,0.47,0.11,0.65s0.4,0.25,0.63,0.19l2.93-0.81l2.33,1.96c0.18,0.15,0.43,0.19,0.65,0.09
			c0.22-0.09,0.36-0.3,0.37-0.54l0.14-3.04l2.58-1.61c0.2-0.12,0.32-0.36,0.29-0.59c-0.02-0.24-0.18-0.44-0.4-0.52l-0.85-0.32
			l-1.15-0.44l-0.85-0.32l-0.73-2.95c-0.06-0.23-0.24-0.41-0.47-0.46c-0.23-0.05-0.47,0.03-0.62,0.22l-1.9,2.37l-1.52-0.11
			l-1.22-0.09l-0.29-0.02C1359.15,834.66,1359.03,834.69,1358.92,834.75z"/>
	</g>
</g>
<g class="st3">
	<g>
		<path class="st4" d="M1783.28,490.23c-0.09,0.06-0.17,0.13-0.23,0.22c-0.12,0.21-0.11,0.46,0.02,0.66l1.68,2.54l-1.14,2.82
			c-0.09,0.22-0.05,0.47,0.11,0.65s0.4,0.25,0.63,0.19l2.93-0.81l2.33,1.96c0.18,0.15,0.43,0.19,0.65,0.09
			c0.22-0.09,0.36-0.3,0.37-0.54l0.14-3.04l2.58-1.61c0.2-0.12,0.32-0.36,0.29-0.59c-0.02-0.24-0.18-0.44-0.4-0.52l-0.85-0.32
			l-1.15-0.44l-0.85-0.32l-0.73-2.95c-0.06-0.23-0.24-0.41-0.47-0.46c-0.23-0.05-0.47,0.03-0.62,0.22l-1.9,2.37l-1.52-0.11
			l-1.22-0.09l-0.29-0.02C1783.51,490.14,1783.39,490.17,1783.28,490.23z"/>
	</g>
</g>
<g class="st3">
	<g>
		<path class="st4" d="M1190.83,210.25c-0.09,0.06-0.17,0.13-0.23,0.22c-0.12,0.21-0.11,0.46,0.02,0.66l1.67,2.54l-1.14,2.82
			c-0.09,0.22-0.05,0.47,0.11,0.65c0.16,0.18,0.4,0.25,0.63,0.19l2.93-0.81l2.33,1.96c0.18,0.15,0.43,0.19,0.65,0.09
			c0.22-0.09,0.36-0.3,0.37-0.54l0.14-3.04l2.58-1.61c0.2-0.12,0.32-0.36,0.29-0.59c-0.02-0.24-0.18-0.44-0.4-0.52l-0.85-0.32
			l-1.15-0.44l-0.85-0.32l-0.73-2.95c-0.06-0.23-0.24-0.41-0.47-0.46c-0.23-0.05-0.47,0.03-0.62,0.22l-1.9,2.37l-1.52-0.11
			l-1.22-0.09l-0.29-0.02C1191.06,210.16,1190.94,210.19,1190.83,210.25z"/>
	</g>
</g>
<g class="st3">
	<g>
		<path class="st4" d="M945.95,334.24c-0.09,0.06-0.17,0.13-0.23,0.22c-0.12,0.21-0.11,0.46,0.02,0.66l1.67,2.54l-1.14,2.82
			c-0.09,0.22-0.05,0.47,0.11,0.65s0.4,0.25,0.63,0.19l2.93-0.81l2.33,1.96c0.18,0.15,0.43,0.19,0.65,0.09
			c0.22-0.09,0.36-0.3,0.37-0.54l0.14-3.04l2.58-1.61c0.2-0.12,0.32-0.36,0.29-0.59c-0.02-0.24-0.18-0.44-0.4-0.52l-0.85-0.32
			l-1.15-0.44l-0.85-0.32l-0.73-2.95c-0.06-0.23-0.24-0.41-0.47-0.46c-0.23-0.05-0.47,0.03-0.62,0.22l-1.9,2.37l-1.52-0.11
			l-1.22-0.09l-0.29-0.02C946.18,334.15,946.06,334.18,945.95,334.24z"/>
	</g>
</g>
<g class="st3">
	<g>
		<path class="st4" d="M1718.52,128.88c-0.09,0.06-0.17,0.13-0.23,0.22c-0.12,0.21-0.11,0.46,0.02,0.66l1.68,2.54l-1.14,2.82
			c-0.09,0.22-0.05,0.47,0.11,0.65c0.16,0.18,0.4,0.25,0.63,0.19l2.93-0.81l2.33,1.96c0.18,0.15,0.43,0.19,0.65,0.09
			c0.22-0.09,0.36-0.3,0.37-0.54l0.14-3.04l2.58-1.61c0.2-0.12,0.32-0.36,0.29-0.59c-0.02-0.24-0.18-0.44-0.4-0.52l-0.85-0.32
			l-1.15-0.44l-0.85-0.32l-0.73-2.95c-0.06-0.23-0.24-0.41-0.47-0.46c-0.23-0.05-0.47,0.03-0.62,0.22l-1.9,2.37l-1.52-0.11
			l-1.22-0.09l-0.29-0.02C1718.75,128.79,1718.62,128.82,1718.52,128.88z"/>
	</g>
</g>
<g class="st3">
	<g>
		<path class="st4" d="M987.6,674.26c-0.09,0.06-0.17,0.13-0.23,0.22c-0.12,0.21-0.11,0.46,0.02,0.66l1.67,2.54l-1.14,2.82
			c-0.09,0.22-0.05,0.47,0.11,0.65s0.4,0.25,0.63,0.19l2.93-0.81l2.33,1.96c0.18,0.15,0.43,0.19,0.65,0.09
			c0.22-0.09,0.36-0.3,0.37-0.54l0.14-3.04l2.58-1.61c0.2-0.12,0.32-0.36,0.29-0.59c-0.02-0.24-0.18-0.44-0.4-0.52l-0.85-0.32
			l-1.15-0.44l-0.85-0.32l-0.73-2.95c-0.06-0.23-0.24-0.41-0.47-0.46c-0.23-0.05-0.47,0.03-0.62,0.22l-1.9,2.37l-1.52-0.11
			l-1.22-0.09l-0.29-0.02C987.83,674.17,987.7,674.2,987.6,674.26z"/>
	</g>
</g>
<g class="st3">
	<g>
		<path class="st4" d="M1633.96,649.54c-0.09,0.06-0.17,0.13-0.23,0.22c-0.12,0.21-0.11,0.46,0.02,0.66l1.68,2.54l-1.14,2.82
			c-0.09,0.22-0.05,0.47,0.11,0.65s0.4,0.25,0.63,0.19l2.93-0.81l2.33,1.96c0.18,0.15,0.43,0.19,0.65,0.09
			c0.22-0.09,0.36-0.3,0.37-0.54l0.14-3.04l2.58-1.61c0.2-0.12,0.32-0.36,0.29-0.59c-0.02-0.24-0.18-0.44-0.4-0.52l-0.85-0.32
			l-1.15-0.44l-0.85-0.32l-0.73-2.95c-0.06-0.23-0.24-0.41-0.47-0.46c-0.23-0.05-0.47,0.03-0.62,0.22l-1.9,2.37l-1.52-0.11
			l-1.22-0.09l-0.29-0.02C1634.19,649.45,1634.07,649.48,1633.96,649.54z"/>
	</g>
</g>
<g class="st3">
	<g>
		<path class="st4" d="M1651.48,334.24c-0.09,0.06-0.17,0.13-0.23,0.22c-0.12,0.21-0.11,0.46,0.02,0.66l1.68,2.54l-1.14,2.82
			c-0.09,0.22-0.05,0.47,0.11,0.65c0.16,0.18,0.4,0.25,0.63,0.19l2.93-0.81l2.33,1.96c0.18,0.15,0.43,0.19,0.65,0.09
			c0.22-0.09,0.36-0.3,0.37-0.54l0.14-3.04l2.58-1.61c0.2-0.12,0.32-0.36,0.29-0.59c-0.02-0.24-0.18-0.44-0.4-0.52l-0.85-0.32
			l-1.15-0.44l-0.85-0.32l-0.73-2.95c-0.06-0.23-0.24-0.41-0.47-0.46c-0.23-0.05-0.47,0.03-0.62,0.22l-1.9,2.37l-1.52-0.11
			l-1.22-0.09l-0.29-0.02C1651.71,334.15,1651.58,334.18,1651.48,334.24z"/>
	</g>
</g>
<g class="st3">
	<g>
		<path class="st4" d="M996.59,968.76c-0.09,0.06-0.17,0.13-0.23,0.22c-0.12,0.21-0.11,0.46,0.02,0.66l1.67,2.54l-1.14,2.82
			c-0.09,0.22-0.05,0.47,0.11,0.65s0.4,0.25,0.63,0.19l2.93-0.81l2.33,1.96c0.18,0.15,0.43,0.19,0.65,0.09
			c0.22-0.09,0.36-0.3,0.37-0.54l0.14-3.04l2.58-1.61c0.2-0.12,0.32-0.36,0.29-0.59c-0.02-0.24-0.18-0.44-0.4-0.52l-0.85-0.32
			l-1.15-0.44l-0.85-0.32l-0.73-2.95c-0.06-0.23-0.24-0.41-0.47-0.46c-0.23-0.05-0.47,0.03-0.62,0.22l-1.9,2.37l-1.52-0.11
			l-1.22-0.09l-0.29-0.02C996.82,968.67,996.7,968.7,996.59,968.76z"/>
	</g>
</g>
<g class="st3">
	<g>
		<path class="st4" d="M1525.18,106.5c-0.09,0.06-0.17,0.13-0.23,0.22c-0.12,0.21-0.11,0.46,0.02,0.66l1.68,2.54l-1.14,2.82
			c-0.09,0.22-0.05,0.47,0.11,0.65c0.16,0.18,0.4,0.25,0.63,0.19l2.93-0.81l2.33,1.96c0.18,0.15,0.43,0.19,0.65,0.09
			c0.22-0.09,0.36-0.3,0.37-0.54l0.14-3.04l2.58-1.61c0.2-0.12,0.32-0.36,0.29-0.59c-0.02-0.24-0.18-0.44-0.4-0.52l-0.85-0.32
			l-1.15-0.44l-0.85-0.32l-0.73-2.95c-0.06-0.23-0.24-0.41-0.47-0.46c-0.23-0.05-0.47,0.03-0.62,0.22l-1.9,2.37l-1.52-0.11
			l-1.22-0.09l-0.29-0.02C1525.41,106.41,1525.29,106.44,1525.18,106.5z"/>
	</g>
</g>
<g>
	<g>
		<path class="st4" d="M1026.61,730.39c0.12,0.25,0.29,0.47,0.52,0.65c0.5,0.36,1.16,0.41,1.71,0.13l7.02-3.62l6.96,3.74
			c0.55,0.29,1.2,0.25,1.7-0.1c0.5-0.36,0.76-0.97,0.66-1.58l-1.27-7.79l5.7-5.46c0.45-0.42,0.62-1.06,0.42-1.65
			c-0.18-0.59-0.68-1.02-1.29-1.11l-7.8-1.21l-3.43-7.11c-0.27-0.56-0.83-0.92-1.44-0.92c-0.62-0.01-1.18,0.34-1.46,0.89l-1.05,2.1
			l-1.45,2.86l-1.05,2.1l-7.82,1.06c-0.61,0.09-1.12,0.51-1.32,1.09c-0.19,0.59-0.04,1.23,0.4,1.66l5.6,5.56l-0.7,3.9l-0.57,3.13
			l-0.14,0.74C1026.44,729.77,1026.49,730.1,1026.61,730.39z"/>
	</g>
</g>
<g>
	<g>
		<path class="st4" d="M1271.73,994.39c-0.14,0.13-0.27,0.29-0.34,0.49c-0.15,0.42-0.05,0.88,0.26,1.2l3.91,4.07l-1.15,5.53
			c-0.09,0.43,0.07,0.88,0.42,1.15c0.34,0.27,0.82,0.32,1.22,0.13l5.08-2.46l4.9,2.8c0.38,0.22,0.85,0.21,1.22-0.04
			c0.36-0.24,0.56-0.67,0.5-1.11l-0.76-5.59l4.17-3.8c0.33-0.3,0.46-0.76,0.34-1.17c-0.12-0.43-0.48-0.74-0.91-0.82l-1.65-0.3
			l-2.25-0.41l-1.65-0.29l-2.32-5.15c-0.18-0.4-0.58-0.66-1.01-0.68c-0.44-0.01-0.85,0.22-1.06,0.61l-2.67,4.97l-2.81,0.31
			l-2.26,0.25l-0.54,0.06C1272.12,994.15,1271.91,994.24,1271.73,994.39z"/>
	</g>
</g>
<g>
	<g>
		<path class="st4" d="M1501.14,867.23c-0.14,0.13-0.27,0.29-0.34,0.49c-0.15,0.42-0.05,0.88,0.26,1.2l3.91,4.07l-1.15,5.53
			c-0.09,0.43,0.07,0.88,0.42,1.15c0.34,0.27,0.82,0.32,1.22,0.13l5.08-2.46l4.9,2.8c0.38,0.22,0.85,0.21,1.22-0.04
			c0.36-0.24,0.56-0.67,0.5-1.11l-0.76-5.59l4.17-3.8c0.33-0.3,0.46-0.76,0.34-1.17c-0.12-0.43-0.48-0.74-0.91-0.82l-1.65-0.3
			l-2.25-0.41l-1.65-0.3l-2.32-5.15c-0.18-0.4-0.58-0.66-1.01-0.68c-0.44-0.01-0.85,0.22-1.06,0.61l-2.67,4.97l-2.81,0.31
			l-2.26,0.25l-0.54,0.06C1501.53,866.99,1501.31,867.08,1501.14,867.23z"/>
	</g>
</g>
<g>
	<g>
		<path class="st4" d="M1819.27,649.19c-0.14,0.13-0.27,0.29-0.34,0.49c-0.15,0.42-0.05,0.88,0.26,1.2l3.91,4.07l-1.15,5.53
			c-0.09,0.43,0.07,0.88,0.42,1.15c0.34,0.27,0.82,0.32,1.22,0.13l5.08-2.46l4.9,2.8c0.38,0.22,0.85,0.21,1.22-0.04
			c0.36-0.24,0.56-0.67,0.5-1.11l-0.76-5.59l4.17-3.8c0.33-0.3,0.46-0.76,0.34-1.17c-0.12-0.43-0.48-0.74-0.91-0.82l-1.65-0.3
			l-2.25-0.41l-1.65-0.3l-2.32-5.15c-0.18-0.4-0.58-0.66-1.01-0.68c-0.44-0.01-0.85,0.22-1.06,0.61l-2.67,4.97l-2.81,0.31
			l-2.26,0.25l-0.54,0.06C1819.66,648.95,1819.44,649.05,1819.27,649.19z"/>
	</g>
</g>
<g>
	<g>
		<path class="st4" d="M1214.22,16.31c-0.14,0.13-0.27,0.29-0.34,0.49c-0.15,0.42-0.05,0.88,0.26,1.2l3.91,4.07l-1.15,5.53
			c-0.09,0.43,0.07,0.88,0.42,1.15c0.34,0.27,0.82,0.32,1.22,0.13l5.08-2.46l4.9,2.8c0.38,0.22,0.85,0.21,1.22-0.04
			c0.36-0.24,0.56-0.67,0.5-1.11l-0.76-5.59l4.17-3.8c0.33-0.3,0.46-0.76,0.34-1.17c-0.12-0.43-0.48-0.74-0.91-0.82l-1.65-0.3
			l-2.25-0.41l-1.65-0.3l-2.32-5.15c-0.18-0.4-0.58-0.66-1.01-0.68c-0.44-0.01-0.85,0.22-1.06,0.61l-2.67,4.97l-2.81,0.31
			l-2.26,0.25l-0.54,0.06C1214.61,16.07,1214.4,16.17,1214.22,16.31z"/>
	</g>
</g>
<g>
	<g>
		<path class="st4" d="M798.4,88.56c-0.14,0.13-0.27,0.29-0.34,0.49c-0.15,0.42-0.05,0.88,0.26,1.2l3.91,4.07l-1.15,5.53
			c-0.09,0.43,0.07,0.88,0.42,1.15c0.34,0.27,0.82,0.32,1.22,0.13l5.08-2.46l4.9,2.8c0.38,0.22,0.85,0.21,1.22-0.04
			c0.36-0.24,0.56-0.67,0.5-1.11l-0.76-5.59l4.17-3.8c0.33-0.3,0.46-0.76,0.34-1.17c-0.12-0.43-0.48-0.74-0.91-0.82l-1.65-0.3
			l-2.25-0.41l-1.65-0.3l-2.32-5.15c-0.18-0.4-0.58-0.66-1.01-0.68c-0.44-0.01-0.85,0.22-1.06,0.61l-2.67,4.97l-2.81,0.31
			l-2.26,0.25l-0.54,0.06C798.8,88.32,798.58,88.41,798.4,88.56z"/>
	</g>
</g>
<g class="st3">
	<g>
		<path class="st4" d="M1763.18,922.6c-0.04,0.24-0.04,0.49,0.03,0.74c0.17,0.52,0.62,0.9,1.16,0.99l6.94,1.08l3.03,6.33
			c0.24,0.5,0.73,0.81,1.28,0.82s1.06-0.3,1.3-0.79l3.17-6.26l6.96-0.93c0.54-0.07,1-0.44,1.17-0.96c0.18-0.52,0.05-1.09-0.34-1.47
			l-4.97-4.96l1.26-6.91c0.11-0.54-0.12-1.09-0.55-1.41c-0.44-0.33-1.03-0.38-1.52-0.13l-1.86,0.95l-2.54,1.3l-1.86,0.95l-6.18-3.34
			c-0.48-0.26-1.07-0.22-1.52,0.09c-0.44,0.32-0.68,0.86-0.58,1.41l1.1,6.93l-2.55,2.43l-2.05,1.95l-0.49,0.46
			C1763.39,922.07,1763.25,922.33,1763.18,922.6z"/>
	</g>
</g>
<g>
	<path class="st4" d="M1786.62,175.95c-0.86,0-1.72-0.33-2.38-0.99c-1.29-1.31-1.28-3.43,0.03-4.72l0.12-0.12
		c1.31-1.29,3.42-1.28,4.72,0.03c1.29,1.31,1.28,3.43-0.03,4.72l-0.12,0.12C1788.31,175.63,1787.46,175.95,1786.62,175.95z
		 M1796.21,166.43c-0.86,0-1.72-0.33-2.38-0.99c-1.29-1.31-1.28-3.43,0.03-4.72l0.12-0.12c1.31-1.29,3.43-1.28,4.72,0.03
		s1.28,3.43-0.03,4.72l-0.12,0.12C1797.91,166.11,1797.06,166.43,1796.21,166.43z M1805.81,156.91c-0.86,0-1.72-0.33-2.38-0.99
		c-1.29-1.31-1.28-3.43,0.03-4.72l0.12-0.12c1.31-1.29,3.43-1.28,4.72,0.03c1.29,1.31,1.28,3.43-0.03,4.72l-0.12,0.12
		C1807.5,156.59,1806.66,156.91,1805.81,156.91z M1815.4,147.39c-0.86,0-1.72-0.33-2.38-0.99c-1.29-1.31-1.28-3.43,0.03-4.72
		l0.12-0.12c1.31-1.29,3.43-1.28,4.72,0.03c1.29,1.31,1.28,3.43-0.03,4.72l-0.12,0.12C1817.1,147.07,1816.25,147.39,1815.4,147.39z
		 M1825.03,137.78c-0.85,0-1.69-0.31-2.32-0.94c-1.31-1.3-1.37-3.35-0.07-4.66l0.12-0.12c1.3-1.31,3.41-1.31,4.72-0.02
		c1.31,1.3,1.32,3.41,0.02,4.72C1826.82,137.43,1825.92,137.78,1825.03,137.78z"/>
</g>
<g>
	<g>
		<path class="st5" d="M1777.14,178.82c-0.11-0.24-0.28-0.47-0.5-0.64c-0.49-0.36-1.13-0.41-1.67-0.14l-6.88,3.51l-6.79-3.69
			c-0.53-0.29-1.18-0.25-1.67,0.09s-0.75,0.95-0.65,1.54l1.21,7.63l-5.6,5.32c-0.44,0.41-0.61,1.04-0.42,1.61
			c0.17,0.57,0.66,1,1.26,1.09l7.63,1.22l3.33,6.97c0.26,0.55,0.81,0.9,1.4,0.9c0.61,0.01,1.16-0.33,1.44-0.86l1.04-2.05l1.43-2.79
			l1.04-2.05l7.66-1c0.6-0.08,1.1-0.49,1.3-1.06c0.19-0.57,0.05-1.21-0.39-1.63l-5.45-5.46l0.7-3.81l0.57-3.06l0.14-0.73
			C1777.3,179.43,1777.26,179.11,1777.14,178.82z"/>
	</g>
</g>
<g>
	<path class="st4" d="M1070.74,61.4c-1.6,0-3.01-1.15-3.29-2.78l-0.03-0.16c-0.3-1.82,0.92-3.54,2.74-3.85
		c1.82-0.31,3.54,0.92,3.85,2.74l0.03,0.16c0.3,1.82-0.92,3.54-2.74,3.85C1071.11,61.38,1070.92,61.4,1070.74,61.4z M1068.56,48.06
		c-1.6,0-3.01-1.15-3.29-2.78l-0.03-0.16c-0.3-1.82,0.92-3.54,2.74-3.85c1.83-0.31,3.54,0.92,3.85,2.74l0.03,0.16
		c0.3,1.82-0.92,3.54-2.74,3.85C1068.93,48.04,1068.74,48.06,1068.56,48.06z M1066.33,34.64c-1.6,0-2.99-1.1-3.25-2.74l-0.03-0.16
		c-0.29-1.82,0.95-3.53,2.78-3.82c1.81-0.28,3.53,0.95,3.82,2.77c0.29,1.82-0.94,3.61-2.76,3.9
		C1066.7,34.62,1066.51,34.64,1066.33,34.64z M1064.19,21.38c-1.6,0-3.01-1.15-3.29-2.78l-0.03-0.16c-0.3-1.82,0.92-3.54,2.74-3.85
		c1.83-0.31,3.54,0.92,3.85,2.74l0.03,0.16c0.3,1.82-0.92,3.54-2.74,3.85C1064.56,21.36,1064.37,21.38,1064.19,21.38z M1062.01,8.04
		c-1.6,0-3.01-1.15-3.29-2.78l-0.03-0.16c-0.3-1.82,0.92-3.54,2.74-3.85c1.83-0.31,3.54,0.92,3.85,2.74l0.03,0.16
		c0.3,1.82-0.92,3.54-2.74,3.85C1062.38,8.02,1062.19,8.04,1062.01,8.04z"/>
</g>
<g>
	<g>
		<path class="st5" d="M1070.3,69.38c-0.26-0.05-0.54-0.04-0.81,0.04c-0.57,0.19-0.99,0.69-1.08,1.28l-1.14,7.64l-6.94,3.39
			c-0.54,0.27-0.89,0.81-0.89,1.41c0,0.6,0.34,1.16,0.88,1.43l6.91,3.44l1.08,7.65c0.08,0.6,0.49,1.1,1.07,1.28
			c0.57,0.19,1.2,0.04,1.62-0.39l5.42-5.51l7.61,1.33c0.6,0.11,1.2-0.14,1.55-0.62c0.36-0.49,0.4-1.14,0.13-1.67l-1.06-2.03
			l-1.45-2.78l-1.06-2.03l3.63-6.82c0.28-0.53,0.24-1.18-0.11-1.67c-0.36-0.48-0.95-0.74-1.55-0.63l-7.61,1.27l-2.7-2.78l-2.16-2.24
			l-0.51-0.53C1070.89,69.61,1070.6,69.45,1070.3,69.38z"/>
	</g>
</g>
<g>
	<path class="st4" d="M1721.45,1034.44c-1.26,0-2.47-0.72-3.03-1.94l-0.07-0.15c-0.77-1.67-0.04-3.66,1.63-4.43
		c1.68-0.77,3.66-0.04,4.43,1.63l0.07,0.15c0.77,1.67,0.04,3.66-1.63,4.43C1722.4,1034.34,1721.92,1034.44,1721.45,1034.44z
		 M1715.71,1022.2c-1.25,0-2.45-0.71-3.02-1.91l-0.07-0.15c-0.79-1.67-0.08-3.66,1.59-4.44c1.67-0.79,3.66-0.08,4.44,1.59l0.07,0.15
		c0.79,1.67,0.08,3.66-1.59,4.44C1716.68,1022.1,1716.19,1022.2,1715.71,1022.2z M1709.88,1009.9c-1.22,0-2.38-0.67-2.94-1.86
		l-0.07-0.15c-0.78-1.67-0.06-3.66,1.61-4.44c1.66-0.78,3.66-0.06,4.44,1.61c0.78,1.67,0.09,3.73-1.57,4.51
		C1710.87,1009.79,1710.37,1009.9,1709.88,1009.9z M1704.14,997.67c-1.21,0-2.36-0.66-2.93-1.84l-0.07-0.15
		c-0.8-1.66-0.09-3.66,1.57-4.45c1.66-0.79,3.66-0.09,4.45,1.57c0.8,1.66,0.13,3.73-1.54,4.53
		C1705.15,997.55,1704.64,997.67,1704.14,997.67z M1698.49,985.49c-1.25,0-2.45-0.71-3.02-1.91l-0.07-0.15
		c-0.79-1.67-0.08-3.66,1.59-4.44c1.67-0.79,3.66-0.08,4.44,1.59l0.07,0.15c0.79,1.67,0.08,3.66-1.59,4.44
		C1699.45,985.39,1698.96,985.49,1698.49,985.49z"/>
</g>
<g>
	<g>
		<path class="st5" d="M1724.12,1042.11c-0.27,0.03-0.53,0.11-0.77,0.26c-0.5,0.34-0.76,0.93-0.69,1.53l0.99,7.66l-5.75,5.16
			c-0.45,0.41-0.63,1.02-0.47,1.6c0.16,0.58,0.64,1.02,1.23,1.13l7.59,1.42l3.13,7.07c0.24,0.55,0.77,0.92,1.38,0.94
			c0.6,0.03,1.17-0.29,1.45-0.82l3.71-6.78l7.68-0.79c0.61-0.06,1.12-0.46,1.32-1.02c0.22-0.57,0.08-1.2-0.33-1.64l-1.58-1.67
			l-2.15-2.28l-1.58-1.67l1.63-7.55c0.12-0.59-0.09-1.2-0.56-1.58c-0.48-0.37-1.12-0.45-1.67-0.18l-6.98,3.3l-3.35-1.94l-2.69-1.56
			l-0.64-0.37C1724.74,1042.17,1724.43,1042.09,1724.12,1042.11z"/>
	</g>
</g>
<g>
	<path class="st4" d="M816.83,1045.22c-0.77,0-1.54-0.26-2.15-0.79c-1.39-1.21-1.59-3.25-0.38-4.64l0.11-0.13
		c1.21-1.39,3.32-1.54,4.71-0.33c1.39,1.21,1.54,3.32,0.33,4.71C818.77,1044.82,817.8,1045.22,816.83,1045.22z M825.66,1035.09
		c-0.77,0-1.54-0.26-2.17-0.81c-1.4-1.2-1.56-3.31-0.36-4.71l0.11-0.13c1.2-1.4,3.31-1.56,4.71-0.36c1.4,1.2,1.56,3.31,0.36,4.71
		l-0.11,0.13C827.53,1034.69,826.59,1035.09,825.66,1035.09z M834.51,1024.77c-0.77,0-1.54-0.26-2.15-0.79
		c-1.39-1.21-1.59-3.26-0.38-4.65l0.11-0.13c1.21-1.39,3.32-1.54,4.71-0.33c1.39,1.21,1.54,3.32,0.33,4.71
		C836.45,1024.36,835.48,1024.77,834.51,1024.77z M843.33,1014.63c-0.77,0-1.54-0.26-2.17-0.81c-1.4-1.2-1.56-3.31-0.36-4.71
		l0.11-0.13c1.2-1.4,3.31-1.56,4.71-0.36c1.4,1.2,1.56,3.31,0.36,4.71l-0.11,0.13C845.21,1014.24,844.27,1014.63,843.33,1014.63z
		 M852.17,1004.41c-0.77,0-1.54-0.26-2.17-0.81c-1.4-1.2-1.56-3.31-0.36-4.71l0.11-0.13c1.2-1.4,3.31-1.56,4.71-0.36
		c1.4,1.2,1.56,3.31,0.36,4.71l-0.11,0.13C854.05,1004.01,853.11,1004.41,852.17,1004.41z"/>
</g>
<g>
	<g>
		<path class="st5" d="M807.85,1048.9c-0.13-0.23-0.31-0.44-0.55-0.6c-0.51-0.32-1.16-0.32-1.68-0.01l-6.59,4.03l-7.05-3.16
			c-0.55-0.24-1.19-0.16-1.65,0.22c-0.46,0.38-0.67,1-0.53,1.59l1.79,7.51l-5.18,5.73c-0.41,0.45-0.53,1.08-0.3,1.64
			c0.22,0.56,0.74,0.95,1.34,0.99l7.7,0.63l3.85,6.69c0.3,0.53,0.88,0.84,1.47,0.79c0.61-0.03,1.13-0.42,1.37-0.97l0.88-2.12
			l1.21-2.89l0.88-2.12l7.56-1.59c0.59-0.13,1.06-0.58,1.21-1.15c0.14-0.59-0.05-1.21-0.51-1.6l-5.85-5.03l0.41-3.85l0.33-3.1
			l0.08-0.74C808.05,1049.49,807.99,1049.17,807.85,1048.9z"/>
	</g>
</g>
</svg>
