<?xml version="1.0" encoding="utf-8"?>
<!-- Generator: Adobe Illustrator 23.1.0, SVG Export Plug-In . SVG Version: 6.00 Build 0)  -->
<svg version="1.1" id="Layer_1" xmlns="http://www.w3.org/2000/svg" xmlns:xlink="http://www.w3.org/1999/xlink" x="0px" y="0px"
	 viewBox="0 0 1133.86 1133.86" style="enable-background:new 0 0 1133.86 1133.86;" xml:space="preserve">
<style type="text/css">
	.st0{fill:#FFFFFF;}
	.st1{fill:#EF445C;}
	.st2{fill:#2E353B;}
	.st3{fill:#F9AF9F;}
	.st4{fill:#010101;}
	.st5{fill:#353638;}
	.st6{fill:#FCEE23;}
	.st7{fill:none;stroke:#FCEE23;stroke-width:3;stroke-miterlimit:10;}
</style>
<g>
	<g>
		<path class="st0" d="M950.54,748.65c0.19,5.88,20.89,216.68,20.89,216.68l84.58,44.33l-230.58,2.98l104.22-47.27l-27.86-210.52
			L950.54,748.65z"/>
	</g>
	<g>
		<path class="st0" d="M1001.1,638.66c0,0,0.09-0.04,0.26-0.13h-38.83l-3.86,61.54h52.09L1001.1,638.66z"/>
	</g>
	<g>
		<path class="st1" d="M1018.6,706.22c-7.8-5.94-7.8-5.94-7.8-5.94l-0.03-0.21h-52.09l-0.78,12.45l-140.87,17.53l-4.93,33.81
			c0.73,1.19,170.91,0.93,170.91,0.93s32.84-6.1,42.48-23.71C1035.12,723.49,1026.4,712.16,1018.6,706.22z"/>
	</g>
	<g>
		<path class="st1" d="M1040.26,560.72c3.38-61.2,6.05-121.46-12.57-122.98c-18.63-1.52-28.05,27.44-28.05,27.44l-34.01,124.05
			l-3.09,49.31h38.83C1004.58,636.89,1037.04,618.88,1040.26,560.72z"/>
	</g>
	<g>
		<path class="st2" d="M999.78,555.82c-0.14,0-0.29-0.03-0.42-0.11c-0.43-0.23-0.58-0.76-0.35-1.19
			c6.04-11.07,14.99-20.26,25.89-26.58c0.42-0.24,0.96-0.1,1.2,0.32c0.24,0.42,0.1,0.96-0.32,1.2
			c-10.63,6.16-19.35,15.12-25.23,25.91C1000.39,555.65,1000.09,555.82,999.78,555.82z"/>
	</g>
	<g>
		<path class="st2" d="M1015.24,501.29C1015.23,501.29,1015.23,501.29,1015.24,501.29c-0.49,0-0.88-0.4-0.88-0.88
			c0.09-10.14-1.44-20.18-4.54-29.84c-0.15-0.46,0.1-0.95,0.57-1.1c0.46-0.15,0.95,0.11,1.1,0.57c3.16,9.84,4.72,20.06,4.63,30.39
			C1016.11,500.9,1015.72,501.29,1015.24,501.29z"/>
	</g>
	<g>
		<path class="st2" d="M980.07,731.78c-0.38,0-0.73-0.25-0.84-0.64c-0.13-0.47,0.14-0.95,0.6-1.08c7.06-2.02,13.46-6.67,17.58-12.75
			c0.27-0.4,0.82-0.5,1.22-0.23c0.4,0.27,0.51,0.82,0.23,1.22c-4.34,6.41-11.1,11.31-18.55,13.45
			C980.23,731.77,980.15,731.78,980.07,731.78z"/>
	</g>
</g>
<g>
	<polygon class="st1" points="265.77,433.99 488.08,502.84 480.02,557.17 259.77,492.85 	"/>
</g>
<g>
	<polygon class="st3" points="943.74,359.14 953.36,362.94 956.82,342.52 	"/>
</g>
<g>
	<g>
		<polygon class="st3" points="179.98,239.92 192.28,303 207.04,327.74 226.99,314.16 214.28,251.89 		"/>
	</g>
	<g>
		<path class="st3" d="M185.25,204.37c2.28-0.03,30.85-6.19,34.1,25.92c0.96,9.5-2.45,25.56-13.73,26.91s-22.81-8.81-25.63-17.27
			c-2.82-8.46-6.79-18.43-3.31-24.9S185.25,204.37,185.25,204.37z"/>
	</g>
	<g>
		<path class="st4" d="M204.96,206.82c0,0,11.8-3.08,17.08-7.77c6.81-6.05,11.85-14.59,7.18-19.95c-2.84-3.26-14.29-7.28-27.87,2.07
			c-8.01,5.52-9.68,17.44-9.68,17.44s-6.12,1.14-12.5,7.68c-5.96,6.11-3.32,14.77-3.32,14.77l6.46,6.04c0,0-3.21-9.57,3.87-16.25
			C194.15,203.33,204.96,206.82,204.96,206.82z"/>
	</g>
	<g>
		
			<ellipse transform="matrix(0.7763 -0.6303 0.6303 0.7763 -103.4819 162.7243)" class="st3" cx="177.54" cy="227.17" rx="8.01" ry="9.26"/>
	</g>
	<g>
		<path class="st0" d="M191.19,223.71c0,0-1.03-9.39,4.43-9.59c5.08-0.19,7.54,7.68,7.54,7.68L191.19,223.71z"/>
	</g>
	<g>
		<path class="st0" d="M211.81,220.13c0,0-1.7-6.02,0.15-6.48c2.72-0.68,4.9,5.81,4.9,5.81L211.81,220.13z"/>
	</g>
	<g>
		<path class="st0" d="M197.88,236.2c8.52-1.11,21.62-3.79,21.62-3.79s0.5,1.94-0.22,6.33c-0.73,4.39-1.52,6.13-1.52,6.13
			s-5.66,1.69-11.22-0.81C199.88,241.09,197.88,236.2,197.88,236.2z"/>
	</g>
	<g>
		<path class="st2" d="M179.27,231.77c-0.22,0-0.44-0.08-0.61-0.25l-6.13-6.02c-0.35-0.34-0.35-0.89-0.01-1.24
			c0.34-0.35,0.89-0.35,1.24-0.01l6.13,6.02c0.35,0.34,0.35,0.89,0.01,1.24C179.72,231.69,179.5,231.77,179.27,231.77z"/>
	</g>
	<g>
		<path class="st2" d="M206.85,227.92c-0.39,0-0.75-0.26-0.85-0.66c-0.12-0.47,0.17-0.95,0.64-1.06c0.95-0.24,2.11-0.42,3.23-0.6
			c0.65-0.1,1.31-0.21,1.93-0.32l-4.67-8.02c-0.24-0.42-0.1-0.95,0.32-1.2c0.42-0.24,0.95-0.1,1.2,0.32l5.87,10.07l-1.13,0.29
			c-0.95,0.24-2.11,0.42-3.23,0.6c-1.08,0.17-2.2,0.35-3.07,0.57C207,227.91,206.92,227.92,206.85,227.92z"/>
	</g>
	<g>
		<path class="st2" d="M202.42,258.08c-3.04,0-6.16-0.89-8.98-2.72c-0.41-0.26-0.52-0.81-0.26-1.21c0.26-0.41,0.81-0.52,1.21-0.26
			c6.2,4.02,13.97,2.97,18.47-2.51c0.31-0.37,0.86-0.43,1.23-0.12c0.37,0.31,0.43,0.86,0.12,1.23
			C211.2,256.16,206.89,258.08,202.42,258.08z"/>
	</g>
	<g>
		<ellipse class="st5" cx="197.42" cy="222.37" rx="1.68" ry="3.46"/>
	</g>
	<g>
		<ellipse class="st5" cx="215.23" cy="220.13" rx="1.68" ry="3.46"/>
	</g>
	<g>
		
			<ellipse transform="matrix(0.9718 -0.2358 0.2358 0.9718 -49.0474 52.266)" class="st1" cx="194.03" cy="231.23" rx="7.33" ry="3.34"/>
	</g>
</g>
<g>
	<g>
		<polygon class="st3" points="997.78,364.34 991.06,442.54 958.12,436.99 967.49,380.99 		"/>
	</g>
	<g>
		<path class="st3" d="M950.71,356.11c-4.91,18.59-5.13,33.89,8.79,37.56c13.92,3.68,36.72-5.66,41.63-24.24
			c4.91-18.59-2.39-36.64-16.32-40.32c-8.57-2.26-17.66,1.45-24.52,8.98C956.02,342.79,952.6,348.97,950.71,356.11z"/>
	</g>
	<g>
		<path class="st0" d="M974.05,358.81c-0.12-0.87,4.11-8.84-2.19-11.55c-6.3-2.71-10.93,4.69-10.93,4.69s5.01,1.66,6.55,2.45
			C969.25,355.32,974.05,358.81,974.05,358.81z"/>
	</g>
	<g>
		
			<ellipse transform="matrix(0.5189 -0.8548 0.8548 0.5189 153.1959 1008.0941)" class="st1" cx="972.24" cy="367.94" rx="4.82" ry="6.71"/>
	</g>
	<g>
		
			<ellipse transform="matrix(0.6564 -0.7544 0.7544 0.6564 66.9119 851.9158)" class="st2" cx="968.65" cy="352.51" rx="3.01" ry="1.9"/>
	</g>
	<g>
		
			<ellipse transform="matrix(0.8461 -0.533 0.533 0.8461 -40.9967 584.1825)" class="st3" cx="991.24" cy="363.09" rx="9.68" ry="7.47"/>
	</g>
	<g>
		<path class="st0" d="M964.03,372.09l-16.49-4.45l0.13,6.96c0,0,2.63,7.52,9.89,3.64C961.55,376.1,964.03,372.09,964.03,372.09z"/>
	</g>
	<g>
		<g>
			<path class="st4" d="M1005.64,358.02c0.78-6.97-1.03-22.19-12.08-27.86c-8.22-4.22-16.82-1.56-16.82-1.56s2.94,14.17,6.46,23.86
				c5.92,16.27,14.29,25.23,14.29,25.23S1004.48,368.35,1005.64,358.02z"/>
		</g>
		<g>
			<path class="st4" d="M991.86,329.38c-4.89-1.05-10.45-3-17.7-1.1c-9.92,2.6-13.87,9.81-13.87,9.81l25.77,11.77L991.86,329.38z"/>
		</g>
		<g>
			<path class="st4" d="M991.77,338.86c0,0,18.92-33.51,40.92-16.73c22,16.78,4.66,107.79,4.66,107.79l-34.46-2.36
				c0,0,13.37-70.24,7.37-73.61c-6-3.37-16.29-3.91-16.29-3.91L991.77,338.86z"/>
		</g>
	</g>
	<g>
		<path class="st2" d="M984.63,368.36c-0.26,0-0.51-0.11-0.69-0.33c-0.3-0.38-0.24-0.93,0.14-1.23c3.05-2.44,6.29-4.71,9.62-6.75
			c0.41-0.25,0.95-0.12,1.21,0.29c0.25,0.41,0.12,0.95-0.29,1.21c-3.27,2-6.45,4.23-9.44,6.63
			C985.02,368.3,984.82,368.36,984.63,368.36z"/>
	</g>
	<g>
		<path class="st2" d="M974.95,360.74c-0.26,0-0.52-0.12-0.69-0.34c-0.93-1.2-9.86-5.84-16-7.48c-0.47-0.13-0.74-0.61-0.62-1.07
			c0.13-0.47,0.61-0.74,1.07-0.62c6.11,1.64,15.59,6.37,16.94,8.1c0.3,0.38,0.23,0.93-0.16,1.23
			C975.33,360.68,975.14,360.74,974.95,360.74z"/>
	</g>
	<g>
		<path class="st2" d="M965.52,395.78c-0.44,0-0.82-0.33-0.87-0.79c-0.05-0.48,0.3-0.91,0.78-0.96c5.36-0.56,10.66-2.27,15.34-4.95
			c0.42-0.24,0.96-0.1,1.2,0.32c0.24,0.42,0.1,0.96-0.32,1.2c-4.89,2.8-10.43,4.59-16.03,5.17
			C965.58,395.78,965.55,395.78,965.52,395.78z"/>
	</g>
</g>
<g>
	<polygon class="st4" points="892.79,933.43 909.9,971.48 811.24,1013.74 858.93,953.94 	"/>
</g>
<g>
	<polygon class="st6" points="339.25,439.2 331.61,566.04 491.97,574.11 500.08,447.31 	"/>
</g>
<g>
	<g>
		<polygon class="st3" points="719.2,936.63 715.82,983.6 763.82,973.28 773.64,904.14 		"/>
	</g>
	<g>
		<path class="st6" d="M792.75,692.29c-2.51-5.22-6.24-9.92-10.55-13.84c-1.4-1.27-2.92-2.42-4.54-3.37l-8.81,2.11
			c-20.06,6.85-33.98,25.17-35.2,46.34l-14.6,213.5c0.34-2.6,57.72-3.03,57.72-3.03l9.74-89.07l11.53-97.84
			C798.05,747.09,803.73,715.18,792.75,692.29z"/>
	</g>
	<g>
		<polygon class="st4" points="765.38,962.65 761.29,1011.73 628.73,1013.74 715.82,971.79 		"/>
	</g>
</g>
<g>
	<path class="st1" d="M599.65,506.07l7.88-2.32c2.02-1.47,4.84-1.13,6.45,0.78l65.24,123.83l135.44,0.08c4.36,0,7.71,3.86,7.1,8.18
		l-0.74,5.8l-154.01,0.25l-68.2-129.65C597.02,510.89,597.41,507.7,599.65,506.07z"/>
</g>
<g>
	<path class="st6" d="M677.02,466.48c-1.83-13.74-13.71-16.52-23.23-17.09l-2.61-13.88c3.18,0.47,3.85,3.26,3.97,4.9l0-0.11
		l14.77-0.51c-0.2-5.9-4.07-17.45-17.21-18.98c-1.48-0.17-2.93-0.28-4.35-0.33l-1.57-8.38l-12.78,2.4l1.4,7.46
		c-4.63,1.39-8.44,3.69-11.13,6.85c-3.25,3.82-7.19,10.27-4.05,21.35c3.23,11.4,14.24,13.43,23.07,13.79l2.76,14.7
		c-3.9-0.24-6.32-1.66-6.68-4.06c0.02,0.16,0.02,0.24,0.02,0.24l-14.74,1.07c0.05,0.75,0.71,7.51,6.76,12.51
		c4.06,3.36,9.37,5.05,15.82,5.05c0.52,0,1.06-0.02,1.59-0.04l1.71,9.13l12.78-2.4l-1.67-8.9c4.83-1.49,8.58-3.72,11.05-6.89
		C677.67,477.98,677.51,470.19,677.02,466.48z M634.79,446.25c-1.83-3.16-0.93-5.9,0.74-7.85c0.6-0.7,1.5-1.29,2.63-1.77l2.3,12.25
		C636.89,448.4,635.51,447.49,634.79,446.25z M660.44,474.97c-0.27,0.27-0.74,0.72-1.63,1.23l-2.21-11.76
		c3.81,0.53,4.4,1.59,5.17,3.38C663.06,470.79,662.02,473.4,660.44,474.97z"/>
</g>
<g>
	<path class="st6" d="M827.69,393.9c10.5-20.02-2.68-34.91-14.83-44.64l9.61-20.93c3.78,3.62,2.06,7.96,0.67,10.25l0.1-0.16
		l20.15,13.23c5.28-8.04,11.03-27.07-5.03-41.48c-1.81-1.62-3.64-3.13-5.48-4.53l5.8-12.63l-19.27-8.84l-5.17,11.26
		c-7.46-2.51-14.72-3.04-21.28-1.37c-7.93,2.02-19.25,6.89-25.51,24.6c-6.44,18.22,6.3,31.28,17.73,40.09l-10.17,22.17
		c-4.97-3.99-6.85-8.16-5.07-11.7c-0.12,0.23-0.2,0.35-0.2,0.35l-20.64-12.46c-0.64,1.05-6.13,10.66-2.78,23.03
		c2.24,8.3,7.72,15.55,16.3,21.63c0.7,0.49,1.42,0.97,2.16,1.45l-6.32,13.77l19.27,8.84l6.16-13.42c7.84,2.56,14.93,3.13,21.2,1.23
		C817.74,409.82,824.86,399.31,827.69,393.9z M790.55,327.18c0.54-5.94,4.33-8.73,8.38-9.76c1.45-0.37,3.21-0.31,5.17,0.12
		l-8.48,18.48C791.32,332.03,790.33,329.53,790.55,327.18z M797.64,389.58c-0.61,0.1-1.66,0.26-3.32,0.1l8.14-17.73
		c4.58,4.29,4.35,6.26,3.69,9.37C805.05,386.49,801.23,388.98,797.64,389.58z"/>
</g>
<g>
	<path class="st6" d="M677.71,259.47c-7.39-27.5-32.31-30.01-51.86-28.63l-9-27.57c6.6,0.12,8.71,5.61,9.38,8.92l-0.04-0.23
		l29.95-4.98c-1.99-11.96-12.92-34.47-40.1-34.08c-3.06,0.04-6.04,0.21-8.94,0.49l-5.43-16.64l-25.39,8.28l4.84,14.83
		c-9.05,4.05-16.22,9.76-20.85,16.92c-5.61,8.65-11.92,22.82-2.58,44.56c9.61,22.36,32.56,23.56,50.66,21.94l9.53,29.2
		c-8.01,0.55-13.31-1.7-14.69-6.49c0.09,0.31,0.11,0.49,0.11,0.49l-29.74,6.1c0.31,1.52,3.44,15.1,17.1,23.69
		c9.17,5.76,20.43,7.8,33.57,6.08c1.06-0.14,2.15-0.31,3.23-0.5l5.92,18.14l25.39-8.28L653,314.03c9.44-4.32,16.49-9.86,20.67-16.98
		C682.1,282.7,679.71,266.89,677.71,259.47z M586.33,229.48c-4.57-5.96-3.46-11.77-0.59-16.19c1.03-1.58,2.71-3.03,4.89-4.31
		l7.94,24.34C591.19,233.31,588.14,231.83,586.33,229.48z M646.21,281.15c-0.47,0.61-1.32,1.66-2.99,2.93l-7.62-23.36
		c7.9,0.06,9.37,2.07,11.42,5.52C650.43,271.96,649.02,277.53,646.21,281.15z"/>
</g>
<g>
	<g>
		<path class="st4" d="M888.43,387.63l-11.97,134.65c-1.63,18.33,24.34,38.63,39.65,28.42l5.41-39.62l0.23-125.89L888.43,387.63z"/>
	</g>
	<g>
		<path class="st3" d="M889.62,388.47c0,0-1.64-42.44,2.62-44.44c6.8-3.19,4.46,16.44,4.65,15.83c0.19-0.61,3.92-18.84,11.76-17.34
			c3.86,0.74,0.24,18.94,0.24,18.94s13.51-38.17,19.89-38.07c4.45,0.07-10.76,40.94-10.76,40.94s7.55-14.42,11.32-12.27
			c3.87,2.21-7.58,35.15-7.58,35.15L889.62,388.47z"/>
	</g>
	<g>
		<path class="st2" d="M903.71,377.27c-0.09,0-0.18-0.01-0.27-0.02c-0.61-0.09-1.05-0.47-1.33-0.75c-1.95-1.95-2.23-4.87-2.25-7.46
			c0-0.48,0.39-0.88,0.87-0.88c0,0,0,0,0.01,0c0.48,0,0.87,0.39,0.88,0.87c0.01,2.24,0.23,4.72,1.74,6.23
			c0.22,0.22,0.33,0.26,0.35,0.26c0.05,0.01,0.17-0.03,0.33-0.14c0.64-0.48,0.89-1.47,1.09-2.44c0.83-3.98,1.56-8.03,2.16-12.04
			c0.07-0.48,0.51-0.81,1-0.74c0.48,0.07,0.81,0.52,0.74,1c-0.6,4.04-1.33,8.13-2.17,12.14c-0.27,1.3-0.63,2.64-1.75,3.48
			C904.65,377.1,904.17,377.27,903.71,377.27z"/>
	</g>
	<g>
		<path class="st2" d="M914.68,376c-0.05,0-0.1,0-0.16-0.01c-0.48-0.09-0.79-0.54-0.71-1.02c0.69-3.8,1.8-7.53,3.29-11.08
			c0.19-0.45,0.7-0.66,1.15-0.47c0.45,0.19,0.66,0.7,0.47,1.15c-1.44,3.44-2.51,7.05-3.18,10.72
			C915.46,375.71,915.09,376,914.68,376z"/>
	</g>
	<g>
		<path class="st2" d="M894.64,375.04c-0.09,0-0.17-0.01-0.26-0.04c-0.46-0.14-0.72-0.63-0.58-1.09c1.27-4.16,1.74-8.64,1.35-12.97
			c-0.04-0.48,0.31-0.91,0.8-0.95c0.48-0.04,0.91,0.31,0.95,0.8c0.4,4.55-0.09,9.27-1.42,13.64
			C895.36,374.79,895.01,375.04,894.64,375.04z"/>
	</g>
</g>
<g>
	<g>
		<polygon class="st3" points="835.21,919.98 864.5,961.92 893.49,936.62 868.58,871.38 		"/>
	</g>
	<g>
		<path class="st6" d="M788.59,844.93l47.96,78.17l46.47-24.41l-63.63-154.01l138.73-17.31c0,0,14.67-3,22.14-14.83
			c8.43-13.35,5.23-50.7,4.37-64.3c-0.86-13.6-3.49-46.51-3.49-46.51l-69.09,1.29l2.5,39.73l-143.63,34.42
			c-20.06,6.85-38.92,25.47-35.2,46.34C741.54,756.11,788.59,844.93,788.59,844.93z"/>
	</g>
	<g>
		<path class="st4" d="M958.71,432.26l-50.07,53.36l3.41,117.41l69.09-1.29c0,0-0.98-35.26,3.49-54.5
			c4.48-19.24,21.8-58.61,18.03-80.7c-3.78-22.08-10.02-42.39-10.02-42.39L958.71,432.26z"/>
	</g>
	<g>
		<path class="st2" d="M912.97,644.53c-0.32,0-0.63-0.18-0.79-0.49c-0.22-0.43-0.04-0.96,0.4-1.17c7.56-3.75,15.62-6.31,23.96-7.6
			c0.47-0.07,0.93,0.25,1,0.73c0.07,0.48-0.25,0.93-0.73,1c-8.16,1.26-16.05,3.76-23.45,7.43
			C913.24,644.5,913.11,644.53,912.97,644.53z"/>
	</g>
	<g>
		<path class="st2" d="M791.27,847.44c-0.28-0.02-0.55-0.18-0.7-0.44c-13.05-23.16-25.13-47.22-35.91-71.52
			c-0.2-0.44,0-0.96,0.45-1.16c0.44-0.2,0.96,0,1.16,0.45c10.76,24.25,22.82,48.26,35.84,71.37c0.24,0.42,0.09,0.96-0.33,1.19
			C791.61,847.42,791.44,847.45,791.27,847.44z"/>
	</g>
	<g>
		<path class="st2" d="M817.94,743.72c-0.33,0-0.65-0.19-0.8-0.52l-7.86-17.4c-0.2-0.44,0-0.96,0.44-1.16c0.44-0.2,0.96,0,1.16,0.44
			l7.86,17.4c0.2,0.44,0,0.96-0.44,1.16C818.19,743.7,818.06,743.72,817.94,743.72z"/>
	</g>
</g>
<g>
	<g>
		<path class="st3" d="M783.81,559.96c0,0-31.28,10.66-45.41,21.98c-14.74,11.8-44.42,43-36.51,42.83
			c5.59-0.12,24.1-15.24,24.1-15.24s-4.96,10.68,1.83,10.34c5.02-0.25,13.45-9.21,13.45-9.21s-3.42,9.41,1.58,10.29
			c8.85,1.56,11.13-5.51,20.5-10.98c7.16-4.18-5.61-6.88-5.61-6.88l9.45-1.98l32.94-9.2L783.81,559.96z"/>
	</g>
	<g>
		<path class="st4" d="M921.2,480.92l-1.07,68.7c0,0-36,17.86-64.07,26.31c-28.06,8.45-65.3,18.76-65.3,18.76l-8.73-35.23
			c0,0,49.17-23.78,68.01-34.49C892.42,500.89,921.2,480.92,921.2,480.92z"/>
	</g>
	<g>
		<path class="st2" d="M723.93,611.51c-0.27,0-0.55-0.13-0.72-0.37c-0.28-0.4-0.19-0.94,0.21-1.22l12.97-9.17
			c0.4-0.28,0.94-0.19,1.22,0.21c0.28,0.4,0.19,0.94-0.21,1.22l-12.97,9.17C724.28,611.46,724.11,611.51,723.93,611.51z"/>
	</g>
	<g>
		<path class="st2" d="M739.66,613.79c-0.25,0-0.5-0.11-0.67-0.31c-0.31-0.37-0.27-0.92,0.1-1.23l10.28-8.68
			c0.37-0.31,0.92-0.27,1.23,0.1c0.31,0.37,0.27,0.92-0.1,1.23l-10.28,8.68C740.06,613.72,739.86,613.79,739.66,613.79z"/>
	</g>
</g>
<g>
	<g>
		<path class="st3" d="M535.63,504.22c-0.88-10.08-79.13-7.82-78.84,2.36c0.22,7.55,39.5,9.55,39.5,9.55s-32.6,1.47-29.71,9.59
			c1.79,5.03,23.69,7.27,23.69,7.27s-20.63,3.92-18.1,9.78c3.77,8.73,22.61,1.67,22.05,3.09c-0.56,1.41-1.41,16.22-1.41,16.22
			s24.24-11.42,24.78-20.23c0.21-3.4-6.76-5.63-6.76-5.63s15.35-2.99,15.24-10.9c-0.08-6.41-10.3-7.41-10.3-7.41
			S536.26,511.4,535.63,504.22z"/>
	</g>
	<g>
		<path class="st2" d="M492.13,546.62c-0.39,0-0.74-0.26-0.85-0.65c-0.12-0.47,0.15-0.95,0.62-1.07c3.51-0.94,7.03-2.02,10.47-3.21
			c0.46-0.16,0.96,0.08,1.12,0.54c0.16,0.46-0.08,0.96-0.54,1.12c-3.48,1.21-7.04,2.3-10.59,3.25
			C492.28,546.61,492.2,546.62,492.13,546.62z"/>
	</g>
	<g>
		<path class="st2" d="M501.51,534.01c-0.04,0-0.07,0-0.11-0.01c-3.35-0.42-6.75-0.55-10.12-0.39c-0.49,0.03-0.89-0.35-0.92-0.83
			c-0.02-0.48,0.35-0.89,0.83-0.92c3.47-0.17,6.97-0.03,10.42,0.4c0.48,0.06,0.82,0.5,0.76,0.98
			C502.32,533.69,501.94,534.01,501.51,534.01z"/>
	</g>
	<g>
		<path class="st2" d="M512.18,518.13c-0.02,0-0.03,0-0.05,0l-13.44-0.69c-0.48-0.02-0.86-0.44-0.83-0.92
			c0.02-0.48,0.43-0.86,0.92-0.83l13.44,0.69c0.48,0.02,0.86,0.44,0.83,0.92C513.03,517.76,512.64,518.13,512.18,518.13z"/>
	</g>
</g>
<g>
	<polygon class="st0" points="885.57,1014.14 909.9,1014.14 876.73,658.42 829.58,658.42 	"/>
</g>
<g>
	<polygon class="st0" points="914.55,664.3 390.7,664.3 394.61,642.35 914.55,642.35 	"/>
</g>
<g>
	<g>
		<polygon class="st0" points="61.07,670.86 126.56,698.11 212.68,685.12 209.08,649.06 		"/>
	</g>
	<g>
		<path class="st2" d="M81.84,681.57c-0.43,0-0.81-0.32-0.87-0.77c-0.06-0.48,0.28-0.92,0.76-0.98l128.52-16.42
			c0.48-0.06,0.92,0.28,0.98,0.76c0.06,0.48-0.28,0.92-0.76,0.98L81.95,681.57C81.91,681.57,81.88,681.57,81.84,681.57z"/>
	</g>
	<g>
		<path class="st4" d="M214.07,685.62l-84.26,13.36l22.04,90.85c6.31,27.43,45.91,54.39,90.83,48.22l7.09-1.22L214.07,685.62z"/>
	</g>
</g>
<g>
	<g>
		<path class="st4" d="M184.8,522.31l43.21,243.88l-71.33,10.65c0,37.92,49.27,73,94.65,63.92l21.87-4.38l27.19,147.85l89.17-19.4
			l-81.27-458.18L184.8,522.31z"/>
	</g>
	<g>
		<path class="st1" d="M257.31,270.23c-35.4,1.68-30.32,43.93-30.32,43.93L192.28,303c0,0-23.51-35.9-50.61-27.4
			c-23.7,7.43-27.03,35.64-21.48,76.43c2.5,18.33,8.23,55.1,20.49,108.56c4.26,18.56,13.04,39.94,31.49,58.52
			c13.74,13.83,47.11,12.45,65.67,5.51l74.11-18.73c0,0-7.06-121.47-10.91-149.11C294.84,312.1,284.69,268.93,257.31,270.23z"/>
	</g>
	<g>
		<polygon class="st0" points="300.39,984.24 303.53,1010.62 447.36,1010.64 389.56,964.84 		"/>
	</g>
	<g>
		<path class="st2" d="M211.46,480.23c-0.39,0-0.74-0.26-0.85-0.65c-11.31-42.24-21.81-85.32-31.19-128.03
			c-0.1-0.47,0.19-0.94,0.67-1.04c0.47-0.11,0.94,0.19,1.04,0.67c9.38,42.68,19.87,85.73,31.18,127.95
			c0.13,0.47-0.15,0.95-0.62,1.07C211.61,480.22,211.53,480.23,211.46,480.23z"/>
	</g>
	<g>
		<path class="st2" d="M276.27,456.54c-0.42,0-0.79-0.3-0.86-0.72l-21-119.21c-0.08-0.48,0.23-0.93,0.71-1.02
			c0.48-0.08,0.93,0.23,1.02,0.71l21,119.21c0.08,0.48-0.23,0.93-0.71,1.02C276.37,456.54,276.32,456.54,276.27,456.54z"/>
	</g>
	<g>
		<path class="st2" d="M228.18,340.86c-0.44,0-0.83-0.34-0.87-0.79c-1.18-11.85-1.21-23.87-0.08-35.73
			c0.05-0.48,0.47-0.83,0.96-0.79c0.48,0.05,0.84,0.47,0.79,0.96c-1.11,11.74-1.09,23.65,0.08,35.39c0.05,0.48-0.3,0.91-0.79,0.96
			C228.24,340.86,228.21,340.86,228.18,340.86z"/>
	</g>
	<g>
		<path class="st2" d="M208.02,330.97c-0.34,0-0.67-0.2-0.81-0.54c-3.57-8.68-8.15-16.95-13.62-24.57c-1.04-1.45-2.18-2.92-3.72-3.5
			c-0.45-0.17-0.68-0.68-0.51-1.13c0.17-0.45,0.68-0.68,1.13-0.51c1.99,0.75,3.33,2.45,4.52,4.12c5.54,7.74,10.19,16.12,13.82,24.93
			c0.18,0.45-0.03,0.96-0.48,1.14C208.25,330.95,208.13,330.97,208.02,330.97z"/>
	</g>
	<g>
		<path class="st2" d="M433.39,1000.45C433.39,1000.45,433.39,1000.45,433.39,1000.45l-131.22-0.31c-0.48,0-0.88-0.39-0.87-0.88
			c0-0.48,0.39-0.87,0.88-0.87c0,0,0,0,0,0l131.22,0.31c0.48,0,0.88,0.39,0.87,0.88C434.27,1000.06,433.88,1000.45,433.39,1000.45z"
			/>
	</g>
	<g>
		<path class="st4" d="M321.22,712.07l-170.69,73.3c20.24,47.14,74.86,68.94,122,48.69S341.46,759.2,321.22,712.07z"/>
	</g>
</g>
<g>
	<g>
		<g>
			<path class="st3" d="M311.45,536.79c0,0,80.23,20.26,82.1,8.78c1.16-7.13-44.65-20.69-43.56-19.2c1.08,1.49,51,10.16,52.76-2.17
				c1.62-11.36-47-9.41-47-9.41s49.78-2.63,49.93-14.42c0.1-8.03-61.42-6.04-61.42-6.04s31.39-19.16,26.3-27.12
				c-8.25-12.9-57.8,20.25-57.8,20.25L311.45,536.79z"/>
		</g>
		<g>
			<path class="st1" d="M218.71,535.08l95.21,6.15l-1.64-56.77l-79.84-11.34c-23.88-3.39-83.04-2.22-67.47,36.9
				C169.52,521.45,198.02,535.5,218.71,535.08z"/>
		</g>
	</g>
	<g>
		<path class="st2" d="M312.93,484.99c-0.03,0-0.07,0-0.1-0.01c-34.86-3.95-55.04-6.54-89.39-13.16c-0.48-0.09-0.79-0.55-0.69-1.03
			c0.09-0.48,0.55-0.79,1.03-0.69c34.29,6.6,54.45,9.19,89.26,13.14c0.48,0.05,0.83,0.49,0.77,0.97
			C313.74,484.66,313.37,484.99,312.93,484.99z"/>
	</g>
</g>
<g>
	<polygon class="st0" points="427.56,1014.14 403.23,1014.14 436.4,658.42 483.55,658.42 	"/>
</g>
<g>
	<circle class="st7" cx="147.64" cy="949.66" r="48.72"/>
	<polygon class="st6" points="147.64,919.12 157.12,938.33 178.32,941.41 162.98,956.37 166.6,977.49 147.64,967.52 128.67,977.49 
		132.29,956.37 116.95,941.41 138.15,938.33 	"/>
</g>
</svg>
