<?xml version="1.0" encoding="utf-8"?>
<!-- Generator: Adobe Illustrator 23.1.0, SVG Export Plug-In . SVG Version: 6.00 Build 0)  -->
<svg version="1.1" id="Layer_1" xmlns="http://www.w3.org/2000/svg" xmlns:xlink="http://www.w3.org/1999/xlink" x="0px" y="0px"
	 viewBox="0 0 1133.86 1133.86" style="enable-background:new 0 0 1133.86 1133.86;" xml:space="preserve">
<style type="text/css">
	.st0{fill:none;stroke:#FCEE23;stroke-width:3;stroke-miterlimit:10;}
	.st1{fill:#FCEE23;}
	.st2{fill:#F9AF9F;}
	.st3{fill:#2E353B;}
	.st4{fill:#EF445C;}
	.st5{fill:#FFFFFF;}
	.st6{fill:#FFF200;}
	.st7{fill:#10393D;}
</style>
<g>
	<circle class="st0" cx="147.64" cy="949.66" r="48.72"/>
	<polygon class="st1" points="147.64,919.12 157.12,938.33 178.32,941.41 162.98,956.37 166.6,977.49 147.64,967.52 128.67,977.49 
		132.29,956.37 116.95,941.41 138.15,938.33 	"/>
</g>
<g>
	<path d="M444.13,342.94c0,0,31.69-37.1-30.93-41.12c-56.63-3.63-50.61,100.25-96.7,99.34s-93.92,14.82-73.59,45.42
		s92.37,47.68,95.72,46.97s74.07-41.52,88.29-64.94C438.23,409.97,444.13,342.94,444.13,342.94z"/>
</g>
<g>
	<g>
		<path class="st2" d="M886.09,387.9c0,0,46.4-11.54,47.75-8.05c2.76,7.13-17.83,13.37-17.18,13.58s41.13,9.44,40.25,14.89
			c-0.63,3.89-44.57,5.63-44.57,5.63l-24.31-0.74L886.09,387.9z"/>
	</g>
	<g>
		<g>
			<path class="st3" d="M922.29,405.9c4.89,1.08,9.78,2.16,14.66,3.24c0.79,0.17,1.62-0.24,1.84-1.04c0.21-0.75-0.25-1.66-1.04-1.84
				c-4.89-1.08-9.78-2.16-14.66-3.24c-0.79-0.17-1.62,0.24-1.84,1.04C921.04,404.81,921.49,405.72,922.29,405.9L922.29,405.9z"/>
		</g>
	</g>
	<g>
		<path class="st4" d="M565.88,426.14c0.16-0.03,321.43-45.14,321.43-45.14l4.33,45.95l-336.7,59.2L565.88,426.14z"/>
	</g>
</g>
<g>
	<g>
		<path class="st2" d="M463.41,503.73c0,0,9.85-2.61,21.12-6.69c12.96-4.68,20.39-7.28,24.1-7.19c6.93,0.17-14.23,16.42-14.23,16.42
			s41.56-12.13,42.79-6.87c1.21,5.19-41.07,17.24-41.07,17.24s40.66-8.88,41.77-4.22c1.11,4.71-42.05,13.55-42.05,13.55
			s34.05-0.59,33.92,2.27c-0.36,7.71-62.95,6.21-62.95,6.21L463.41,503.73z"/>
	</g>
	<g>
		<polygon class="st2" points="373.64,511.62 471.83,501.28 470.91,534.53 359.58,550.69 		"/>
	</g>
</g>
<g>
	<g>
		<path class="st2" d="M678.57,317.31c0.08,20.65-17.02,42.95-30.49,43.01c-13.47,0.05-24.46-16.64-24.54-37.29
			c-0.08-20.65,10.77-37.43,24.24-37.48S678.49,296.66,678.57,317.31z"/>
	</g>
	<g>
		<path class="st2" d="M636.23,330.7c-1.2,0.66-46.42,59.61-46.44,59.63c-0.01,0.02,30.59,23.86,30.59,23.86l39.97-59.98
			L636.23,330.7z"/>
	</g>
	<g>
		<polygon class="st2" points="676.62,307.87 684.99,326.72 672.59,327.57 		"/>
	</g>
	<g>
		<path class="st5" d="M675.86,333.55l-20.99,1.33c0,0,0.89,5.55,6.04,9.13c4.88,3.39,9.16,2.4,9.16,2.4L675.86,333.55z"/>
	</g>
	<g>
		<path d="M623.59,333.42c0,0,8.9-6.18,13.99-11.65c5.45-5.86,11.65-14.01,11.65-14.01s12.87-1.16,24.2-10.82
			c17.58-14.99,23.42-42.2,13.45-47.84c-18.66-10.55-35.1,32.26-35.1,32.26s-13.77,0.29-24.47,14.62
			C616.33,310.67,623.59,333.42,623.59,333.42z"/>
	</g>
	<g>
		
			<ellipse transform="matrix(1 -3.983054e-03 3.983054e-03 1 -1.25 2.5236)" class="st2" cx="632.96" cy="315.08" rx="8.41" ry="11.85"/>
	</g>
	<g>
		<path class="st5" d="M664.1,322.61c0,0,0.13-11.3-2.93-13.55c-2.34-1.73-6.75-2.16-10.14,4.07c-2.7,4.96-1.81,10.64-1.81,10.64
			L664.1,322.61z"/>
	</g>
	<g>
		<path d="M658.17,323.34c0.36-0.91,0.58-2.08,0.57-3.36c-0.01-2.92-1.17-5.29-2.59-5.28c-1.42,0.01-2.56,2.38-2.55,5.3
			c0.01,1.27,0.23,2.42,0.59,3.33C655.52,323.33,656.85,323.33,658.17,323.34z"/>
	</g>
	<g>
		<path class="st5" d="M652.64,315.73c0.12,0.22,4.19,4.18,4.19,4.18l-5.29,1.79L652.64,315.73z"/>
	</g>
	<g>
		<g>
			<path d="M629.89,312.88c1.3,2.69,3.17,5.13,5.42,7.11c0.47,0.41,1.23,0.5,1.69,0c0.41-0.45,0.5-1.25,0-1.69
				c-2.21-1.93-3.76-3.97-5.05-6.62c-0.27-0.56-1.12-0.76-1.64-0.43C629.74,311.61,629.6,312.27,629.89,312.88L629.89,312.88z"/>
		</g>
	</g>
	<g>
		<g>
			<path d="M658.59,354.82c-4.52,1.92-9.85,2.04-14.65,1.45c-0.64-0.08-1.2,0.61-1.2,1.2c0,0.71,0.55,1.12,1.2,1.2
				c5.28,0.64,10.92,0.32,15.86-1.78c0.59-0.25,0.73-1.13,0.43-1.64C659.87,354.63,659.19,354.56,658.59,354.82L658.59,354.82z"/>
		</g>
	</g>
	<g>
		<circle cx="365.96" cy="909.24" r="90.33"/>
	</g>
	<g>
		<circle class="st6" cx="366.41" cy="909.24" r="60.8"/>
	</g>
	<g>
		<polygon class="st5" points="428.8,673.49 315.46,814.39 409.22,881.16 460.53,705.21 		"/>
	</g>
	<g>
		<path class="st5" d="M245.33,861.18l36.05-219.41l29.86,11.2c-0.84,0.56-2.34,0.78-4.63,2.21c10.1-3.22,20.91-5.01,32.15-5.01
			c55.91,0,101.24,44.23,101.24,89.58c0,45.35-45.33,107.88-101.24,107.88c-34.92,0-52.35,26.78-52.35,26.78L245.33,861.18z"/>
	</g>
	<g>
		<circle cx="816.96" cy="909.47" r="90.33"/>
	</g>
	<g>
		<circle cx="366.41" cy="909.24" r="16.05"/>
	</g>
	<g>
		<circle class="st6" cx="816.96" cy="909.47" r="61.03"/>
	</g>
	<g>
		<path class="st5" d="M242.53,851.72l213.76-171.25l47.95,118.21c16.46,36.99,50.19,62.38,90.68,62.51
			c35.91,0.12,70.17,1.37,92.18-8.24c24.11-10.53,52.95-47.4,52.95-47.4l-0.3,24.3l-23.27,72.96c0,0-248.49-0.13-251.29,0
			c-2.22,0.11-155.11-2.34-217.75-3.35c-13.74-0.22-23.96-12.79-21.37-26.28l0,0C227.87,863.83,233.97,855.88,242.53,851.72z"/>
	</g>
	<g>
		<path class="st5" d="M729.81,531.92c60.81,54.9,87.46,81.11,82.56,95.11c-4.9,14-23.77-8.17-13.97,31.02
			c4.59,18.35,38.58,131.08,38.58,131.08l86.14,59.31c0,0-184.76-39.82-183.06-42.89c37.59-67.78,22.88-90.02,7.48-136.83
			c-18.67-56.75-58.5-74.89-60.42-90.61C683.62,549.42,729.81,531.92,729.81,531.92z"/>
	</g>
	<g>
		<path d="M482.67,693.83c-8.41,9.5-20.72,14.61-33.39,13.96c-25.29-1.3-59.37-6.48-93.44-16.02
			c-40.37-11.31-77.25-21.68-96.64-30.89c-9.85-4.68-15.54-17.16-13.42-29.4l0,0c2.15-12.41,11.67-20.81,22.31-19.67
			c52.44,5.64,199.62,22.83,226.39,40.99C515.34,666.97,486.83,689.13,482.67,693.83z"/>
	</g>
	<g>
		<ellipse transform="matrix(0.9901 -0.14 0.14 0.9901 -115.2615 122.1991)" cx="810.69" cy="880.12" rx="16.05" ry="50.42"/>
	</g>
	<g>
		<path class="st5" d="M941.32,906.6c5.25-1.5,4.26-40.31-43.03-84.2s-81.79-64.8-99.7-62.46c-11.58,1.51-30.83,0.44-58.52,45.61
			c-27.7,45.17-29.25,97.02-23.57,97.26c17.31,0.74,66.78-21.46,100.49-21.64C849.38,880.99,910.17,915.52,941.32,906.6z"/>
	</g>
	<g>
		<path class="st6" d="M794.32,632.71c-0.6,14.22,2.24,35.45,8.4,35.71c6.16,0.26,11.5-15.06,12.1-29.28
			c0.6-14.22-4.17-29.6-10.33-29.86C798.32,609.03,794.92,618.49,794.32,632.71z"/>
	</g>
	<g>
		<path class="st5" d="M775.51,592.76c1.95,2.61,5.62,5.89,6.89,4.94s0.11-4.52-1.84-7.13c-1.95-2.61-5.15-4.55-6.42-3.59
			S773.56,590.16,775.51,592.76z"/>
	</g>
	<g>
		<path d="M594.93,861.19l-2.43,14.84l75.94,26.76l-159.83,0.03c0,0,18.52-45.69,19.89-49.97c1.07-3.37,5.77-12.93,5.77-12.93
			L594.93,861.19z"/>
	</g>
	<g>
		<path d="M442.43,552.72c0,0,80.67,20.92,151.1,54.29c22.64,10.72,63.38,24.51,74.91,37.23c16.11,17.76,3.5,37.97-3.82,57.08
			c-24.07,62.9-69.7,159.88-69.7,159.88l-70.83,3.1l60.43-169.33l-131.59-36.8c-34.06-9.33-32.91-55.2-24.59-74.67L442.43,552.72z"
			/>
	</g>
	<g>
		<polygon class="st4" points="625.17,435.62 633.54,418.74 594.84,367.6 570.85,402.71 		"/>
	</g>
	<g>
		<path class="st4" d="M628.16,434.52c0,0-1.54,12.94-9.94,51.19c-8.4,38.26-72.06,101.02-72.06,101.02l-108.03-28.02
			c0,0,77.45-168.72,135.3-168.66C598.86,390.09,628.16,434.52,628.16,434.52z"/>
	</g>
	<g>
		<path class="st4" d="M575.63,395.72c56.3,8.28,67.09,47.53,23.29,62.78l-37.92,29.17c0,0,78.08-2.67,105.66,11.08
			c6.3,1.74,25.08,14.49,25.08,14.49l-15.87,32.81c0,0-76.69,9.77-108.48,4.69c-42.41-6.78-67.13-1.26-80.69-22.15
			c-26.19-40.35,6.56-61.47,48.03-105.66C550.68,405.91,553.32,392.45,575.63,395.72z"/>
	</g>
	<g>
		<path class="st5" d="M413.27,855.18c-0.11,0-0.23-0.02-0.35-0.05c-0.63-0.19-0.99-0.86-0.8-1.49l17.51-57.77
			c0.19-0.63,0.86-0.99,1.49-0.8c0.63,0.19,0.99,0.86,0.8,1.49l-17.51,57.77C414.26,854.85,413.78,855.18,413.27,855.18z"/>
	</g>
	<g>
		<path class="st2" d="M690.28,516.67l26.22,9.78c0,0,18.82,6.82,21.08,12.51c4.09,10.28-12.56,44.13-17.25,40.75
			c-6.86-4.96,0-23.43,0-23.43l-44.47-14.52L690.28,516.67z"/>
	</g>
	<g>
		<ellipse cx="712.15" cy="556.15" rx="11.04" ry="12.45"/>
	</g>
</g>
<g>
	<g>
		<g>
			<g>
				<g>
					<g>
						<path d="M464.14,568.51c8.15-20.64,19.77-125.45,37.46-157.1l-5.49-3.07c-18.6,33.26-35.83,154.18-38.78,157.19L464.14,568.51
							z"/>
					</g>
				</g>
			</g>
		</g>
	</g>
	<g>
		<g>
			<g>
				<g>
					<g>
						<path class="st6" d="M533.81,382.63c6.35,5.31-4.45,18.82-16.43,28.76c-7.59,6.3-18.53,13.09-25.23,10.13
							c-7.9-3.49-11.89-14.81-12.23-27.07c-0.26-9.26-1.41-29.59,6.32-30.48c5.95-0.69,12.14,20.67,12.14,20.67
							s10.87-23.94,17.25-21.4c6.58,2.61-2.2,28.24-2.2,28.24S529.55,379.06,533.81,382.63z"/>
					</g>
				</g>
			</g>
		</g>
	</g>
	<g>
		<g>
			<g>
				<g>
					<g>
						<path d="M469.74,572.49c3.27-23.01-10.41-132.55-0.09-169.09l-6.34-1.79c-10.84,38.4,1.05,165.72-1.23,169.5L469.74,572.49z"
							/>
					</g>
				</g>
			</g>
		</g>
	</g>
	<g>
		<g>
			<g>
				<g>
					<g>
						<path class="st6" d="M495.43,366.24c7.76,3.86,0.05,20.25-9.73,33.28c-6.2,8.26-15.68,17.84-23.23,16.46
							c-8.89-1.63-15.71-12.19-19.04-24.59c-2.52-9.36-8.64-29.79-0.98-32.58c5.89-2.15,17.39,18.09,17.39,18.09
							s5.24-27.02,12.36-26c7.34,1.06,4.64,29.3,4.64,29.3S490.23,363.65,495.43,366.24z"/>
					</g>
				</g>
			</g>
		</g>
	</g>
	<g>
		<g>
			<g>
				<g>
					<g>
						<path d="M468.13,582.85c-0.92-21.7-32.18-120.05-28.93-155.39l-6.13-0.56c-3.42,37.14,29.23,152.13,27.78,155.99
							L468.13,582.85z"/>
					</g>
				</g>
			</g>
		</g>
	</g>
	<g>
		<g>
			<g>
				<g>
					<g>
						<path class="st6" d="M456.57,388.92c7.79,2.23,3.5,18.6-3.26,32.25c-4.28,8.65-11.37,19.07-18.54,19.09
							c-8.45,0.02-16.52-8.52-21.7-19.35c-3.91-8.18-13.02-25.9-6.46-29.77c5.05-2.98,19.07,13.66,19.07,13.66s0.2-25.73,6.92-26
							c6.93-0.28,9.26,26.13,9.26,26.13S451.34,387.43,456.57,388.92z"/>
					</g>
				</g>
			</g>
		</g>
	</g>
	<g>
		<path class="st5" d="M412.47,467.33c2.05,0.62,33.02,13.43,33.02,13.43l20.27-26.87l13.32,27.56l30.56-19.01l-39.66,86.37
			l18.82,40.26l-16.04-4.99l-12.63,19.78l-7.83-17L433,602.73l11.31-48.06L412.47,467.33z"/>
	</g>
</g>
<g>
	<g>
		<path class="st2" d="M360.67,844.54l-13.5,33.96c0,0,0.61,12.43,17.67,14.16c9.21,0.93,24.25-8.04,24.25-8.04l21.69-43.59
			L360.67,844.54z"/>
	</g>
	<g>
		<path d="M287.18,558.53c0,0,69.84,18.11,130.82,47c19.6,9.28,54.87,21.22,64.85,32.23c13.94,15.38,3.03,32.87-3.3,49.42
			c-20.84,54.46-82.33,181.1-82.33,181.1l-44.01-8.15l56.99-178.45l-113.93-31.86c-29.49-8.08-28.5-47.79-21.29-64.65L287.18,558.53
			z"/>
	</g>
	<g>
		<path class="st4" d="M407.38,405.08l-3.95,59.17l-28.26-64.4c0,0-51.66-10.68-71.1,65.11c-4.83,18.82-41.27,79.66,12.09,86.17
			c59.01,7.2,65.56,7.39,65.56,7.39l33.7-66.27L407.38,405.08z"/>
	</g>
	<g>
		<path class="st4" d="M323.84,487.6c-0.19,1.22-41.46,75.64-41.46,75.64l91,24.01l23.92-82.4L323.84,487.6z"/>
	</g>
	<g>
		<polygon class="st2" points="400.72,340.18 375.17,399.85 405.03,473.63 407.38,405.08 417.38,365.88 		"/>
	</g>
	<g>
		<path class="st2" d="M444.72,354.02c-7.52,16.07-16.3,27.23-27.93,22.33s-21.7-24-14.18-40.07c7.52-16.07,23.04-25.13,34.67-20.23
			c7.16,3.02,11.18,10.62,11.45,19.78C448.89,341.53,447.61,347.84,444.72,354.02z"/>
	</g>
	<g>
		<polygon class="st2" points="445.58,360.09 438.92,357.51 448.33,340.9 		"/>
	</g>
	<g>
		<path class="st5" d="M427.25,343.31c0.59-0.56,2.36-8.61,8.24-7.14c5.88,1.47,4.7,9.32,4.7,9.32s-4.38-1.52-5.89-1.78
			C432.56,343.39,427.25,343.31,427.25,343.31z"/>
	</g>
	<g>
		
			<ellipse transform="matrix(0.9767 -0.2146 0.2146 0.9767 -65.5209 100.5611)" class="st4" cx="430.39" cy="352.05" rx="6.08" ry="4.3"/>
	</g>
	<g>
		<ellipse transform="matrix(0.0357 -0.9994 0.9994 0.0357 77.6252 763.8204)" cx="434.61" cy="341.69" rx="2.71" ry="1.71"/>
	</g>
	<g>
		<path d="M406.2,325.6c3.54-5.45,13.66-15.45,24.5-13.55c8.06,1.41,12.37,8,12.37,8s-10.28,8.63-18.34,13.7
			c-13.53,8.52-25.5,10.66-25.5,10.66S400.96,333.67,406.2,325.6z"/>
	</g>
	<g>
		
			<ellipse transform="matrix(0.9779 -0.2089 0.2089 0.9779 -61.3123 93.7449)" class="st2" cx="413.05" cy="337.07" rx="6.81" ry="8.58"/>
	</g>
	<g>
		<path d="M432.31,312.41c3.94,1.89,8.86,3.51,12.69,8.81c5.24,7.26,3.71,14.6,3.71,14.6l-15.19-11.7L432.31,312.41z"/>
	</g>
	<g>
		<g>
			<path d="M440.84,344.39c-2.53-1.13-5.13-1.89-7.9-2.14c-2.72-0.25-5.45,0.03-8.15,0.42c-0.8,0.11-1.24,1.13-1.04,1.84
				c0.24,0.86,1.04,1.16,1.84,1.04c2.37-0.34,4.78-0.53,7.17-0.33c2.19,0.18,4.49,0.82,6.58,1.75c0.74,0.33,1.61,0.21,2.04-0.54
				C441.74,345.8,441.58,344.72,440.84,344.39L440.84,344.39z"/>
		</g>
	</g>
	<g>
		<path class="st5" d="M425.19,360.09l15.98,1.78l-4.12,5.72c0,0-5.21,5.16-8.69,1.52C424.87,365.46,425.19,360.09,425.19,360.09z"
			/>
	</g>
	<g>
		<g>
			<path d="M439.89,331.63c-2.61-1.89-6.27-1.84-9.02-0.3c-0.68,0.38-0.97,1.38-0.54,2.04c0.45,0.69,1.31,0.94,2.04,0.54
				c0.14-0.08,0.28-0.15,0.42-0.22c0.06-0.03,0.15-0.09,0.21-0.1c-0.1,0.01-0.2,0.08-0.03,0.02c0.29-0.11,0.59-0.2,0.89-0.28
				c0.15-0.04,0.3-0.06,0.46-0.09c0.21-0.04,0.01-0.04-0.05,0c0.04-0.03,0.18-0.02,0.23-0.03c0.33-0.03,0.65-0.04,0.98-0.03
				c0.15,0.01,0.3,0.02,0.46,0.03c0.22,0.01-0.27-0.05-0.06-0.01c0.07,0.01,0.15,0.02,0.22,0.04c0.3,0.06,0.59,0.13,0.88,0.23
				c0.07,0.02,0.14,0.05,0.21,0.07c0.04,0.01,0.27,0.1,0.08,0.03c-0.19-0.07,0.04,0.02,0.08,0.04c0.07,0.03,0.13,0.07,0.2,0.1
				c0.28,0.15,0.55,0.32,0.81,0.5c0.64,0.46,1.69,0.13,2.04-0.54C440.84,332.9,440.57,332.12,439.89,331.63L439.89,331.63z"/>
		</g>
	</g>
	<g>
		<g>
			<path d="M411.09,334.65c0.33,2.42,0.66,4.84,0.99,7.26c0.05,0.34,0.4,0.73,0.69,0.89c0.32,0.19,0.79,0.27,1.15,0.15
				c0.85-0.28,1.16-1,1.04-1.84c-0.33-2.42-0.66-4.84-0.99-7.26c-0.05-0.34-0.4-0.73-0.69-0.89c-0.32-0.19-0.79-0.27-1.15-0.15
				C411.28,333.08,410.98,333.81,411.09,334.65L411.09,334.65z"/>
		</g>
	</g>
	<g>
		<g>
			<path d="M417.19,374.91c-3.11-0.53-5.39-2.25-7.06-4.77c-1.87-2.81-2.88-5.72-4.06-8.84c-0.29-0.75-1.01-1.27-1.84-1.04
				c-0.72,0.2-1.33,1.08-1.04,1.84c1.92,5.08,3.89,10.88,8.69,13.97c1.36,0.88,2.93,1.45,4.52,1.72c0.79,0.14,1.61-0.21,1.84-1.04
				C418.43,376.03,417.99,375.04,417.19,374.91L417.19,374.91z"/>
		</g>
	</g>
	<g>
		<path class="st7" d="M413.44,553.05c-0.19,0-0.38-0.05-0.56-0.14c-2.16-1.15-4.25-2.46-6.22-3.9c-0.53-0.39-0.65-1.14-0.26-1.67
			c0.39-0.53,1.14-0.65,1.67-0.26c1.88,1.38,3.87,2.63,5.93,3.72c0.58,0.31,0.8,1.03,0.5,1.62
			C414.28,552.82,413.87,553.05,413.44,553.05z"/>
	</g>
	<g>
		<path d="M347.17,878.5l-11.91,27.64c0,0,18.83,5.83,47.35,13.15c27.4,7.02,64.18,14.5,64.18,14.5l-57.7-49.17
			c0,0-4.36,2.13-21.34,1.94C351.38,886.38,347.17,878.5,347.17,878.5z"/>
	</g>
</g>
<g>
	<g>
		<path class="st2" d="M438.04,549.48c0,0,10.15,0.82,22.14,0.75c13.78-0.09,21.65-0.06,25.11,1.27c6.48,2.47-18.9,10.73-18.9,10.73
			s43.23,2.44,42.63,7.8c-0.59,5.3-44.47,2.54-44.47,2.54s41.29,5.2,40.78,9.97c-0.52,4.81-44.16-1.27-44.16-1.27
			s32.3,10.81,31.21,13.47c-2.92,7.15-61.41-15.16-61.41-15.16L438.04,549.48z"/>
	</g>
	<g>
		<polygon class="st2" points="350.78,526.94 446.79,549.98 434.82,581.01 324.48,559.08 		"/>
	</g>
</g>
</svg>
