<?xml version="1.0" encoding="utf-8"?>
<!-- Generator: Adobe Illustrator 23.1.0, SVG Export Plug-In . SVG Version: 6.00 Build 0)  -->
<svg version="1.1" id="Layer_1" xmlns="http://www.w3.org/2000/svg" xmlns:xlink="http://www.w3.org/1999/xlink" x="0px" y="0px"
	 viewBox="0 0 1133.86 1133.86" style="enable-background:new 0 0 1133.86 1133.86;" xml:space="preserve">
<style type="text/css">
	.st0{fill:none;stroke:#FCEE23;stroke-width:3;stroke-miterlimit:10;}
	.st1{fill:#FCEE23;}
	.st2{opacity:0.44;}
	.st3{fill:#DDDDDD;}
	.st4{fill:#606161;}
	.st5{opacity:0.53;}
	.st6{fill:#FFFFFF;}
	.st7{opacity:0.5;}
	.st8{fill:#EF445C;}
	.st9{fill:#FFF200;}
	.st10{fill:#F9AF9F;}
	.st11{fill:#2E353B;}
	.st12{fill:#F1ECE1;}
	.st13{fill:none;stroke:#000000;stroke-width:0.25;stroke-miterlimit:10;}
	.st14{fill:#020202;}
	.st15{fill:#FFCE07;}
	.st16{fill:#FDB83F;}
	.st17{fill:#FAA31C;}
</style>
<g>
	<circle class="st0" cx="147.64" cy="949.66" r="48.72"/>
	<polygon class="st1" points="147.64,919.12 157.12,938.33 178.32,941.41 162.98,956.37 166.6,977.49 147.64,967.52 128.67,977.49 
		132.29,956.37 116.95,941.41 138.15,938.33 	"/>
</g>
<g class="st2">
	<g>
		<g>
			<path id="XMLID_4_" class="st3" d="M742.36,856.82l-33.29-6H434.8l-33.29,6c-1.02,0.18-1.77,1.08-1.77,2.14v6.71
				c0,0.88,0.7,1.59,1.57,1.59h341.25c0.87,0,1.57-0.71,1.57-1.59v-6.71C744.13,857.91,743.38,857.01,742.36,856.82z"/>
			<polygon id="XMLID_3_" class="st3" points="455.94,739.58 688.95,739.58 709.07,850.82 434.8,850.82 			"/>
		</g>
	</g>
	<path class="st3" d="M954.27,754.58H179.59c-11.81,0-21.39-9.58-21.39-21.39V251.15c0-11.81,9.58-21.39,21.39-21.39h774.69
		c11.81,0,21.39,9.58,21.39,21.39v482.04C975.66,745.01,966.08,754.58,954.27,754.58z"/>
	<path class="st4" d="M933.66,732.09H200.2c-11.81,0-21.39-9.58-21.39-21.39V273.64c0-11.81,9.58-21.39,21.39-21.39h733.46
		c11.81,0,21.39,9.58,21.39,21.39v437.07C955.05,722.52,945.47,732.09,933.66,732.09z"/>
</g>
<g class="st5">
	<g>
		<rect x="631.83" y="300.06" class="st6" width="92.62" height="431.93"/>
		<rect x="502.48" y="431.81" class="st6" width="92.62" height="300.18"/>
		<rect x="763.03" y="393.64" class="st6" width="92.62" height="338.35"/>
		<rect x="373.14" y="380.34" class="st6" width="92.62" height="351.65"/>
		<rect x="243.8" y="484.6" class="st6" width="92.62" height="247.39"/>
	</g>
</g>
<g class="st7">
	<rect x="243.8" y="492.17" class="st6" width="92.62" height="239.82"/>
	<rect x="373.14" y="461.38" class="st6" width="92.62" height="270.61"/>
	<rect x="502.48" y="500.99" class="st6" width="92.62" height="231"/>
	<rect x="631.83" y="393.64" class="st6" width="92.62" height="338.35"/>
	<rect x="763.03" y="489.4" class="st6" width="92.62" height="242.59"/>
</g>
<polygon class="st8" points="923.66,285.95 849.07,316.49 870.99,325.1 682.84,526.46 576.94,430.8 427.13,641.34 330.76,558.88 
	210.66,661.17 218.22,679.48 330.71,584.13 432.57,671.3 581.83,461.53 684.58,554.35 889.14,334.16 908.8,346.9 "/>
<g>
	<g>
		<g>
			<path class="st9" d="M527.17,184.66c-23.59-0.9-39.06,27.71-41.9,49.81c-4.8,37.41,35.17,51.3,49.29,54.97
				c0,0,41.8-6.83,45.76-59.03C580.32,230.41,587.8,186.97,527.17,184.66z"/>
			<path class="st9" d="M483.66,236.98c-4.45-0.17-7.37,5.23-7.9,9.4c-0.91,7.06,6.63,9.68,9.3,10.37c0,0,7.88-1.29,8.63-11.13
				C493.68,245.61,495.09,237.41,483.66,236.98z"/>
			<path class="st9" d="M504.86,265c-4.45-0.17-7.37,5.23-7.9,9.4c-0.91,7.06,6.63,9.68,9.3,10.37c0,0,7.88-1.29,8.63-11.13
				C514.88,273.63,516.29,265.44,504.86,265z"/>
			<path class="st9" d="M518.08,267.86c-4.45-0.17-7.37,5.23-7.9,9.4c-0.91,7.06,6.63,9.68,9.3,10.37c0,0,7.88-1.29,8.63-11.13
				C528.11,276.49,529.52,268.29,518.08,267.86z"/>
			<path class="st9" d="M559.97,261.15c-4.45-0.17-7.37,5.23-7.9,9.4c-0.91,7.06,6.63,9.68,9.3,10.37c0,0,7.88-1.29,8.63-11.13
				C569.99,269.78,571.4,261.58,559.97,261.15z"/>
			<path class="st9" d="M547.75,268.86c-4.45-0.17-7.37,5.23-7.9,9.4c-0.91,7.06,6.63,9.68,9.3,10.37c0,0,7.88-1.29,8.63-11.13
				C557.78,277.49,559.19,269.3,547.75,268.86z"/>
			<path class="st9" d="M480.87,215.19c-6.54-0.25-10.83,7.68-11.61,13.8c-1.33,10.37,9.75,14.22,13.66,15.24
				c0,0,11.58-1.89,12.68-16.36C495.6,227.87,497.68,215.83,480.87,215.19z"/>
			<path class="st9" d="M494.14,245.84c-6.54-0.25-10.83,7.68-11.61,13.8c-1.33,10.37,9.75,14.22,13.66,15.24
				c0,0,11.58-1.89,12.68-16.36C508.87,258.52,510.94,246.48,494.14,245.84z"/>
			<path class="st9" d="M485.33,195.77c-7.03-0.27-11.64,8.26-12.48,14.84c-1.43,11.15,10.48,15.29,14.69,16.38
				c0,0,12.46-2.04,13.64-17.59C501.17,209.4,503.39,196.45,485.33,195.77z"/>
			<path class="st9" d="M558.79,174.39c-7.03-0.27-11.64,8.26-12.48,14.84c-1.43,11.15,10.48,15.29,14.69,16.38
				c0,0,12.46-2.04,13.64-17.59C574.63,188.03,576.86,175.08,558.79,174.39z"/>
			<path class="st9" d="M577.1,234.35c-4.45-0.17-7.37,5.23-7.9,9.4c-0.91,7.06,6.63,9.68,9.3,10.37c0,0,7.88-1.29,8.63-11.13
				C587.12,242.98,588.53,234.78,577.1,234.35z"/>
			<path class="st9" d="M572.06,191.32c-4.45-0.17-7.37,5.23-7.9,9.4c-0.91,7.06,6.63,9.68,9.3,10.37c0,0,7.88-1.29,8.63-11.13
				C582.09,199.95,583.5,191.75,572.06,191.32z"/>
			<path class="st9" d="M495.83,184.36c-4.45-0.17-7.37,5.23-7.9,9.4c-0.91,7.06,6.63,9.68,9.3,10.37c0,0,7.88-1.29,8.63-11.13
				C505.85,192.99,507.26,184.79,495.83,184.36z"/>
			<path class="st9" d="M580.84,214.96c-5.51-0.21-9.12,6.47-9.78,11.63c-1.12,8.73,8.21,11.98,11.51,12.84
				c0,0,9.76-1.6,10.69-13.78C593.25,225.65,595,215.5,580.84,214.96z"/>
			<path class="st9" d="M515.59,169.13c-6.9-0.26-11.43,8.11-12.26,14.57c-1.4,10.94,10.29,15.01,14.42,16.08
				c0,0,12.23-2,13.39-17.27C531.14,182.52,533.33,169.8,515.59,169.13z"/>
			<path class="st9" d="M589.26,201.88c-3.56-2.67-9.03,0.1-11.85,3.22c-4.76,5.28-0.06,11.73,1.73,13.82c0,0,7.21,3.43,13.44-4.23
				C592.59,214.69,598.41,208.75,589.26,201.88z"/>
			<path class="st9" d="M543.65,174.31c-3.56-2.67-9.03,0.1-11.85,3.22c-4.76,5.28-0.06,11.73,1.73,13.82c0,0,7.21,3.43,13.44-4.23
				C546.97,187.11,552.8,181.18,543.65,174.31z"/>
			<path class="st9" d="M575.35,252c-3.56-2.67-9.03,0.1-11.85,3.22c-4.76,5.28-0.06,11.73,1.73,13.82c0,0,7.21,3.43,13.44-4.23
				C578.67,264.8,584.5,258.87,575.35,252z"/>
		</g>
	</g>
	<path class="st10" d="M559.47,232.02c0.38,18.87-3.11,44.96-25.64,46.68c-15.65,1.2-30.77-25.81-31.16-44.68
		s12.02-34.61,27.71-35.17C546.06,198.3,559.08,213.15,559.47,232.02z"/>
	<path class="st10" d="M551.07,242.76c0.11,1.07,4.36,81,4.36,81l-35.2,2.12l-2.83-76.15L551.07,242.76z"/>
	<path class="st9" d="M558.3,225.47c-0.47-19.48-11.9-27.58-22.21-29.73c-15.05-3.14-29.88,6.93-33.12,22.49
		c-0.54,2.6-0.72,5.19-0.58,7.72c2.2-0.53,8.36,24.93,7.98,9.53c-0.49-20.03,16.69-15.8,26.02-17.56
		C543.2,216.89,551.48,215.16,558.3,225.47z"/>
	<g>
		<g>
			<path d="M553.08,264c-3.13,7.24-10.25,12.44-18.12,13.11c-0.8,0.07-0.8,1.32,0,1.25c8.29-0.71,15.89-6.08,19.2-13.73
				C554.47,263.9,553.4,263.26,553.08,264L553.08,264z"/>
		</g>
	</g>
	<path class="st6" d="M519.04,235.11c0,0,0.72-8.82,4.93-10.1c6.1-1.86,5.8,8.31,5.8,8.31L519.04,235.11z"/>
	
		<ellipse transform="matrix(0.9498 -0.3128 0.3128 0.9498 -48.3949 169.164)" class="st10" cx="503.05" cy="235.42" rx="6.13" ry="10.58"/>
	
		<ellipse transform="matrix(0.0802 -0.9968 0.9968 0.0802 290.0186 763.1287)" class="st10" cx="558.52" cy="224.41" rx="10.58" ry="6.13"/>
	
		<ellipse transform="matrix(0.9843 -0.1765 0.1765 0.9843 -35.1033 95.4906)" class="st8" cx="519.13" cy="245.04" rx="5.2" ry="4.61"/>
	
		<ellipse transform="matrix(0.9302 -0.367 0.367 0.9302 -50.4892 219.3111)" class="st8" cx="551.51" cy="242.43" rx="4.99" ry="4.64"/>
	<path class="st8" d="M545.49,253.36c0.94,2.39,0.36,3.11-3.62,4.68s-7.97,0.91-8.91-1.48c-0.94-2.39,1.14-7.05,6.1-1.51
		C541.29,248.16,544.55,250.98,545.49,253.36z"/>
	<g>
		<g>
			<path d="M535.76,229.06c0.56,3.19,1.73,6.21,2.79,9.25c0.42,1.22,1.03,2.74,0.8,4.05c-0.21,1.18-1.65,2.06-2.79,1.81
				c-0.78-0.17-1.12,1.03-0.33,1.21c1.33,0.29,2.73-0.26,3.61-1.29c1.02-1.19,0.86-2.69,0.52-4.12c-0.4-1.7-1.1-3.33-1.66-4.99
				c-0.69-2.05-1.36-4.11-1.73-6.25C536.82,227.94,535.62,228.27,535.76,229.06L535.76,229.06z"/>
		</g>
	</g>
	<g>
		<g>
			<path d="M518.37,236.26c3.9-1.28,8.07-1.38,12.04-0.39c0.78,0.2,1.11-1.01,0.33-1.21c-4.18-1.05-8.6-0.96-12.71,0.39
				C517.27,235.3,517.6,236.51,518.37,236.26L518.37,236.26z"/>
		</g>
	</g>
	<g>
		<g>
			<path d="M500.17,231.56c1.79,1.79,3.06,4.03,3.7,6.47c0.2,0.78,1.41,0.45,1.21-0.33c-0.69-2.65-2.09-5.08-4.02-7.02
				C500.48,230.1,499.6,230.99,500.17,231.56L500.17,231.56z"/>
		</g>
	</g>
	<g>
		<g>
			<path d="M560.66,220.06c-0.18,2.02-0.35,4.04-0.53,6.05c-0.03,0.34,0.31,0.63,0.63,0.63c0.36,0,0.6-0.29,0.63-0.63
				c0.18-2.02,0.35-4.04,0.53-6.05c0.03-0.34-0.31-0.63-0.63-0.63C560.92,219.43,560.69,219.72,560.66,220.06L560.66,220.06z"/>
		</g>
	</g>
	
		<ellipse transform="matrix(0.1494 -0.9888 0.9888 0.1494 216.5388 715.553)" class="st11" cx="524.16" cy="231.92" rx="2.45" ry="1.23"/>
	<path class="st6" d="M541.58,232.17c0,0,1.22-8.76,5.49-9.8c6.2-1.51,5.32,8.63,5.32,8.63L541.58,232.17z"/>
	<g>
		<g>
			<path d="M541.36,234.1c3.71-1.57,7.85-2,11.82-1.35c0.79,0.13,1.13-1.08,0.33-1.21c-4.33-0.71-8.73-0.24-12.78,1.47
				C539.99,233.33,540.63,234.41,541.36,234.1L541.36,234.1z"/>
		</g>
	</g>
	
		<ellipse transform="matrix(0.2052 -0.9787 0.9787 0.2052 210.7663 717.551)" class="st11" cx="547.2" cy="229" rx="2.45" ry="1.23"/>
	<g>
		<path class="st10" d="M514.06,327.78c0.17,0.84,0.29,1.67,0.38,2.5c1.02,9.85-3.5,24.3-11.25,39.15
			c-23.02,44.09-43.35,92.06-75.14,121.47c-19.17,17.74-70.7,43.19-72.56,44.47l0,0l-17.7,13.14c-2.2,1.64-4.46,3.19-6.78,4.66
			c-9.82,6.21-36.39,22.66-38.64,20.37c-3.88-3.93,26.3-36.28,26.75-36.84c0.45-0.56-21.15,6.93-22.81-0.6
			c-0.56-2.56,21.99-12.47,35.87-18.29c3.02-1.27,9.88-3.5,17.13-6.79c16.98-7.69,36.63-23.29,68.12-59.44
			c13.51-15.51,40.15-62.37,53.5-86.45c6.91-12.47,16.12-23.56,27.28-32.44C505.81,326.61,513.03,322.53,514.06,327.78z"/>
		<g>
			<g>
				<g>
					<path d="M312.92,555.43c-3.37,4.14-6.74,8.27-10.11,12.41c-0.5,0.62,0.38,1.51,0.88,0.88c3.37-4.14,6.74-8.27,10.11-12.41
						C314.31,555.69,313.43,554.8,312.92,555.43L312.92,555.43z"/>
				</g>
			</g>
		</g>
	</g>
	<g>
		<path class="st10" d="M523.81,335.06c0,0,14.72-25.07,62.55-12.34c47.83,12.73,62.09,59.52,96.11,78.65
			c23.04,12.96,116.75,47.94,116.75,47.94L786.4,470.1c0,0-77.61-10.46-125.87-40.64c-23.78-14.86-83.92-74.73-83.92-74.73
			l-28.1,7.89L523.81,335.06z"/>
		<path class="st10" d="M790.05,446.25c0,0,49.09,13.82,48.62,17.56c-0.94,7.62-23.28,2.47-22.77,2.98
			c0.5,0.51,33.79,29.36,30.28,33.66c-2.51,3.06-28.44-7.78-36.77-12.78c-7.19-4.32-26.67-20.24-26.67-20.24L790.05,446.25z"/>
		<g>
			<g>
				<path d="M820.57,484.94c5.49,4.72,10.97,9.43,16.46,14.15c0.61,0.52,1.5-0.36,0.88-0.88c-5.49-4.72-10.97-9.43-16.46-14.15
					C820.85,483.54,819.96,484.42,820.57,484.94L820.57,484.94z"/>
			</g>
		</g>
	</g>
	<path class="st12" d="M592.15,958.55l35.78,56.7c4.49,7.11-2.7,15.89-10.52,12.81c-8.13-3.2-17.12-7.66-24.59-13.65
		c-18.93-15.17-35.11-42.96-35.11-42.96L592.15,958.55z"/>
	<path class="st12" d="M521.97,958.55l-21.66,67.04c-2.74,8.48,6.66,15.78,14.15,10.97c8.77-5.64,18.44-13.23,25.2-22.44
		c15.59-21.23,22.2-54.14,22.2-54.14L521.97,958.55z"/>
	<path class="st6" d="M642.51,619.13c-0.65-28.38-8.66-95.85-38.51-142.24c-3.33-51.88-12.02-107.15-12.02-107.15l-13.62-48.59
		c0,0-11.55-5.97-36.26-4.24c-23.3,1.64-36.19,10.62-36.19,10.62l-5.3,46.86c0,0,18.86,101.71,17.14,110.1
		c-1.72,8.39-16.67,39.82-22.37,68.03c-6.01,29.8-12.39,87.24-6.06,150.36c6.04,60.17,29.03,264.68,29.03,264.68l38.88,4.1
		l38.3-8.49c0,0,25.89-159.61,34.7-196.94C642.31,715.07,645.36,653.67,642.51,619.13z"/>
	<path class="st13" d="M584.05,668.63c-7.09,207.04-26.81,303.04-26.81,303.04"/>
	
		<rect x="582.65" y="978.31" transform="matrix(0.866 -0.5 0.5 0.866 -410.7925 428.1363)" class="st14" width="21.73" height="4.62"/>
	
		<rect x="587.84" y="986.75" transform="matrix(0.866 -0.5 0.5 0.866 -414.319 431.8624)" class="st14" width="21.73" height="4.62"/>
	
		<rect x="593.22" y="995.4" transform="matrix(0.866 -0.5 0.5 0.866 -417.9241 435.7071)" class="st14" width="21.73" height="4.62"/>
	
		<rect x="515.12" y="976.93" transform="matrix(0.9553 0.2956 -0.2956 0.9553 312.9856 -111.7229)" class="st14" width="21.73" height="4.62"/>
	
		<rect x="512.45" y="986.48" transform="matrix(0.9553 0.2956 -0.2956 0.9553 315.688 -110.5075)" class="st14" width="21.73" height="4.62"/>
	
		<rect x="509.76" y="996.3" transform="matrix(0.9553 0.2956 -0.2956 0.9553 318.47 -109.2719)" class="st14" width="21.73" height="4.62"/>
</g>
<g>
	<g>
		<path class="st9" d="M211.41,494.13c-5.75-40.52,22.43-78.03,62.95-83.79c40.52-5.76,78.03,22.43,83.79,62.95
			c5.76,40.52-22.43,78.03-62.95,83.79C254.68,562.83,217.16,534.65,211.41,494.13z"/>
		<g>
			<g>
				<path class="st15" d="M294.39,551.42c-17.85,2.54-35.63-2.03-50.05-12.87c-14.42-10.83-23.76-26.63-26.29-44.49
					c-2.54-17.85,2.03-35.63,12.87-50.05c10.83-14.42,26.63-23.76,44.49-26.29c17.85-2.54,35.63,2.03,50.05,12.87
					c14.42,10.83,23.76,26.63,26.29,44.49c2.54,17.85-2.03,35.63-12.87,50.05C328.05,539.55,312.25,548.88,294.39,551.42z
					 M275.97,421.72c-34.66,4.92-58.85,37.13-53.93,71.78c4.92,34.66,37.13,58.85,71.78,53.93c34.66-4.92,58.85-37.13,53.93-71.78
					S310.63,416.8,275.97,421.72z"/>
			</g>
		</g>
	</g>
	<path class="st15" d="M319.52,489.06c-2.42-3.26-6.01-5.33-10.78-6.21c3.51-1.4,6.17-3.49,7.99-6.26c1.82-2.77,2.74-5.91,2.74-9.41
		c0-6.94-2.52-12.17-7.57-15.7c-4.41-3.07-10.32-4.81-17.74-5.2v-10.41h-7.96v10.33h-5.48v-10.33h-7.96v10.33h-7.02v0.1h-11.19
		v11.44h11.19v53.59h-11.19v11.44h11.19v0h7.02v8.22h7.96v-8.22h5.48v8.22h7.96v-8.22h1.18c8.87,0,15.72-1.88,20.56-5.65
		c4.84-3.77,7.26-9.32,7.26-16.64C323.15,496.13,321.94,492.32,319.52,489.06z M304.11,468.39c0,3.23-1.1,5.68-3.31,7.36
		c-2.21,1.68-5.36,2.52-9.47,2.52h-10.25v-20.25h9.73c4.42,0,7.74,0.84,9.96,2.52C303,462.24,304.11,464.85,304.11,468.39z
		 M304.64,508.33c-2.14,1.77-5.24,2.66-9.31,2.66h-14.25V488.9h14.09c4.24,0,7.41,1,9.52,3c2.1,2,3.16,4.86,3.16,8.57
		C307.85,503.94,306.78,506.57,304.64,508.33z"/>
</g>
<g>
	<path class="st9" d="M776.18,425.7c-5.75-40.52,22.43-78.03,62.95-83.79c40.52-5.76,78.03,22.43,83.79,62.95
		c5.76,40.52-22.43,78.03-62.95,83.79C819.45,494.41,781.94,466.22,776.18,425.7z"/>
	<g>
		<g>
			<path class="st15" d="M859.17,483c-17.85,2.54-35.63-2.03-50.05-12.87c-14.42-10.83-23.76-26.63-26.29-44.49
				c-2.54-17.85,2.03-35.63,12.87-50.05c10.83-14.42,26.63-23.76,44.49-26.29c17.85-2.54,35.63,2.03,50.05,12.87
				c14.42,10.83,23.76,26.63,26.29,44.49c2.54,17.85-2.03,35.63-12.87,50.05S877.02,480.46,859.17,483z M840.74,353.29
				c-34.66,4.92-58.85,37.13-53.93,71.78c4.92,34.66,37.13,58.85,71.78,53.93c34.66-4.92,58.85-37.13,53.93-71.78
				S875.4,348.37,840.74,353.29z"/>
		</g>
	</g>
	<path class="st15" d="M861.63,434.24c-0.03-1.47-0.27-2.75-0.71-3.86c-0.44-1.11-1.14-2.1-2.1-2.99c-0.96-0.89-2.19-1.7-3.69-2.43
		c-1.5-0.73-3.33-1.44-5.49-2.13c-3.71-1.21-7.09-2.48-10.12-3.83c-3.04-1.34-5.65-2.92-7.83-4.72c-2.18-1.8-3.9-3.93-5.14-6.38
		c-1.24-2.45-1.9-5.39-1.98-8.81c-0.07-2.97,0.4-5.68,1.39-8.15c1-2.47,2.45-4.63,4.36-6.49c1.91-1.86,4.22-3.39,6.91-4.59
		c2.7-1.2,5.73-1.99,9.11-2.38l-0.26-11.2l9.02-0.21l0.26,11.36c3.24,0.35,6.19,1.13,8.85,2.36c2.66,1.23,4.93,2.86,6.82,4.87
		c1.89,2.02,3.36,4.42,4.42,7.21c1.06,2.79,1.63,5.93,1.71,9.42l-16.29,0.37c-0.1-4.19-1.1-7.3-3.01-9.33
		c-1.91-2.03-4.42-3.01-7.54-2.94c-1.69,0.04-3.14,0.31-4.35,0.81c-1.21,0.5-2.2,1.17-2.97,2.01c-0.77,0.84-1.33,1.82-1.68,2.95
		c-0.35,1.13-0.51,2.33-0.48,3.63c0.03,1.29,0.24,2.46,0.64,3.49c0.4,1.04,1.07,1.99,2.01,2.86c0.94,0.87,2.18,1.68,3.72,2.43
		c1.54,0.75,3.45,1.52,5.72,2.3c3.67,1.28,7.02,2.6,10.04,3.96c3.02,1.36,5.62,2.95,7.81,4.77c2.18,1.82,3.9,3.95,5.14,6.4
		c1.24,2.45,1.9,5.37,1.98,8.76c0.07,3.07-0.4,5.84-1.42,8.31c-1.01,2.47-2.48,4.61-4.39,6.44c-1.91,1.83-4.24,3.31-6.97,4.46
		c-2.74,1.15-5.79,1.91-9.17,2.31l0.24,10.42l-8.96,0.21l-0.24-10.37c-3.13-0.24-6.16-0.85-9.09-1.83
		c-2.94-0.98-5.55-2.43-7.85-4.35c-2.3-1.92-4.16-4.37-5.58-7.34c-1.42-2.97-2.18-6.55-2.28-10.74l16.29-0.37
		c0.06,2.48,0.45,4.54,1.18,6.18c0.73,1.64,1.69,2.95,2.88,3.91c1.19,0.97,2.53,1.64,4.02,2c1.49,0.37,3.01,0.53,4.55,0.5
		c1.77-0.04,3.31-0.3,4.63-0.79c1.32-0.48,2.43-1.14,3.31-1.96c0.88-0.82,1.54-1.79,1.96-2.9
		C861.46,436.74,861.66,435.54,861.63,434.24z"/>
</g>
<g>
	<g>
		<path class="st16" d="M782.48,958v7.54c0,0.6-0.22,1.16-0.59,1.62c-0.39,0.49-0.96,0.87-1.63,1.09c-0.2,0.07-0.42,0.12-0.63,0.15
			c-0.2,0.03-0.4,0.05-0.61,0.05h-143.1c-1.84,0-3.36-1.23-3.46-2.76c0-0.05,0-0.1,0-0.15V958c0-0.05,0-0.1,0-0.15
			c0.09-1.53,1.61-2.76,3.46-2.76h143.1c0.21,0,0.41,0.02,0.61,0.05c0.22,0.03,0.43,0.08,0.63,0.15c0.66,0.22,1.23,0.6,1.63,1.09
			C782.26,956.84,782.48,957.4,782.48,958z"/>
		<path class="st17" d="M712.2,968.46h-76.67c-1.65,0-3-1.23-3.09-2.76c0-0.05,0-0.1,0-0.15V958c0-0.05,0-0.1,0-0.15
			c0.08-1.53,1.44-2.76,3.09-2.76h67.25C703.86,959.03,706.37,964.47,712.2,968.46z"/>
		<g>
			<rect x="763.44" y="955.1" class="st17" width="1.63" height="13.36"/>
			<rect x="757.93" y="955.1" class="st17" width="1.63" height="13.36"/>
			<rect x="751.33" y="955.1" class="st17" width="1.63" height="13.36"/>
			<rect x="741.21" y="955.1" class="st17" width="1.63" height="13.36"/>
			<rect x="730.51" y="955.1" class="st17" width="1.63" height="13.36"/>
			<rect x="714.1" y="955.1" class="st17" width="1.63" height="13.36"/>
			<rect x="698.74" y="955.1" class="st17" width="1.63" height="13.36"/>
			<rect x="685.03" y="955.1" class="st17" width="1.63" height="13.36"/>
			<rect x="768.68" y="955.1" class="st17" width="1.63" height="13.36"/>
			<rect x="772.14" y="955.1" class="st17" width="1.63" height="13.36"/>
			<rect x="775.48" y="955.1" class="st17" width="1.63" height="13.36"/>
			<path class="st17" d="M779.62,955.14v13.27c-0.2,0.03-0.4,0.05-0.61,0.05H778V955.1h1.02
				C779.22,955.1,779.43,955.11,779.62,955.14z"/>
			<path class="st17" d="M781.88,956.38v10.79c-0.39,0.49-0.96,0.87-1.63,1.09v-12.97C780.92,955.51,781.49,955.89,781.88,956.38z"
				/>
		</g>
	</g>
	<g>
		<path class="st9" d="M789.57,944.64v7.54c0,0.6-0.22,1.16-0.59,1.62c-0.39,0.49-0.96,0.87-1.62,1.09
			c-0.2,0.07-0.42,0.12-0.63,0.15c-0.2,0.03-0.4,0.05-0.61,0.05H643c-1.85,0-3.36-1.23-3.46-2.76c0-0.05,0-0.1,0-0.15v-7.54
			c0-0.05,0-0.1,0-0.15c0.09-1.53,1.61-2.76,3.46-2.76h143.1c0.09,0,0.18,0,0.27,0.01c0.04,0,0.08,0,0.12,0.01
			c0.04,0,0.09,0.01,0.13,0.01c0.03,0,0.06,0.01,0.09,0.01c0.22,0.03,0.43,0.08,0.63,0.15c0.03,0.01,0.06,0.02,0.09,0.03
			c0.03,0.01,0.06,0.02,0.09,0.03c0.06,0.02,0.12,0.05,0.17,0.07c0.03,0.01,0.07,0.03,0.1,0.05c0.03,0.01,0.06,0.03,0.09,0.04
			c0.06,0.03,0.11,0.06,0.16,0.09c0.06,0.04,0.12,0.07,0.18,0.11c0.05,0.03,0.09,0.06,0.13,0.09c0,0,0.01,0,0.01,0.01
			c0.03,0.02,0.06,0.04,0.09,0.07c0.09,0.07,0.17,0.14,0.25,0.22c0.02,0.02,0.05,0.05,0.07,0.07c0.02,0.02,0.04,0.05,0.07,0.07
			c0.04,0.05,0.09,0.1,0.13,0.15C789.35,943.48,789.57,944.04,789.57,944.64z"/>
		<path class="st15" d="M719.3,955.1h-76.67c-1.65,0-3-1.23-3.09-2.76c0-0.05,0-0.1,0-0.15v-7.54c0-0.05,0-0.1,0-0.15
			c0.08-1.53,1.44-2.76,3.09-2.76h67.25c0.03,0.11,0.06,0.22,0.09,0.33C711.1,945.97,713.62,951.22,719.3,955.1z"/>
		<g>
			<rect x="770.53" y="941.74" class="st15" width="1.63" height="13.36"/>
			<rect x="765.02" y="941.74" class="st15" width="1.63" height="13.36"/>
			<rect x="758.42" y="941.74" class="st15" width="1.63" height="13.36"/>
			<rect x="748.3" y="941.74" class="st15" width="1.63" height="13.36"/>
			<rect x="737.6" y="941.74" class="st15" width="1.63" height="13.36"/>
			<rect x="721.2" y="941.74" class="st15" width="1.63" height="13.36"/>
			<rect x="705.83" y="941.74" class="st15" width="1.63" height="13.36"/>
			<rect x="692.12" y="941.74" class="st15" width="1.63" height="13.36"/>
			<rect x="775.77" y="941.74" class="st15" width="1.63" height="13.36"/>
			<rect x="779.23" y="941.74" class="st15" width="1.63" height="13.36"/>
			<rect x="782.58" y="941.74" class="st15" width="1.63" height="13.36"/>
			<path class="st15" d="M786.72,941.78v13.27c-0.2,0.03-0.4,0.05-0.61,0.05h-1.02v-13.36h1.02
				C786.32,941.74,786.52,941.75,786.72,941.78z"/>
			<path class="st15" d="M788.98,943.02v10.79c-0.39,0.49-0.96,0.87-1.62,1.09v-12.97C788.02,942.15,788.58,942.53,788.98,943.02z"
				/>
		</g>
	</g>
	<g>
		<path class="st9" d="M776.79,865.26v7.54c0,0.6-0.22,1.16-0.59,1.62c-0.39,0.49-0.96,0.87-1.62,1.09
			c-0.2,0.07-0.42,0.12-0.63,0.15c-0.2,0.03-0.4,0.05-0.61,0.05h-143.1c-1.84,0-3.36-1.23-3.46-2.76c0-0.05,0-0.1,0-0.15v-7.54
			c0-0.05,0-0.1,0-0.15c0.09-1.53,1.61-2.76,3.46-2.76h143.1c0.09,0,0.18,0,0.27,0.01c0.04,0,0.08,0,0.12,0.01
			c0.04,0,0.09,0.01,0.13,0.01c0.03,0,0.06,0.01,0.09,0.01c0.22,0.03,0.43,0.08,0.63,0.15c0.03,0.01,0.06,0.02,0.09,0.03
			c0.03,0.01,0.06,0.02,0.09,0.03c0.06,0.02,0.12,0.05,0.17,0.07c0.03,0.01,0.07,0.03,0.1,0.05c0.03,0.01,0.06,0.03,0.09,0.04
			c0.06,0.03,0.11,0.06,0.16,0.09c0.06,0.04,0.12,0.07,0.18,0.11c0.05,0.03,0.09,0.06,0.13,0.09c0,0,0.01,0,0.01,0.01
			c0.03,0.02,0.06,0.04,0.09,0.07c0.09,0.07,0.17,0.14,0.25,0.22c0.02,0.02,0.05,0.05,0.07,0.07c0.02,0.02,0.04,0.05,0.07,0.07
			c0.04,0.05,0.09,0.1,0.13,0.15C776.57,864.1,776.79,864.66,776.79,865.26z"/>
		<path class="st15" d="M706.51,875.71h-76.67c-1.65,0-3-1.23-3.09-2.76c0-0.05,0-0.1,0-0.15v-7.54c0-0.05,0-0.1,0-0.15
			c0.08-1.53,1.44-2.76,3.09-2.76h67.25c0.03,0.11,0.06,0.22,0.09,0.33C698.31,866.58,700.83,871.84,706.51,875.71z"/>
		<g>
			<rect x="757.75" y="862.35" class="st15" width="1.63" height="13.36"/>
			<rect x="752.24" y="862.35" class="st15" width="1.63" height="13.36"/>
			<rect x="745.64" y="862.35" class="st15" width="1.63" height="13.36"/>
			<rect x="735.52" y="862.35" class="st15" width="1.63" height="13.36"/>
			<rect x="724.82" y="862.35" class="st15" width="1.63" height="13.36"/>
			<rect x="708.41" y="862.35" class="st15" width="1.63" height="13.36"/>
			<rect x="693.05" y="862.35" class="st15" width="1.63" height="13.36"/>
			<rect x="679.33" y="862.35" class="st15" width="1.63" height="13.36"/>
			<rect x="762.99" y="862.35" class="st15" width="1.63" height="13.36"/>
			<rect x="766.45" y="862.35" class="st15" width="1.63" height="13.36"/>
			<rect x="769.79" y="862.35" class="st15" width="1.63" height="13.36"/>
			<path class="st15" d="M773.93,862.4v13.27c-0.2,0.03-0.4,0.05-0.61,0.05h-1.02v-13.36h1.02
				C773.53,862.35,773.73,862.37,773.93,862.4z"/>
			<path class="st15" d="M776.19,863.64v10.79c-0.39,0.49-0.96,0.87-1.62,1.09v-12.97C775.23,862.76,775.8,863.15,776.19,863.64z"/>
		</g>
	</g>
	<g>
		<path class="st9" d="M790.33,878.29v7.54c0,0.6-0.22,1.16-0.59,1.62c-0.39,0.49-0.96,0.87-1.62,1.09
			c-0.2,0.07-0.42,0.12-0.63,0.15c-0.2,0.03-0.4,0.05-0.61,0.05h-143.1c-1.84,0-3.36-1.23-3.46-2.76c0-0.05,0-0.1,0-0.15v-7.54
			c0-0.05,0-0.1,0-0.15c0.09-1.53,1.61-2.76,3.46-2.76h143.1c0.09,0,0.18,0,0.27,0.01c0.04,0,0.08,0,0.12,0.01
			c0.04,0,0.09,0.01,0.13,0.01c0.03,0,0.06,0.01,0.09,0.01c0.22,0.03,0.43,0.08,0.63,0.15c0.03,0.01,0.06,0.02,0.09,0.03
			c0.03,0.01,0.06,0.02,0.09,0.03c0.06,0.02,0.12,0.05,0.17,0.07c0.03,0.01,0.07,0.03,0.1,0.05c0.03,0.01,0.06,0.03,0.09,0.04
			c0.06,0.03,0.11,0.06,0.16,0.09c0.06,0.04,0.12,0.07,0.18,0.11c0.05,0.03,0.09,0.06,0.13,0.09c0,0,0.01,0,0.01,0.01
			c0.03,0.02,0.06,0.04,0.09,0.07c0.09,0.07,0.17,0.14,0.25,0.22c0.02,0.02,0.05,0.05,0.07,0.07c0.02,0.02,0.04,0.05,0.07,0.07
			c0.04,0.05,0.09,0.1,0.13,0.15C790.11,877.13,790.33,877.69,790.33,878.29z"/>
		<path class="st15" d="M720.05,888.74h-76.67c-1.65,0-3-1.23-3.09-2.76c0-0.05,0-0.1,0-0.15v-7.54c0-0.05,0-0.1,0-0.15
			c0.08-1.53,1.44-2.76,3.09-2.76h67.25c0.03,0.11,0.06,0.22,0.09,0.33C711.85,879.61,714.38,884.87,720.05,888.74z"/>
		<g>
			<rect x="771.29" y="875.38" class="st15" width="1.63" height="13.36"/>
			<rect x="765.78" y="875.38" class="st15" width="1.63" height="13.36"/>
			<rect x="759.18" y="875.38" class="st15" width="1.63" height="13.36"/>
			<rect x="749.06" y="875.38" class="st15" width="1.63" height="13.36"/>
			<rect x="738.36" y="875.38" class="st15" width="1.63" height="13.36"/>
			<rect x="721.95" y="875.38" class="st15" width="1.63" height="13.36"/>
			<rect x="706.59" y="875.38" class="st15" width="1.63" height="13.36"/>
			<rect x="692.88" y="875.38" class="st15" width="1.63" height="13.36"/>
			<rect x="776.53" y="875.38" class="st15" width="1.63" height="13.36"/>
			<rect x="779.99" y="875.38" class="st15" width="1.63" height="13.36"/>
			<rect x="783.33" y="875.38" class="st15" width="1.63" height="13.36"/>
			<path class="st15" d="M787.47,875.43v13.27c-0.2,0.03-0.4,0.05-0.61,0.05h-1.02v-13.36h1.02
				C787.07,875.38,787.27,875.4,787.47,875.43z"/>
			<path class="st15" d="M789.73,876.67v10.79c-0.39,0.49-0.96,0.87-1.62,1.09v-12.97C788.77,875.79,789.34,876.18,789.73,876.67z"
				/>
		</g>
	</g>
	<g>
		<path class="st9" d="M784.97,891.65v7.54c0,0.6-0.22,1.16-0.59,1.62c-0.39,0.49-0.96,0.87-1.62,1.09
			c-0.2,0.07-0.42,0.12-0.63,0.15c-0.2,0.03-0.4,0.05-0.61,0.05h-143.1c-1.84,0-3.36-1.23-3.46-2.76c0-0.05,0-0.1,0-0.15v-7.54
			c0-0.05,0-0.1,0-0.15c0.09-1.53,1.61-2.76,3.46-2.76h143.1c0.09,0,0.18,0,0.27,0.01c0.04,0,0.08,0,0.12,0.01
			c0.04,0,0.09,0.01,0.13,0.01c0.03,0,0.06,0.01,0.09,0.01c0.22,0.03,0.43,0.08,0.63,0.15c0.03,0.01,0.06,0.02,0.09,0.03
			c0.03,0.01,0.06,0.02,0.09,0.03c0.06,0.02,0.12,0.05,0.17,0.07c0.03,0.01,0.07,0.03,0.1,0.05c0.03,0.01,0.06,0.03,0.09,0.04
			c0.06,0.03,0.11,0.06,0.16,0.09c0.06,0.04,0.12,0.07,0.18,0.11c0.05,0.03,0.09,0.06,0.13,0.09c0,0,0.01,0,0.01,0.01
			c0.03,0.02,0.06,0.04,0.09,0.07c0.09,0.07,0.17,0.14,0.25,0.22c0.02,0.02,0.05,0.05,0.07,0.07c0.02,0.02,0.04,0.05,0.07,0.07
			c0.04,0.05,0.09,0.1,0.13,0.15C784.76,890.49,784.97,891.05,784.97,891.65z"/>
		<path class="st15" d="M714.7,902.1h-76.67c-1.65,0-3-1.23-3.09-2.76c0-0.05,0-0.1,0-0.15v-7.54c0-0.05,0-0.1,0-0.15
			c0.08-1.53,1.44-2.76,3.09-2.76h67.25c0.03,0.11,0.06,0.22,0.09,0.33C706.5,892.97,709.02,898.23,714.7,902.1z"/>
		<g>
			<rect x="765.93" y="888.74" class="st15" width="1.63" height="13.36"/>
			<rect x="760.43" y="888.74" class="st15" width="1.63" height="13.36"/>
			<rect x="753.83" y="888.74" class="st15" width="1.63" height="13.36"/>
			<rect x="743.71" y="888.74" class="st15" width="1.63" height="13.36"/>
			<rect x="733.01" y="888.74" class="st15" width="1.63" height="13.36"/>
			<rect x="716.6" y="888.74" class="st15" width="1.63" height="13.36"/>
			<rect x="701.24" y="888.74" class="st15" width="1.63" height="13.36"/>
			<rect x="687.52" y="888.74" class="st15" width="1.63" height="13.36"/>
			<rect x="771.17" y="888.74" class="st15" width="1.63" height="13.36"/>
			<rect x="774.64" y="888.74" class="st15" width="1.63" height="13.36"/>
			<rect x="777.98" y="888.74" class="st15" width="1.63" height="13.36"/>
			<path class="st15" d="M782.12,888.79v13.27c-0.2,0.03-0.4,0.05-0.61,0.05h-1.02v-13.36h1.02
				C781.72,888.74,781.92,888.76,782.12,888.79z"/>
			<path class="st15" d="M784.38,890.03v10.79c-0.39,0.49-0.96,0.87-1.62,1.09v-12.97C783.42,889.15,783.99,889.54,784.38,890.03z"
				/>
		</g>
	</g>
	<g>
		<path class="st9" d="M782.87,904.91v7.54c0,0.6-0.22,1.16-0.59,1.62c-0.39,0.49-0.96,0.87-1.62,1.09
			c-0.2,0.07-0.42,0.12-0.63,0.15c-0.2,0.03-0.4,0.05-0.61,0.05h-143.1c-1.85,0-3.36-1.23-3.46-2.76c0-0.05,0-0.1,0-0.15v-7.54
			c0-0.05,0-0.1,0-0.15c0.09-1.53,1.61-2.76,3.46-2.76h143.1c0.09,0,0.18,0,0.27,0.01c0.04,0,0.08,0,0.12,0.01
			c0.04,0,0.09,0.01,0.13,0.01c0.03,0,0.06,0.01,0.09,0.01c0.22,0.03,0.43,0.08,0.63,0.15c0.03,0.01,0.06,0.02,0.09,0.03
			c0.03,0.01,0.06,0.02,0.09,0.03c0.06,0.02,0.12,0.05,0.17,0.07c0.03,0.01,0.07,0.03,0.1,0.05c0.03,0.01,0.06,0.03,0.09,0.04
			c0.06,0.03,0.11,0.06,0.16,0.09c0.06,0.04,0.12,0.07,0.18,0.11c0.05,0.03,0.09,0.06,0.13,0.09c0,0,0.01,0,0.01,0.01
			c0.03,0.02,0.06,0.04,0.09,0.07c0.09,0.07,0.17,0.14,0.25,0.22c0.02,0.02,0.05,0.05,0.07,0.07c0.02,0.02,0.04,0.05,0.07,0.07
			c0.04,0.05,0.09,0.1,0.13,0.15C782.65,903.76,782.87,904.31,782.87,904.91z"/>
		<path class="st15" d="M712.6,915.37h-76.67c-1.65,0-3-1.23-3.09-2.76c0-0.05,0-0.1,0-0.15v-7.54c0-0.05,0-0.1,0-0.15
			c0.08-1.53,1.44-2.76,3.09-2.76h67.25c0.03,0.11,0.06,0.22,0.09,0.33C704.4,906.24,706.92,911.49,712.6,915.37z"/>
		<g>
			<rect x="763.83" y="902.01" class="st15" width="1.63" height="13.36"/>
			<rect x="758.33" y="902.01" class="st15" width="1.63" height="13.36"/>
			<rect x="751.72" y="902.01" class="st15" width="1.63" height="13.36"/>
			<rect x="741.6" y="902.01" class="st15" width="1.63" height="13.36"/>
			<rect x="730.9" y="902.01" class="st15" width="1.63" height="13.36"/>
			<rect x="714.5" y="902.01" class="st15" width="1.63" height="13.36"/>
			<rect x="699.14" y="902.01" class="st15" width="1.63" height="13.36"/>
			<rect x="685.42" y="902.01" class="st15" width="1.63" height="13.36"/>
			<rect x="769.07" y="902.01" class="st15" width="1.63" height="13.36"/>
			<rect x="772.54" y="902.01" class="st15" width="1.63" height="13.36"/>
			<rect x="775.88" y="902.01" class="st15" width="1.63" height="13.36"/>
			<path class="st15" d="M780.02,902.05v13.27c-0.2,0.03-0.4,0.05-0.61,0.05h-1.02v-13.36h1.02
				C779.62,902.01,779.82,902.02,780.02,902.05z"/>
			<path class="st15" d="M782.28,903.29v10.79c-0.39,0.49-0.96,0.87-1.62,1.09V902.2C781.32,902.42,781.88,902.8,782.28,903.29z"/>
		</g>
	</g>
	<g>
		<path class="st9" d="M793.69,918.25v7.54c0,0.6-0.22,1.16-0.59,1.62c-0.39,0.49-0.96,0.87-1.62,1.09
			c-0.2,0.07-0.42,0.12-0.63,0.15c-0.2,0.03-0.4,0.05-0.61,0.05h-143.1c-1.84,0-3.36-1.23-3.46-2.76c0-0.05,0-0.1,0-0.15v-7.54
			c0-0.05,0-0.1,0-0.15c0.09-1.53,1.61-2.76,3.46-2.76h143.1c0.09,0,0.18,0,0.27,0.01c0.04,0,0.08,0,0.12,0.01
			c0.04,0,0.09,0.01,0.13,0.01c0.03,0,0.06,0.01,0.09,0.01c0.22,0.03,0.43,0.08,0.63,0.15c0.03,0.01,0.06,0.02,0.09,0.03
			c0.03,0.01,0.06,0.02,0.09,0.03c0.06,0.02,0.12,0.05,0.17,0.07c0.03,0.01,0.07,0.03,0.1,0.05c0.03,0.01,0.06,0.03,0.09,0.04
			c0.06,0.03,0.11,0.06,0.16,0.09c0.06,0.04,0.12,0.07,0.18,0.11c0.05,0.03,0.09,0.06,0.13,0.09c0,0,0.01,0,0.01,0.01
			c0.03,0.02,0.06,0.04,0.09,0.07c0.09,0.07,0.17,0.14,0.25,0.22c0.02,0.02,0.05,0.05,0.07,0.07c0.02,0.02,0.04,0.05,0.07,0.07
			c0.04,0.05,0.09,0.1,0.13,0.15C793.48,917.09,793.69,917.65,793.69,918.25z"/>
		<path class="st15" d="M723.42,928.71h-76.67c-1.65,0-3-1.23-3.09-2.76c0-0.05,0-0.1,0-0.15v-7.54c0-0.05,0-0.1,0-0.15
			c0.08-1.53,1.44-2.76,3.09-2.76h67.25c0.03,0.11,0.06,0.22,0.09,0.33C715.22,919.58,717.74,924.83,723.42,928.71z"/>
		<g>
			<rect x="774.65" y="915.35" class="st15" width="1.63" height="13.36"/>
			<rect x="769.15" y="915.35" class="st15" width="1.63" height="13.36"/>
			<rect x="762.55" y="915.35" class="st15" width="1.63" height="13.36"/>
			<rect x="752.43" y="915.35" class="st15" width="1.63" height="13.36"/>
			<rect x="741.73" y="915.35" class="st15" width="1.63" height="13.36"/>
			<rect x="725.32" y="915.35" class="st15" width="1.63" height="13.36"/>
			<rect x="709.96" y="915.35" class="st15" width="1.63" height="13.36"/>
			<rect x="696.24" y="915.35" class="st15" width="1.63" height="13.36"/>
			<rect x="779.89" y="915.35" class="st15" width="1.63" height="13.36"/>
			<rect x="783.36" y="915.35" class="st15" width="1.63" height="13.36"/>
			<rect x="786.7" y="915.35" class="st15" width="1.63" height="13.36"/>
			<path class="st15" d="M790.84,915.39v13.27c-0.2,0.03-0.4,0.05-0.61,0.05h-1.02v-13.36h1.02
				C790.44,915.35,790.64,915.36,790.84,915.39z"/>
			<path class="st15" d="M793.1,916.63v10.79c-0.39,0.49-0.96,0.87-1.62,1.09v-12.97C792.14,915.76,792.71,916.14,793.1,916.63z"/>
		</g>
	</g>
	<g>
		<path class="st9" d="M782.36,958v7.54c0,0.6-0.22,1.16-0.59,1.62c-0.39,0.49-0.96,0.87-1.62,1.09c-0.2,0.07-0.42,0.12-0.63,0.15
			c-0.2,0.03-0.4,0.05-0.61,0.05h-143.1c-1.85,0-3.36-1.23-3.46-2.76c0-0.05,0-0.1,0-0.15V958c0-0.05,0-0.1,0-0.15
			c0.09-1.53,1.61-2.76,3.46-2.76h143.1c0.09,0,0.18,0,0.27,0.01c0.04,0,0.08,0,0.12,0.01c0.04,0,0.09,0.01,0.13,0.01
			c0.03,0,0.06,0.01,0.09,0.01c0.22,0.03,0.43,0.08,0.63,0.15c0.03,0.01,0.06,0.02,0.09,0.03c0.03,0.01,0.06,0.02,0.09,0.03
			c0.06,0.02,0.12,0.05,0.17,0.07c0.03,0.01,0.07,0.03,0.1,0.05c0.03,0.01,0.06,0.03,0.09,0.04c0.06,0.03,0.11,0.06,0.16,0.09
			c0.06,0.04,0.12,0.07,0.18,0.11c0.05,0.03,0.09,0.06,0.13,0.09c0,0,0.01,0,0.01,0.01c0.03,0.02,0.06,0.04,0.09,0.07
			c0.09,0.07,0.17,0.14,0.25,0.22c0.02,0.02,0.05,0.05,0.07,0.07c0.02,0.02,0.04,0.05,0.07,0.07c0.04,0.05,0.09,0.1,0.13,0.15
			C782.14,956.85,782.36,957.4,782.36,958z"/>
		<path class="st15" d="M712.09,968.46h-76.67c-1.65,0-3-1.23-3.09-2.76c0-0.05,0-0.1,0-0.15V958c0-0.05,0-0.1,0-0.15
			c0.08-1.53,1.44-2.76,3.09-2.76h67.25c0.03,0.11,0.06,0.22,0.09,0.33C703.89,959.33,706.41,964.58,712.09,968.46z"/>
		<g>
			<rect x="763.32" y="955.1" class="st15" width="1.63" height="13.36"/>
			<rect x="757.81" y="955.1" class="st15" width="1.63" height="13.36"/>
			<rect x="751.21" y="955.1" class="st15" width="1.63" height="13.36"/>
			<rect x="741.09" y="955.1" class="st15" width="1.63" height="13.36"/>
			<rect x="730.39" y="955.1" class="st15" width="1.63" height="13.36"/>
			<rect x="713.99" y="955.1" class="st15" width="1.63" height="13.36"/>
			<rect x="698.63" y="955.1" class="st15" width="1.63" height="13.36"/>
			<rect x="684.91" y="955.1" class="st15" width="1.63" height="13.36"/>
			<rect x="768.56" y="955.1" class="st15" width="1.63" height="13.36"/>
			<rect x="772.02" y="955.1" class="st15" width="1.63" height="13.36"/>
			<rect x="775.37" y="955.1" class="st15" width="1.63" height="13.36"/>
			<path class="st15" d="M779.51,955.14v13.27c-0.2,0.03-0.4,0.05-0.61,0.05h-1.02V955.1h1.02
				C779.11,955.1,779.31,955.11,779.51,955.14z"/>
			<path class="st15" d="M781.77,956.38v10.79c-0.39,0.49-0.96,0.87-1.62,1.09v-12.97C780.81,955.51,781.37,955.89,781.77,956.38z"
				/>
		</g>
	</g>
	<g>
		<path class="st9" d="M789.93,931.61v7.54c0,0.6-0.22,1.16-0.59,1.62c-0.39,0.49-0.96,0.87-1.62,1.09
			c-0.2,0.07-0.42,0.12-0.63,0.15c-0.2,0.03-0.4,0.05-0.61,0.05h-143.1c-1.84,0-3.36-1.23-3.46-2.76c0-0.05,0-0.1,0-0.15v-7.54
			c0-0.05,0-0.1,0-0.15c0.09-1.53,1.61-2.76,3.46-2.76h143.1c0.09,0,0.18,0,0.27,0.01c0.04,0,0.08,0,0.12,0.01
			c0.04,0,0.09,0.01,0.13,0.01c0.03,0,0.06,0.01,0.09,0.01c0.22,0.03,0.43,0.08,0.63,0.15c0.03,0.01,0.06,0.02,0.09,0.03
			c0.03,0.01,0.06,0.02,0.09,0.03c0.06,0.02,0.12,0.05,0.17,0.07c0.03,0.01,0.07,0.03,0.1,0.05c0.03,0.01,0.06,0.03,0.09,0.04
			c0.06,0.03,0.11,0.06,0.16,0.09c0.06,0.04,0.12,0.07,0.18,0.11c0.05,0.03,0.09,0.06,0.13,0.09c0,0,0.01,0,0.01,0.01
			c0.03,0.02,0.06,0.04,0.09,0.07c0.09,0.07,0.17,0.14,0.25,0.22c0.02,0.02,0.05,0.05,0.07,0.07c0.02,0.02,0.04,0.05,0.07,0.07
			c0.04,0.05,0.09,0.1,0.13,0.15C789.71,930.45,789.93,931.01,789.93,931.61z"/>
		<path class="st15" d="M719.66,942.07h-76.67c-1.65,0-3-1.23-3.09-2.76c0-0.05,0-0.1,0-0.15v-7.54c0-0.05,0-0.1,0-0.15
			c0.08-1.53,1.44-2.76,3.09-2.76h67.25c0.03,0.11,0.06,0.22,0.09,0.33C711.46,932.94,713.98,938.19,719.66,942.07z"/>
		<g>
			<rect x="770.89" y="928.71" class="st15" width="1.63" height="13.36"/>
			<rect x="765.38" y="928.71" class="st15" width="1.63" height="13.36"/>
			<rect x="758.78" y="928.71" class="st15" width="1.63" height="13.36"/>
			<rect x="748.66" y="928.71" class="st15" width="1.63" height="13.36"/>
			<rect x="737.96" y="928.71" class="st15" width="1.63" height="13.36"/>
			<rect x="721.56" y="928.71" class="st15" width="1.63" height="13.36"/>
			<rect x="706.2" y="928.71" class="st15" width="1.63" height="13.36"/>
			<rect x="692.48" y="928.71" class="st15" width="1.63" height="13.36"/>
			<rect x="776.13" y="928.71" class="st15" width="1.63" height="13.36"/>
			<rect x="779.59" y="928.71" class="st15" width="1.63" height="13.36"/>
			<rect x="782.94" y="928.71" class="st15" width="1.63" height="13.36"/>
			<path class="st15" d="M787.08,928.75v13.27c-0.2,0.03-0.4,0.05-0.61,0.05h-1.02v-13.36h1.02
				C786.68,928.71,786.88,928.72,787.08,928.75z"/>
			<path class="st15" d="M789.34,929.99v10.79c-0.39,0.49-0.96,0.87-1.62,1.09V928.9C788.38,929.12,788.94,929.5,789.34,929.99z"/>
		</g>
	</g>
</g>
<g>
	<g>
		<path class="st16" d="M484.9,984.72v7.54c0,0.6-0.22,1.16-0.59,1.62c-0.39,0.49-0.96,0.87-1.63,1.09
			c-0.2,0.07-0.42,0.12-0.63,0.15c-0.2,0.03-0.4,0.05-0.61,0.05h-143.1c-1.85,0-3.36-1.23-3.46-2.76c0-0.05,0-0.1,0-0.15v-7.54
			c0-0.05,0-0.1,0-0.15c0.09-1.53,1.61-2.76,3.46-2.76h143.1c0.21,0,0.41,0.02,0.61,0.05c0.22,0.03,0.43,0.08,0.63,0.15
			c0.66,0.22,1.23,0.6,1.63,1.09C484.68,983.56,484.9,984.12,484.9,984.72z"/>
		<path class="st17" d="M414.63,995.18h-76.67c-1.65,0-3-1.23-3.09-2.76c0-0.05,0-0.1,0-0.15v-7.54c0-0.05,0-0.1,0-0.15
			c0.08-1.53,1.44-2.76,3.09-2.76h67.25C406.29,985.75,408.79,991.19,414.63,995.18z"/>
		<g>
			<rect x="465.86" y="981.82" class="st17" width="1.63" height="13.36"/>
			<rect x="460.36" y="981.82" class="st17" width="1.63" height="13.36"/>
			<rect x="453.76" y="981.82" class="st17" width="1.63" height="13.36"/>
			<rect x="443.64" y="981.82" class="st17" width="1.63" height="13.36"/>
			<rect x="432.93" y="981.82" class="st17" width="1.63" height="13.36"/>
			<rect x="416.53" y="981.82" class="st17" width="1.63" height="13.36"/>
			<rect x="401.17" y="981.82" class="st17" width="1.63" height="13.36"/>
			<rect x="387.45" y="981.82" class="st17" width="1.63" height="13.36"/>
			<rect x="471.1" y="981.82" class="st17" width="1.63" height="13.36"/>
			<rect x="474.57" y="981.82" class="st17" width="1.63" height="13.36"/>
			<rect x="477.91" y="981.82" class="st17" width="1.63" height="13.36"/>
			<path class="st17" d="M482.05,981.86v13.27c-0.2,0.03-0.4,0.05-0.61,0.05h-1.02v-13.36h1.02
				C481.65,981.82,481.85,981.83,482.05,981.86z"/>
			<path class="st17" d="M484.31,983.1v10.79c-0.39,0.49-0.96,0.87-1.63,1.09v-12.97C483.35,982.23,483.92,982.61,484.31,983.1z"/>
		</g>
	</g>
	<g>
		<path class="st9" d="M492,971.36v7.54c0,0.6-0.22,1.16-0.59,1.62c-0.39,0.49-0.96,0.87-1.62,1.09c-0.2,0.07-0.42,0.12-0.63,0.15
			c-0.2,0.03-0.4,0.05-0.61,0.05h-143.1c-1.85,0-3.36-1.23-3.46-2.76c0-0.05,0-0.1,0-0.15v-7.54c0-0.05,0-0.1,0-0.15
			c0.09-1.53,1.61-2.76,3.46-2.76h143.1c0.09,0,0.18,0,0.27,0.01c0.04,0,0.08,0,0.12,0.01c0.04,0,0.09,0.01,0.13,0.01
			c0.03,0,0.06,0.01,0.09,0.01c0.22,0.03,0.43,0.08,0.63,0.15c0.03,0.01,0.06,0.02,0.09,0.03c0.03,0.01,0.06,0.02,0.09,0.03
			c0.06,0.02,0.12,0.05,0.17,0.07c0.03,0.01,0.07,0.03,0.1,0.05c0.03,0.01,0.06,0.03,0.09,0.04c0.06,0.03,0.11,0.06,0.16,0.09
			c0.06,0.04,0.12,0.07,0.18,0.11c0.05,0.03,0.09,0.06,0.13,0.09c0,0,0.01,0,0.01,0.01c0.03,0.02,0.06,0.04,0.09,0.07
			c0.09,0.07,0.17,0.14,0.25,0.22c0.02,0.02,0.05,0.05,0.07,0.07c0.02,0.02,0.04,0.05,0.07,0.07c0.04,0.05,0.09,0.1,0.13,0.15
			C491.78,970.2,492,970.76,492,971.36z"/>
		<path class="st15" d="M421.72,981.82h-76.67c-1.65,0-3-1.23-3.09-2.76c0-0.05,0-0.1,0-0.15v-7.54c0-0.05,0-0.1,0-0.15
			c0.08-1.53,1.44-2.76,3.09-2.76h67.25c0.03,0.11,0.06,0.22,0.09,0.33C413.52,972.69,416.05,977.94,421.72,981.82z"/>
		<g>
			<rect x="472.96" y="968.46" class="st15" width="1.63" height="13.36"/>
			<rect x="467.45" y="968.46" class="st15" width="1.63" height="13.36"/>
			<rect x="460.85" y="968.46" class="st15" width="1.63" height="13.36"/>
			<rect x="450.73" y="968.46" class="st15" width="1.63" height="13.36"/>
			<rect x="440.03" y="968.46" class="st15" width="1.63" height="13.36"/>
			<rect x="423.62" y="968.46" class="st15" width="1.63" height="13.36"/>
			<rect x="408.26" y="968.46" class="st15" width="1.63" height="13.36"/>
			<rect x="394.55" y="968.46" class="st15" width="1.63" height="13.36"/>
			<rect x="478.2" y="968.46" class="st15" width="1.63" height="13.36"/>
			<rect x="481.66" y="968.46" class="st15" width="1.63" height="13.36"/>
			<rect x="485" y="968.46" class="st15" width="1.63" height="13.36"/>
			<path class="st15" d="M489.14,968.5v13.27c-0.2,0.03-0.4,0.05-0.61,0.05h-1.02v-13.36h1.02
				C488.74,968.46,488.95,968.47,489.14,968.5z"/>
			<path class="st15" d="M491.4,969.74v10.79c-0.39,0.49-0.96,0.87-1.62,1.09v-12.97C490.44,968.87,491.01,969.25,491.4,969.74z"/>
		</g>
	</g>
	<g>
		<path class="st9" d="M479.21,891.98v7.54c0,0.6-0.22,1.16-0.59,1.62c-0.39,0.49-0.96,0.87-1.62,1.09
			c-0.2,0.07-0.42,0.12-0.63,0.15c-0.2,0.03-0.4,0.05-0.61,0.05h-143.1c-1.85,0-3.36-1.23-3.46-2.76c0-0.05,0-0.1,0-0.15v-7.54
			c0-0.05,0-0.1,0-0.15c0.09-1.53,1.61-2.76,3.46-2.76h143.1c0.09,0,0.18,0,0.27,0.01c0.04,0,0.08,0,0.12,0.01
			c0.04,0,0.09,0.01,0.13,0.01c0.03,0,0.06,0.01,0.09,0.01c0.22,0.03,0.43,0.08,0.63,0.15c0.03,0.01,0.06,0.02,0.09,0.03
			c0.03,0.01,0.06,0.02,0.09,0.03c0.06,0.02,0.12,0.05,0.17,0.07c0.03,0.01,0.07,0.03,0.1,0.05c0.03,0.01,0.06,0.03,0.09,0.04
			c0.06,0.03,0.11,0.06,0.16,0.09c0.06,0.04,0.12,0.07,0.18,0.11c0.05,0.03,0.09,0.06,0.13,0.09c0,0,0.01,0,0.01,0.01
			c0.03,0.02,0.06,0.04,0.09,0.07c0.09,0.07,0.17,0.14,0.25,0.22c0.02,0.02,0.05,0.05,0.07,0.07c0.02,0.02,0.04,0.05,0.07,0.07
			c0.04,0.05,0.09,0.1,0.13,0.15C478.99,890.82,479.21,891.38,479.21,891.98z"/>
		<path class="st15" d="M408.94,902.43h-76.67c-1.65,0-3-1.23-3.09-2.76c0-0.05,0-0.1,0-0.15v-7.54c0-0.05,0-0.1,0-0.15
			c0.08-1.53,1.44-2.76,3.09-2.76h67.25c0.03,0.11,0.06,0.22,0.09,0.33C400.74,893.3,403.26,898.56,408.94,902.43z"/>
		<g>
			<rect x="460.17" y="889.07" class="st15" width="1.63" height="13.36"/>
			<rect x="454.67" y="889.07" class="st15" width="1.63" height="13.36"/>
			<rect x="448.06" y="889.07" class="st15" width="1.63" height="13.36"/>
			<rect x="437.94" y="889.07" class="st15" width="1.63" height="13.36"/>
			<rect x="427.24" y="889.07" class="st15" width="1.63" height="13.36"/>
			<rect x="410.84" y="889.07" class="st15" width="1.63" height="13.36"/>
			<rect x="395.48" y="889.07" class="st15" width="1.63" height="13.36"/>
			<rect x="381.76" y="889.07" class="st15" width="1.63" height="13.36"/>
			<rect x="465.41" y="889.07" class="st15" width="1.63" height="13.36"/>
			<rect x="468.87" y="889.07" class="st15" width="1.63" height="13.36"/>
			<rect x="472.22" y="889.07" class="st15" width="1.63" height="13.36"/>
			<path class="st15" d="M476.36,889.12v13.27c-0.2,0.03-0.4,0.05-0.61,0.05h-1.02v-13.36h1.02
				C475.96,889.07,476.16,889.09,476.36,889.12z"/>
			<path class="st15" d="M478.62,890.36v10.79c-0.39,0.49-0.96,0.87-1.62,1.09v-12.97C477.66,889.48,478.22,889.87,478.62,890.36z"
				/>
		</g>
	</g>
	<g>
		<path class="st9" d="M492.75,905.01v7.54c0,0.6-0.22,1.16-0.59,1.62c-0.39,0.49-0.96,0.87-1.62,1.09
			c-0.2,0.07-0.42,0.12-0.63,0.15c-0.2,0.03-0.4,0.05-0.61,0.05h-143.1c-1.85,0-3.36-1.23-3.46-2.76c0-0.05,0-0.1,0-0.15v-7.54
			c0-0.05,0-0.1,0-0.15c0.09-1.53,1.61-2.76,3.46-2.76h143.1c0.09,0,0.18,0,0.27,0.01c0.04,0,0.08,0,0.12,0.01
			c0.04,0,0.09,0.01,0.13,0.01c0.03,0,0.06,0.01,0.09,0.01c0.22,0.03,0.43,0.08,0.63,0.15c0.03,0.01,0.06,0.02,0.09,0.03
			c0.03,0.01,0.06,0.02,0.09,0.03c0.06,0.02,0.12,0.05,0.17,0.07c0.03,0.01,0.07,0.03,0.1,0.05c0.03,0.01,0.06,0.03,0.09,0.04
			c0.06,0.03,0.11,0.06,0.16,0.09c0.06,0.04,0.12,0.07,0.18,0.11c0.05,0.03,0.09,0.06,0.13,0.09c0,0,0.01,0,0.01,0.01
			c0.03,0.02,0.06,0.04,0.09,0.07c0.09,0.07,0.17,0.14,0.25,0.22c0.02,0.02,0.05,0.05,0.07,0.07c0.02,0.02,0.04,0.05,0.07,0.07
			c0.04,0.05,0.09,0.1,0.13,0.15C492.53,903.85,492.75,904.41,492.75,905.01z"/>
		<path class="st15" d="M422.48,915.46h-76.67c-1.65,0-3-1.23-3.09-2.76c0-0.05,0-0.1,0-0.15v-7.54c0-0.05,0-0.1,0-0.15
			c0.08-1.53,1.44-2.76,3.09-2.76h67.25c0.03,0.11,0.06,0.22,0.09,0.33C414.28,906.33,416.8,911.59,422.48,915.46z"/>
		<g>
			<rect x="473.71" y="902.1" class="st15" width="1.63" height="13.36"/>
			<rect x="468.21" y="902.1" class="st15" width="1.63" height="13.36"/>
			<rect x="461.61" y="902.1" class="st15" width="1.63" height="13.36"/>
			<rect x="451.49" y="902.1" class="st15" width="1.63" height="13.36"/>
			<rect x="440.78" y="902.1" class="st15" width="1.63" height="13.36"/>
			<rect x="424.38" y="902.1" class="st15" width="1.63" height="13.36"/>
			<rect x="409.02" y="902.1" class="st15" width="1.63" height="13.36"/>
			<rect x="395.3" y="902.1" class="st15" width="1.63" height="13.36"/>
			<rect x="478.95" y="902.1" class="st15" width="1.63" height="13.36"/>
			<rect x="482.42" y="902.1" class="st15" width="1.63" height="13.36"/>
			<rect x="485.76" y="902.1" class="st15" width="1.63" height="13.36"/>
			<path class="st15" d="M489.9,902.15v13.27c-0.2,0.03-0.4,0.05-0.61,0.05h-1.02V902.1h1.02C489.5,902.1,489.7,902.12,489.9,902.15
				z"/>
			<path class="st15" d="M492.16,903.39v10.79c-0.39,0.49-0.96,0.87-1.62,1.09V902.3C491.2,902.51,491.77,902.9,492.16,903.39z"/>
		</g>
	</g>
	<g>
		<path class="st9" d="M487.4,918.37v7.54c0,0.6-0.22,1.16-0.59,1.62c-0.39,0.49-0.96,0.87-1.62,1.09c-0.2,0.07-0.42,0.12-0.63,0.15
			c-0.2,0.03-0.4,0.05-0.61,0.05h-143.1c-1.85,0-3.36-1.23-3.46-2.76c0-0.05,0-0.1,0-0.15v-7.54c0-0.05,0-0.1,0-0.15
			c0.09-1.53,1.61-2.76,3.46-2.76h143.1c0.09,0,0.18,0,0.27,0.01c0.04,0,0.08,0,0.12,0.01c0.04,0,0.09,0.01,0.13,0.01
			c0.03,0,0.06,0.01,0.09,0.01c0.22,0.03,0.43,0.08,0.63,0.15c0.03,0.01,0.06,0.02,0.09,0.03c0.03,0.01,0.06,0.02,0.09,0.03
			c0.06,0.02,0.12,0.05,0.17,0.07c0.03,0.01,0.07,0.03,0.1,0.05c0.03,0.01,0.06,0.03,0.09,0.04c0.06,0.03,0.11,0.06,0.16,0.09
			c0.06,0.04,0.12,0.07,0.18,0.11c0.05,0.03,0.09,0.06,0.13,0.09c0,0,0.01,0,0.01,0.01c0.03,0.02,0.06,0.04,0.09,0.07
			c0.09,0.07,0.17,0.14,0.25,0.22c0.02,0.02,0.05,0.05,0.07,0.07c0.02,0.02,0.04,0.05,0.07,0.07c0.04,0.05,0.09,0.1,0.13,0.15
			C487.18,917.21,487.4,917.77,487.4,918.37z"/>
		<path class="st15" d="M417.13,928.82h-76.67c-1.65,0-3-1.23-3.09-2.76c0-0.05,0-0.1,0-0.15v-7.54c0-0.05,0-0.1,0-0.15
			c0.08-1.53,1.44-2.76,3.09-2.76h67.25c0.03,0.11,0.06,0.22,0.09,0.33C408.93,919.69,411.45,924.95,417.13,928.82z"/>
		<g>
			<rect x="468.36" y="915.46" class="st15" width="1.63" height="13.36"/>
			<rect x="462.86" y="915.46" class="st15" width="1.63" height="13.36"/>
			<rect x="456.25" y="915.46" class="st15" width="1.63" height="13.36"/>
			<rect x="446.13" y="915.46" class="st15" width="1.63" height="13.36"/>
			<rect x="435.43" y="915.46" class="st15" width="1.63" height="13.36"/>
			<rect x="419.03" y="915.46" class="st15" width="1.63" height="13.36"/>
			<rect x="403.67" y="915.46" class="st15" width="1.63" height="13.36"/>
			<rect x="389.95" y="915.46" class="st15" width="1.63" height="13.36"/>
			<rect x="473.6" y="915.46" class="st15" width="1.63" height="13.36"/>
			<rect x="477.06" y="915.46" class="st15" width="1.63" height="13.36"/>
			<rect x="480.41" y="915.46" class="st15" width="1.63" height="13.36"/>
			<path class="st15" d="M484.55,915.51v13.27c-0.2,0.03-0.4,0.05-0.61,0.05h-1.02v-13.36h1.02
				C484.15,915.46,484.35,915.48,484.55,915.51z"/>
			<path class="st15" d="M486.81,916.75v10.79c-0.39,0.49-0.96,0.87-1.62,1.09v-12.97C485.85,915.87,486.41,916.26,486.81,916.75z"
				/>
		</g>
	</g>
	<g>
		<path class="st9" d="M485.3,931.64v7.54c0,0.6-0.22,1.16-0.59,1.62c-0.39,0.49-0.96,0.87-1.62,1.09c-0.2,0.07-0.42,0.12-0.63,0.15
			c-0.2,0.03-0.4,0.05-0.61,0.05h-143.1c-1.84,0-3.36-1.23-3.46-2.76c0-0.05,0-0.1,0-0.15v-7.54c0-0.05,0-0.1,0-0.15
			c0.09-1.53,1.61-2.76,3.46-2.76h143.1c0.09,0,0.18,0,0.27,0.01c0.04,0,0.08,0,0.12,0.01c0.04,0,0.09,0.01,0.13,0.01
			c0.03,0,0.06,0.01,0.09,0.01c0.22,0.03,0.43,0.08,0.63,0.15c0.03,0.01,0.06,0.02,0.09,0.03c0.03,0.01,0.06,0.02,0.09,0.03
			c0.06,0.02,0.12,0.05,0.17,0.07c0.03,0.01,0.07,0.03,0.1,0.05c0.03,0.01,0.06,0.03,0.09,0.04c0.06,0.03,0.11,0.06,0.16,0.09
			c0.06,0.04,0.12,0.07,0.18,0.11c0.05,0.03,0.09,0.06,0.13,0.09c0,0,0.01,0,0.01,0.01c0.03,0.02,0.06,0.04,0.09,0.07
			c0.09,0.07,0.17,0.14,0.25,0.22c0.02,0.02,0.05,0.05,0.07,0.07c0.02,0.02,0.04,0.05,0.07,0.07c0.04,0.05,0.09,0.1,0.13,0.15
			C485.08,930.48,485.3,931.03,485.3,931.64z"/>
		<path class="st15" d="M415.03,942.09h-76.67c-1.65,0-3-1.23-3.09-2.76c0-0.05,0-0.1,0-0.15v-7.54c0-0.05,0-0.1,0-0.15
			c0.08-1.53,1.44-2.76,3.09-2.76h67.25c0.03,0.11,0.06,0.22,0.09,0.33C406.83,932.96,409.35,938.21,415.03,942.09z"/>
		<g>
			<rect x="466.26" y="928.73" class="st15" width="1.63" height="13.36"/>
			<rect x="460.75" y="928.73" class="st15" width="1.63" height="13.36"/>
			<rect x="454.15" y="928.73" class="st15" width="1.63" height="13.36"/>
			<rect x="444.03" y="928.73" class="st15" width="1.63" height="13.36"/>
			<rect x="433.33" y="928.73" class="st15" width="1.63" height="13.36"/>
			<rect x="416.92" y="928.73" class="st15" width="1.63" height="13.36"/>
			<rect x="401.56" y="928.73" class="st15" width="1.63" height="13.36"/>
			<rect x="387.85" y="928.73" class="st15" width="1.63" height="13.36"/>
			<rect x="471.5" y="928.73" class="st15" width="1.63" height="13.36"/>
			<rect x="474.96" y="928.73" class="st15" width="1.63" height="13.36"/>
			<rect x="478.3" y="928.73" class="st15" width="1.63" height="13.36"/>
			<path class="st15" d="M482.45,928.77v13.27c-0.2,0.03-0.4,0.05-0.61,0.05h-1.02v-13.36h1.02
				C482.05,928.73,482.25,928.74,482.45,928.77z"/>
			<path class="st15" d="M484.71,930.01v10.79c-0.39,0.49-0.96,0.87-1.62,1.09v-12.97C483.74,929.14,484.31,929.52,484.71,930.01z"
				/>
		</g>
	</g>
	<g>
		<path class="st9" d="M496.12,944.97v7.54c0,0.6-0.22,1.16-0.59,1.62c-0.39,0.49-0.96,0.87-1.62,1.09
			c-0.2,0.07-0.42,0.12-0.63,0.15c-0.2,0.03-0.4,0.05-0.61,0.05h-143.1c-1.85,0-3.36-1.23-3.46-2.76c0-0.05,0-0.1,0-0.15v-7.54
			c0-0.05,0-0.1,0-0.15c0.09-1.53,1.61-2.76,3.46-2.76h143.1c0.09,0,0.18,0,0.27,0.01c0.04,0,0.08,0,0.12,0.01
			c0.04,0,0.09,0.01,0.13,0.01c0.03,0,0.06,0.01,0.09,0.01c0.22,0.03,0.43,0.08,0.63,0.15c0.03,0.01,0.06,0.02,0.09,0.03
			c0.03,0.01,0.06,0.02,0.09,0.03c0.06,0.02,0.12,0.05,0.17,0.07c0.03,0.01,0.07,0.03,0.1,0.05c0.03,0.01,0.06,0.03,0.09,0.04
			c0.06,0.03,0.11,0.06,0.16,0.09c0.06,0.04,0.12,0.07,0.18,0.11c0.05,0.03,0.09,0.06,0.13,0.09c0,0,0.01,0,0.01,0.01
			c0.03,0.02,0.06,0.04,0.09,0.07c0.09,0.07,0.17,0.14,0.25,0.22c0.02,0.02,0.05,0.05,0.07,0.07c0.02,0.02,0.04,0.05,0.07,0.07
			c0.04,0.05,0.09,0.1,0.13,0.15C495.9,943.81,496.12,944.37,496.12,944.97z"/>
		<path class="st15" d="M425.85,955.43h-76.67c-1.65,0-3-1.23-3.09-2.76c0-0.05,0-0.1,0-0.15v-7.54c0-0.05,0-0.1,0-0.15
			c0.08-1.53,1.44-2.76,3.09-2.76h67.25c0.03,0.11,0.06,0.22,0.09,0.33C417.65,946.3,420.17,951.55,425.85,955.43z"/>
		<g>
			<rect x="477.08" y="942.07" class="st15" width="1.63" height="13.36"/>
			<rect x="471.58" y="942.07" class="st15" width="1.63" height="13.36"/>
			<rect x="464.97" y="942.07" class="st15" width="1.63" height="13.36"/>
			<rect x="454.85" y="942.07" class="st15" width="1.63" height="13.36"/>
			<rect x="444.15" y="942.07" class="st15" width="1.63" height="13.36"/>
			<rect x="427.75" y="942.07" class="st15" width="1.63" height="13.36"/>
			<rect x="412.39" y="942.07" class="st15" width="1.63" height="13.36"/>
			<rect x="398.67" y="942.07" class="st15" width="1.63" height="13.36"/>
			<rect x="482.32" y="942.07" class="st15" width="1.63" height="13.36"/>
			<rect x="485.78" y="942.07" class="st15" width="1.63" height="13.36"/>
			<rect x="489.13" y="942.07" class="st15" width="1.63" height="13.36"/>
			<path class="st15" d="M493.27,942.11v13.27c-0.2,0.03-0.4,0.05-0.61,0.05h-1.02v-13.36h1.02
				C492.87,942.07,493.07,942.08,493.27,942.11z"/>
			<path class="st15" d="M495.53,943.35v10.79c-0.39,0.49-0.96,0.87-1.62,1.09v-12.97C494.57,942.48,495.13,942.86,495.53,943.35z"
				/>
		</g>
	</g>
	<g>
		<path class="st9" d="M484.79,984.72v7.54c0,0.6-0.22,1.16-0.59,1.62c-0.39,0.49-0.96,0.87-1.62,1.09
			c-0.2,0.07-0.42,0.12-0.63,0.15c-0.2,0.03-0.4,0.05-0.61,0.05h-143.1c-1.85,0-3.36-1.23-3.46-2.76c0-0.05,0-0.1,0-0.15v-7.54
			c0-0.05,0-0.1,0-0.15c0.09-1.53,1.61-2.76,3.46-2.76h143.1c0.09,0,0.18,0,0.27,0.01c0.04,0,0.08,0,0.12,0.01
			c0.04,0,0.09,0.01,0.13,0.01c0.03,0,0.06,0.01,0.09,0.01c0.22,0.03,0.43,0.08,0.63,0.15c0.03,0.01,0.06,0.02,0.09,0.03
			c0.03,0.01,0.06,0.02,0.09,0.03c0.06,0.02,0.12,0.05,0.17,0.07c0.03,0.01,0.07,0.03,0.1,0.05c0.03,0.01,0.06,0.03,0.09,0.04
			c0.06,0.03,0.11,0.06,0.16,0.09c0.06,0.04,0.12,0.07,0.18,0.11c0.05,0.03,0.09,0.06,0.13,0.09c0,0,0.01,0,0.01,0.01
			c0.03,0.02,0.06,0.04,0.09,0.07c0.09,0.07,0.17,0.14,0.25,0.22c0.02,0.02,0.05,0.05,0.07,0.07c0.02,0.02,0.04,0.05,0.07,0.07
			c0.04,0.05,0.09,0.1,0.13,0.15C484.57,983.57,484.79,984.12,484.79,984.72z"/>
		<path class="st15" d="M414.51,995.18h-76.67c-1.65,0-3-1.23-3.09-2.76c0-0.05,0-0.1,0-0.15v-7.54c0-0.05,0-0.1,0-0.15
			c0.08-1.53,1.44-2.76,3.09-2.76h67.25c0.03,0.11,0.06,0.22,0.09,0.33C406.32,986.05,408.84,991.3,414.51,995.18z"/>
		<g>
			<rect x="465.75" y="981.82" class="st15" width="1.63" height="13.36"/>
			<rect x="460.24" y="981.82" class="st15" width="1.63" height="13.36"/>
			<rect x="453.64" y="981.82" class="st15" width="1.63" height="13.36"/>
			<rect x="443.52" y="981.82" class="st15" width="1.63" height="13.36"/>
			<rect x="432.82" y="981.82" class="st15" width="1.63" height="13.36"/>
			<rect x="416.41" y="981.82" class="st15" width="1.63" height="13.36"/>
			<rect x="401.05" y="981.82" class="st15" width="1.63" height="13.36"/>
			<rect x="387.34" y="981.82" class="st15" width="1.63" height="13.36"/>
			<rect x="470.99" y="981.82" class="st15" width="1.63" height="13.36"/>
			<rect x="474.45" y="981.82" class="st15" width="1.63" height="13.36"/>
			<rect x="477.79" y="981.82" class="st15" width="1.63" height="13.36"/>
			<path class="st15" d="M481.93,981.86v13.27c-0.2,0.03-0.4,0.05-0.61,0.05h-1.02v-13.36h1.02
				C481.53,981.82,481.74,981.83,481.93,981.86z"/>
			<path class="st15" d="M484.19,983.1v10.79c-0.39,0.49-0.96,0.87-1.62,1.09v-12.97C483.23,982.23,483.8,982.61,484.19,983.1z"/>
		</g>
	</g>
	<g>
		<path class="st9" d="M492.36,958.33v7.54c0,0.6-0.22,1.16-0.59,1.62c-0.39,0.49-0.96,0.87-1.62,1.09
			c-0.2,0.07-0.42,0.12-0.63,0.15c-0.2,0.03-0.4,0.05-0.61,0.05h-143.1c-1.85,0-3.36-1.23-3.46-2.76c0-0.05,0-0.1,0-0.15v-7.54
			c0-0.05,0-0.1,0-0.15c0.09-1.53,1.61-2.76,3.46-2.76h143.1c0.09,0,0.18,0,0.27,0.01c0.04,0,0.08,0,0.12,0.01
			c0.04,0,0.09,0.01,0.13,0.01c0.03,0,0.06,0.01,0.09,0.01c0.22,0.03,0.43,0.08,0.63,0.15c0.03,0.01,0.06,0.02,0.09,0.03
			c0.03,0.01,0.06,0.02,0.09,0.03c0.06,0.02,0.12,0.05,0.17,0.07c0.03,0.01,0.07,0.03,0.1,0.05c0.03,0.01,0.06,0.03,0.09,0.04
			c0.06,0.03,0.11,0.06,0.16,0.09c0.06,0.04,0.12,0.07,0.18,0.11c0.05,0.03,0.09,0.06,0.13,0.09c0,0,0.01,0,0.01,0.01
			c0.03,0.02,0.06,0.04,0.09,0.07c0.09,0.07,0.17,0.14,0.25,0.22c0.02,0.02,0.05,0.05,0.07,0.07c0.02,0.02,0.04,0.05,0.07,0.07
			c0.04,0.05,0.09,0.1,0.13,0.15C492.14,957.17,492.36,957.73,492.36,958.33z"/>
		<path class="st15" d="M422.08,968.79h-76.67c-1.65,0-3-1.23-3.09-2.76c0-0.05,0-0.1,0-0.15v-7.54c0-0.05,0-0.1,0-0.15
			c0.08-1.53,1.44-2.76,3.09-2.76h67.25c0.03,0.11,0.06,0.22,0.09,0.33C413.89,959.66,416.41,964.91,422.08,968.79z"/>
		<g>
			<rect x="473.32" y="955.43" class="st15" width="1.63" height="13.36"/>
			<rect x="467.81" y="955.43" class="st15" width="1.63" height="13.36"/>
			<rect x="461.21" y="955.43" class="st15" width="1.63" height="13.36"/>
			<rect x="451.09" y="955.43" class="st15" width="1.63" height="13.36"/>
			<rect x="440.39" y="955.43" class="st15" width="1.63" height="13.36"/>
			<rect x="423.98" y="955.43" class="st15" width="1.63" height="13.36"/>
			<rect x="408.62" y="955.43" class="st15" width="1.63" height="13.36"/>
			<rect x="394.91" y="955.43" class="st15" width="1.63" height="13.36"/>
			<rect x="478.56" y="955.43" class="st15" width="1.63" height="13.36"/>
			<rect x="482.02" y="955.43" class="st15" width="1.63" height="13.36"/>
			<rect x="485.36" y="955.43" class="st15" width="1.63" height="13.36"/>
			<path class="st15" d="M489.5,955.47v13.27c-0.2,0.03-0.4,0.05-0.61,0.05h-1.02v-13.36h1.02
				C489.1,955.43,489.31,955.44,489.5,955.47z"/>
			<path class="st15" d="M491.76,956.71v10.79c-0.39,0.49-0.96,0.87-1.62,1.09v-12.97C490.8,955.84,491.37,956.22,491.76,956.71z"/>
		</g>
	</g>
</g>
<g>
	<path class="st9" d="M636.76,784.79c1.93-40.88,36.64-72.45,77.52-70.52c40.88,1.93,72.45,36.64,70.52,77.52
		c-1.93,40.88-36.64,72.45-77.52,70.52C666.4,860.38,634.83,825.67,636.76,784.79z"/>
	<g>
		<g>
			<path class="st15" d="M707.55,856.61c-18.01-0.85-34.62-8.67-46.75-22.01c-12.14-13.34-18.35-30.61-17.5-48.62
				c0.85-18.01,8.67-34.62,22.01-46.75c13.34-12.14,30.61-18.35,48.62-17.5c18.01,0.85,34.62,8.67,46.75,22.01
				c12.14,13.34,18.35,30.61,17.5,48.62c-0.85,18.01-8.67,34.62-22.01,46.75C742.83,851.25,725.56,857.46,707.55,856.61z
				 M713.74,725.75c-34.97-1.65-64.76,25.45-66.42,60.42c-1.65,34.97,25.45,64.76,60.42,66.42c34.97,1.65,64.76-25.45,66.42-60.42
				C775.81,757.2,748.71,727.41,713.74,725.75z"/>
		</g>
	</g>
	<path class="st15" d="M719.1,809.18c0.24-1.45,0.25-2.75,0.03-3.92c-0.22-1.17-0.72-2.28-1.5-3.33c-0.78-1.05-1.84-2.08-3.17-3.08
		c-1.34-1-3-2.04-5-3.12c-3.42-1.88-6.5-3.77-9.23-5.65c-2.73-1.89-5-3.92-6.81-6.1c-1.81-2.18-3.09-4.59-3.85-7.23
		c-0.76-2.64-0.86-5.65-0.3-9.02c0.49-2.93,1.45-5.51,2.89-7.75c1.44-2.24,3.27-4.09,5.5-5.56c2.23-1.47,4.78-2.54,7.65-3.21
		c2.87-0.67,6.01-0.88,9.39-0.64l1.85-11.05l8.9,1.48l-1.87,11.21c3.12,0.95,5.87,2.27,8.25,3.98c2.38,1.71,4.31,3.73,5.79,6.06
		c1.48,2.34,2.48,4.97,3,7.91c0.52,2.94,0.49,6.13-0.08,9.57l-16.07-2.68c0.69-4.13,0.29-7.38-1.2-9.73
		c-1.49-2.35-3.78-3.79-6.86-4.3c-1.67-0.28-3.14-0.29-4.43-0.02c-1.28,0.26-2.38,0.74-3.29,1.41c-0.91,0.68-1.65,1.54-2.2,2.58
		s-0.94,2.2-1.15,3.47c-0.21,1.27-0.22,2.46-0.02,3.55c0.2,1.1,0.68,2.16,1.44,3.19c0.76,1.03,1.83,2.06,3.2,3.08
		c1.37,1.03,3.1,2.14,5.19,3.33c3.37,1.94,6.41,3.87,9.12,5.77c2.71,1.9,4.97,3.95,6.78,6.15c1.81,2.2,3.09,4.61,3.85,7.25
		c0.76,2.64,0.86,5.63,0.3,8.97c-0.51,3.03-1.49,5.66-2.95,7.9c-1.46,2.23-3.3,4.07-5.52,5.5c-2.22,1.43-4.78,2.46-7.69,3.07
		c-2.9,0.61-6.05,0.79-9.44,0.55l-1.72,10.28l-8.84-1.48l1.71-10.23c-3.03-0.82-5.89-1.99-8.59-3.5c-2.7-1.51-5-3.43-6.9-5.74
		c-1.9-2.32-3.27-5.07-4.11-8.25c-0.84-3.18-0.92-6.84-0.23-10.97l16.07,2.68c-0.41,2.44-0.41,4.54,0.01,6.29
		c0.41,1.75,1.11,3.21,2.1,4.39c0.99,1.17,2.18,2.08,3.58,2.72c1.4,0.64,2.86,1.09,4.38,1.34c1.74,0.29,3.31,0.32,4.7,0.1
		c1.39-0.23,2.6-0.66,3.62-1.31c1.02-0.64,1.85-1.47,2.47-2.48C718.47,811.6,718.89,810.46,719.1,809.18z"/>
</g>
<g>
	<g>
		<path class="st9" d="M335.26,838.26c-13.48-38.64,6.92-80.9,45.56-94.38c38.64-13.48,80.9,6.92,94.38,45.56
			c13.48,38.64-6.92,80.9-45.56,94.38C390.99,897.3,348.74,876.9,335.26,838.26z"/>
		<g>
			<g>
				<path class="st15" d="M427.75,878.43c-17.03,5.94-35.35,4.89-51.59-2.95c-16.24-7.84-28.46-21.53-34.4-38.56
					c-5.94-17.03-4.89-35.35,2.95-51.59c7.84-16.24,21.53-28.46,38.56-34.4c17.03-5.94,35.35-4.89,51.59,2.95
					c16.24,7.84,28.46,21.53,34.4,38.56c5.94,17.03,4.89,35.35-2.95,51.59C458.47,860.27,444.78,872.48,427.75,878.43z
					 M384.6,754.73c-33.05,11.53-50.56,47.8-39.03,80.86c11.53,33.05,47.8,50.56,80.86,39.03c33.05-11.53,50.56-47.8,39.03-80.86
					S417.65,743.2,384.6,754.73z"/>
			</g>
		</g>
	</g>
	<path class="st15" d="M440.35,812.38c-3-2.73-6.93-4.07-11.78-4c3.17-2.05,5.38-4.62,6.63-7.69s1.54-6.32,0.86-9.77
		c-1.34-6.81-4.83-11.46-10.47-13.94c-4.92-2.16-11.06-2.72-18.41-1.67l-2.01-10.22l-7.81,1.54l2,10.13l-5.37,1.06l-2-10.13
		l-7.81,1.54l2,10.13l-6.89,1.36l0.02,0.09l-10.97,2.16l2.21,11.23l10.97-2.16l10.36,52.58l-10.97,2.16l2.21,11.23l10.97-2.16l0,0
		l6.89-1.36l1.59,8.07l7.81-1.54l-1.59-8.07l5.37-1.06l1.59,8.07l7.81-1.54l-1.59-8.07l1.16-0.23c8.7-1.71,15.06-4.89,19.08-9.52
		c4.02-4.63,5.32-10.54,3.9-17.73C445.28,818.61,443.35,815.12,440.35,812.38z M421.24,795.09c0.62,3.16,0.01,5.79-1.83,7.86
		c-1.84,2.08-4.78,3.51-8.8,4.31l-10.06,1.98l-3.91-19.86l9.55-1.88c4.33-0.85,7.75-0.67,10.27,0.55
		C418.95,789.27,420.55,791.61,421.24,795.09z M429.48,834.17c-1.76,2.15-4.63,3.62-8.62,4.41l-13.98,2.76l-4.27-21.67l13.83-2.73
		c4.16-0.82,7.47-0.45,9.92,1.1s4.03,4.16,4.75,7.8C431.77,829.24,431.23,832.02,429.48,834.17z"/>
</g>
</svg>
