<?xml version="1.0" encoding="utf-8"?>
<!-- Generator: Adobe Illustrator 23.1.0, SVG Export Plug-In . SVG Version: 6.00 Build 0)  -->
<svg version="1.1" id="Layer_1" xmlns="http://www.w3.org/2000/svg" xmlns:xlink="http://www.w3.org/1999/xlink" x="0px" y="0px"
	 viewBox="0 0 1133.86 1133.86" style="enable-background:new 0 0 1133.86 1133.86;" xml:space="preserve">
<style type="text/css">
	.st0{fill:none;stroke:#FCEE23;stroke-width:3;stroke-miterlimit:10;}
	.st1{fill:#FCEE23;}
	.st2{fill:#EF445C;}
	.st3{fill:#020202;}
	.st4{fill:#F9AF9F;}
	.st5{fill:#FFF200;}
	.st6{fill:#FFFFFF;}
	.st7{fill:#66BC46;}
	.st8{fill:#43A047;}
	.st9{fill:#EF4A60;}
</style>
<g>
	<circle class="st0" cx="147.64" cy="949.66" r="48.72"/>
	<polygon class="st1" points="147.64,919.12 157.12,938.33 178.32,941.41 162.98,956.37 166.6,977.49 147.64,967.52 128.67,977.49 
		132.29,956.37 116.95,941.41 138.15,938.33 	"/>
</g>
<path class="st2" d="M360.33,979.75l-0.8-230.25c0,0,1.24-85.85,72.43-103.11c71.19-17.26,87.45,51.58,87.45,51.58
	s46.67-78.7,138.67-68.65c92,10.05,132.55,48.51,132.55,48.51l76.95-21.97l68.01,7.68c0,0,56.16,13.28,63.34,45.2
	c7.18,31.92-45.05,271.02-45.05,271.02H836.64l1.26-33.24l-386.65-16.08l-1.52,49.32H360.33z"/>
<g>
	<path class="st3" d="M420.18,702.7c2.67-6.25,6.68-11.85,11.65-16.47c4.92-4.57,10.76-8.18,17.08-10.47
		c3.56-1.29,7.28-2.18,11.05-2.57c0.5-0.05,0.94-0.39,0.94-0.94c0-0.46-0.43-0.99-0.94-0.94c-7,0.74-13.77,2.99-19.86,6.5
		c-6.09,3.51-11.44,8.24-15.67,13.85c-2.35,3.11-4.32,6.5-5.86,10.08c-0.2,0.46-0.14,1,0.34,1.28
		C419.29,703.26,419.98,703.16,420.18,702.7L420.18,702.7z"/>
</g>
<g>
	<path class="st3" d="M441.72,851.27c18.4-1.05,36.8-2.1,55.2-3.15c18.31-1.04,36.61-2.09,54.92-3.13
		c10.33-0.59,20.65-1.18,30.98-1.77c1.2-0.07,1.2-1.94,0-1.87c-18.4,1.05-36.8,2.1-55.2,3.15c-18.31,1.04-36.61,2.09-54.92,3.13
		c-10.33,0.59-20.65,1.18-30.98,1.77C440.53,849.47,440.52,851.34,441.72,851.27L441.72,851.27z"/>
</g>
<g>
	<path class="st3" d="M911.33,804.36c-2.86,11.67-5.72,23.34-8.58,35.01c-2.86,11.67-5.72,23.34-8.58,35.01
		c-1.61,6.59-3.23,13.18-4.84,19.78c-0.29,1.17,1.52,1.67,1.8,0.5c2.86-11.67,5.72-23.34,8.58-35.01
		c2.86-11.67,5.72-23.34,8.58-35.01c1.61-6.59,3.23-13.18,4.84-19.78C913.42,803.69,911.62,803.19,911.33,804.36L911.33,804.36z"/>
</g>
<g>
	<path class="st3" d="M621.47,678.32c8.3,4.69,15.16,11.76,19.68,20.14c1.27,2.36,2.35,4.81,3.22,7.34
		c0.16,0.48,0.64,0.79,1.15,0.65c0.46-0.13,0.82-0.67,0.65-1.15c-1.61-4.67-3.88-9.11-6.73-13.14c-2.84-4.01-6.22-7.64-10.05-10.72
		c-2.19-1.76-4.52-3.35-6.97-4.74C621.36,676.11,620.42,677.73,621.47,678.32L621.47,678.32z"/>
</g>
<g>
	<path class="st3" d="M901.59,728.9c9.11,3.99,18.23,7.99,27.34,11.98c2.56,1.12,5.13,2.25,7.69,3.37c0.46,0.2,1,0.14,1.28-0.34
		c0.23-0.4,0.13-1.08-0.34-1.28c-9.11-3.99-18.23-7.99-27.34-11.98c-2.56-1.12-5.13-2.25-7.69-3.37c-0.46-0.2-1-0.14-1.28,0.34
		C901.02,728.01,901.13,728.69,901.59,728.9L901.59,728.9z"/>
</g>
<g>
	<path class="st3" d="M785.4,854.67c8.42,0.76,16.85,1.52,25.27,2.27c8.42,0.76,16.85,1.52,25.27,2.27
		c4.77,0.43,9.54,0.86,14.31,1.29c0.5,0.05,0.94-0.46,0.94-0.94c0-0.54-0.43-0.89-0.94-0.94c-8.42-0.76-16.85-1.52-25.27-2.27
		c-8.42-0.76-16.85-1.52-25.27-2.27c-4.77-0.43-9.54-0.86-14.31-1.29c-0.5-0.05-0.94,0.46-0.94,0.94
		C784.46,854.28,784.89,854.63,785.4,854.67L785.4,854.67z"/>
</g>
<g>
	<path class="st3" d="M997.84,730.54c0,0,14.75-10.95,11.06-23.4c-3.69-12.46-6.78-17.08-16.68-23.03
		c-9.91-5.95-13.22-9.36-14.68-16.97s3.58-14.04-12.14-19.9c-15.72-5.86-37.97,4.66-49.26,2.11s-18.96-8.96-32.16-3.91
		c-13.2,5.05-25.84,13.38-29.95,29.89c-4.11,16.51,13.56,18.23,13.56,18.23s34.47-18.19,36.25-18.12
		c1.31,0.06,30.27,43.86,64.92,57.65C978.96,737.16,997.84,730.54,997.84,730.54z"/>
	<polygon class="st4" points="828.19,700.24 867.26,675.44 879.85,689.98 847.6,713 	"/>
	<polygon class="st5" points="858.44,730.54 860.28,751.63 741.23,798.36 756.85,753.4 	"/>
	
		<ellipse transform="matrix(0.8076 -0.5897 0.5897 0.8076 -228.1475 650.1046)" class="st4" cx="882.34" cy="674.73" rx="26.26" ry="15.88"/>
	<path class="st6" d="M896.25,664.98c-0.75,2.4-3.92,4.41-3.92,4.41l-4.4-3.64c0,0,3.41-4.72,6.32-4.72
		C897.15,661.02,897.32,661.55,896.25,664.98z"/>
	<g>
		<path class="st3" d="M887.03,665.99c-0.27-0.11-0.01-0.01,0.04,0.02c0.05,0.02,0.1,0.05,0.15,0.07c0.12,0.05,0.23,0.11,0.35,0.17
			c0.23,0.11,0.45,0.24,0.66,0.37c0.11,0.07,0.21,0.14,0.31,0.21c0.06,0.04,0.27,0.16,0.03,0.02c0.05,0.03,0.09,0.07,0.13,0.11
			c0.21,0.17,0.41,0.36,0.59,0.56c0.1,0.11,0.2,0.22,0.29,0.33c0.04,0.05,0.08,0.1,0.12,0.15c-0.16-0.2,0.03,0.04,0.06,0.08
			c0.21,0.28,0.4,0.58,0.58,0.88c0.46,0.77,0.85,1.57,1.22,2.39c0.2,0.45,0.89,0.59,1.28,0.34c0.46-0.3,0.55-0.8,0.34-1.28
			c-0.68-1.51-1.46-3.04-2.61-4.25c-0.86-0.91-1.92-1.49-3.06-1.97c-0.45-0.19-1.05,0.2-1.15,0.65
			C886.25,665.38,886.54,665.78,887.03,665.99L887.03,665.99z"/>
	</g>
	<g>
		<path class="st3" d="M859.47,680.59c-1.34,4.2-0.12,9.04,3.02,12.12c0.86,0.84,2.18-0.48,1.32-1.32
			c-2.69-2.64-3.69-6.72-2.54-10.3C861.64,679.94,859.83,679.45,859.47,680.59L859.47,680.59z"/>
	</g>
	<g>
		<path class="st3" d="M881.53,662.91c-0.02,0.03-0.22,0.3-0.11,0.17c-0.07,0.09-0.16,0.18-0.24,0.26c-0.06,0.06-0.13,0.12-0.2,0.18
			c-0.08,0.07-0.09,0.08-0.02,0.02c-0.05,0.04-0.1,0.07-0.14,0.11c-0.35,0.25-0.71,0.46-1.07,0.69c-0.9,0.58-1.66,1.3-2.04,2.31
			c-0.37,1.01-0.04,2.14,0.8,2.8c0.76,0.6,1.7,0.76,2.63,0.88c0.49,0.06,0.96-0.47,0.94-0.94c-0.03-0.56-0.41-0.87-0.94-0.94
			c0.22,0.03-0.07-0.01-0.12-0.02c-0.08-0.01-0.16-0.03-0.25-0.04c-0.18-0.03-0.35-0.08-0.53-0.13c-0.08-0.02-0.16-0.05-0.23-0.08
			c-0.24-0.08,0.15,0.09-0.07-0.03c-0.07-0.04-0.14-0.07-0.21-0.12c-0.07-0.04-0.17-0.15-0.06-0.04c-0.02-0.02-0.21-0.22-0.14-0.13
			c0.07,0.09-0.06-0.11-0.08-0.13c-0.03-0.06-0.03-0.05,0.01,0.03c-0.02-0.05-0.04-0.11-0.05-0.17c-0.05-0.18-0.02,0.11,0-0.09
			c0.01-0.06,0.06-0.25,0-0.09c0.03-0.08,0.04-0.17,0.07-0.25c0.06-0.19-0.05,0.05,0.05-0.1c0.06-0.09,0.1-0.18,0.16-0.27
			c0.03-0.04,0.05-0.08,0.08-0.11c-0.04,0.05-0.04,0.06,0,0.01c0.07-0.08,0.15-0.16,0.22-0.24c0.07-0.07,0.14-0.13,0.21-0.19
			c0.14-0.13-0.06,0.04,0.1-0.08c0.31-0.22,0.63-0.41,0.95-0.62c0.73-0.46,1.41-0.98,1.87-1.73c0.25-0.42,0.11-1.05-0.34-1.28
			C882.36,662.33,881.81,662.46,881.53,662.91L881.53,662.91z"/>
	</g>
	<ellipse class="st3" cx="914.13" cy="662.43" rx="19.97" ry="15.19"/>
	<path class="st2" d="M869.12,671.93c-1.46,1.71-1.15,3.64,1.23,5.98c2.53,2.49,4.49,2.23,6.17,1.08c1.69-1.14,1.64-4.52-4.06-3.1
		C874.17,670.4,870.44,670.38,869.12,671.93z"/>
	<path class="st3" d="M892.54,665.73c-0.67,1.01-1.39,1.66-1.39,1.66l-1.87-2.02c0,0,1.93-2.04,3.32-1.85
		C893.98,663.7,892.99,665.04,892.54,665.73z"/>
	<path class="st6" d="M888.14,659.75c-0.67,2.13-3.48,3.91-3.48,3.91l-3.91-3.23c0,0,3.02-4.19,5.6-4.19S889.1,656.7,888.14,659.75z
		"/>
	<g>
		<path class="st3" d="M879.91,661.6c-0.22-0.02-0.01,0,0.04,0c0.04,0,0.09,0.01,0.13,0.01c0.1,0.01,0.2,0.03,0.3,0.04
			c0.19,0.03,0.39,0.07,0.58,0.12c0.1,0.02,0.19,0.05,0.28,0.08c0.05,0.02,0.24,0.05,0.03,0.01c0.04,0.01,0.08,0.03,0.12,0.05
			c0.2,0.08,0.39,0.17,0.57,0.28c0.1,0.06,0.2,0.11,0.29,0.18c0.04,0.03,0.09,0.06,0.13,0.08c-0.17-0.11,0.03,0.02,0.06,0.05
			c0.22,0.16,0.43,0.33,0.64,0.51c0.52,0.46,1,0.96,1.47,1.47c0.25,0.28,0.79,0.23,1.02-0.05c0.27-0.33,0.22-0.72-0.05-1.02
			c-0.86-0.96-1.79-1.9-2.93-2.53c-0.85-0.47-1.77-0.65-2.72-0.73c-0.38-0.03-0.73,0.4-0.7,0.75
			C879.19,661.33,879.51,661.56,879.91,661.6L879.91,661.6z"/>
	</g>
	<path class="st3" d="M884.88,660.62c-0.49,0.96-1.06,1.6-1.06,1.6l-1.85-1.6c0,0,1.5-1.99,2.74-1.96
		C885.95,658.69,885.21,659.98,884.88,660.62z"/>
	<polygon class="st4" points="710.86,728.47 816.64,730.54 816.64,691.53 691.13,709.47 	"/>
	<path class="st5" d="M847.6,701.5l-9.25-4.66c-11.07-5.57-23.85-6.69-35.72-3.13L693.1,726.58c2.53,3.64,4.75,5.89,4.75,5.89
		l43.39,65.89l126.58-67.82C868,712.14,847.6,701.5,847.6,701.5z"/>
	<path class="st3" d="M697.85,732.47l-26.78,2.95l-180.78-32.22c-10.66-1.9-21.64,0.52-30.52,6.72
		c-16.32,11.41,33.85,62.69,33.85,62.69s95.92,34.89,148.43,35.62c52.51,0.73,66.17,0.55,81.12-7.03l14.95-7.59L697.85,732.47z"/>
</g>
<g>
	<path class="st7" d="M289.86,652.54l16.44-22.92c18.89-26.33,30.25-57.51,32.7-89.75l4.16-54.69l-19.74,25.77
		c-28.18,36.78-40.91,83.48-35.15,129.01L289.86,652.54z"/>
	<path class="st7" d="M273,663.07l4.36-27.87c5-32.02,1.03-64.51-11.43-93.54l-21.15-49.24l-6.03,31.95
		c-8.61,45.61,1.2,92.18,27.09,128.63L273,663.07z"/>
	<path class="st8" d="M282.48,662.39l11.38-25.91c13.07-29.77,17.71-62.5,13.37-94.26l-7.38-53.86l-14.03,29.41
		c-20.03,41.98-22.76,90.06-7.55,132.8L282.48,662.39z"/>
</g>
<g>
	<polygon class="st5" points="236.24,619.15 241.24,730.39 308.72,731.91 327.57,623.36 	"/>
	<g>
		<rect x="268.55" y="727.17" class="st5" width="10.92" height="239.28"/>
		<polygon class="st5" points="308.58,979.75 240.5,979.75 256.81,963.39 292.28,963.39 		"/>
	</g>
</g>
<g>
	<path class="st4" d="M247.86,805.49c-1.6-1.23-85.36,16.65-85.36,16.65s7.24,9.4,20,12.31c12.76,2.91,86.43,7.31,86.43,7.31
		l17.33-21.92L247.86,805.49z"/>
	<g>
		<path class="st3" d="M231.74,829.91c-9.93-2.73-19.72-8.65-26.75-16.63c-21.28,4.34-42.48,8.87-42.48,8.87s7.24,9.4,20,12.31
			c12.76,2.91,86.43,7.31,86.43,7.31l11.53-14.58C264.57,831.06,247.83,834.34,231.74,829.91z"/>
		<path class="st3" d="M476.87,704.56l-11.47,1.86l-150.17,70.32l13.18,31.58l152.04-49.73l17.69-3.73
			C512.27,724.09,494.3,707.97,476.87,704.56z"/>
		<polygon class="st4" points="280.46,827.19 388.25,788.43 361.95,754.86 243.42,806.24 		"/>
	</g>
</g>
<path class="st4" d="M812.87,759.98l-61.58,47.16l-89.33,38.69c0,0-20.55,11.99-32.3,28.7c-8.83,12.55-13.78,42.61-8.66,37.49
	c5.12-5.12,16.98-34.9,17.07-32.81c0.09,2.09-14.08,38.23-8.66,38.36c5.42,0.13,22.51-31.91,22.51-31.91s-13.91,32.95-6.32,31.89
	c4.93-0.69,7.59-14.19,7.59-14.19l12.55-16.09l13.85-14.04c0,0,78.36-31.56,128.99-68.36c50.63-36.8,56.26-50.83,59.02-71.17
	c0.15-1.07,0.22-2.12,0.23-3.15l-6.06-3.55c-3.6-2.11-7.9-2.78-11.93-1.71c-0.1,0.03-0.2,0.05-0.29,0.08
	c-10.92,2.98-20.25,10.11-26.54,19.51L812.87,759.98z"/>
<g>
	<g>
		<path class="st3" d="M493.33,711.25c-4.14-4.68-10.24-7.27-16.47-6.68c-6.97,0.65-13.72,3.1-19.56,7.18
			c-16.32,11.4-43.98,31.77-73.47,53.75l40.71,40.71l69.55-35.9l2.22-3.13C508.43,750.09,507.19,726.93,493.33,711.25L493.33,711.25
			z"/>
		<path class="st4" d="M427,804.38l-40.71-40.71c-57.92,43.17-124.89,92.57-124.89,92.57c-1.93-0.59-74.12,45.5-74.12,45.5
			s10.07,6.27,23.05,4.52c12.97-1.75,83.52-23.42,83.52-23.42l5.69-17.69L427,804.38z"/>
	</g>
	<path class="st3" d="M254.86,884.76c-10.26,0.92-21.5-1.19-30.88-6.21c-18.41,11.52-36.69,23.19-36.69,23.19s10.07,6.27,23.05,4.52
		c12.97-1.75,83.52-23.42,83.52-23.42l5.69-17.69C286.02,874.34,271.48,883.28,254.86,884.76z"/>
</g>
<g>
	<path class="st6" d="M888.69,642.22c-1.95-0.57-29.35,18.15-29.35,18.15s17.17-7.88,31.37,1.37c14.19,9.25,17.85,32.37,17.85,32.37
		l21.46-7.74c0,0-7.44-25.85-18.71-36.81C900.57,639.12,888.69,642.22,888.69,642.22z"/>
	<path class="st4" d="M867.19,633.03c-9.22,0.23-24.78,8.68-30.33,11.87c-36.99,8.85-129.92,32.23-144.63,47.12
		c-12.78,12.93-4.86,27.87,1.21,35.82l163.96-66.56c0,0,29.36-1.84,29.14-6.86c-0.12-2.74-19.39-5.43-19.39-5.43
		s24.16,2.59,25.03-0.6c0.84-3.06-21.56-7.5-22.72-8.49c-1.16-0.99,21.61,5.93,27.56,4.3C902.97,642.55,880.46,632.69,867.19,633.03
		z"/>
</g>
<g>
	<g>
		<path class="st6" d="M850.89,806.04l-38.63-45.62l-13.93,9.68l39.74,46.82c3,3.54,8.31,3.97,11.85,0.97
			C853.46,814.88,853.89,809.58,850.89,806.04z"/>
		<path class="st2" d="M842.58,807.55l-36.45-42.71l-2.23,1.63l36.75,42.72c1.45,1.71,2.03,1.51,2.56,1.06
			C843.74,809.79,844.03,809.25,842.58,807.55z"/>
	</g>
	<g>
		
			<rect x="812.9" y="763.08" transform="matrix(0.5908 0.8068 -0.8068 0.5908 950.028 -343.4083)" class="st9" width="1.3" height="3.51"/>
		
			<rect x="817.46" y="768.58" transform="matrix(0.5908 0.8068 -0.8068 0.5908 956.3422 -344.9384)" class="st9" width="1.49" height="3.43"/>
		
			<rect x="821.81" y="773.74" transform="matrix(0.5908 0.8068 -0.8068 0.5908 962.2809 -346.2399)" class="st9" width="1.3" height="3.51"/>
		
			<rect x="826.38" y="779.24" transform="matrix(0.5908 0.8068 -0.8068 0.5908 968.5952 -347.77)" class="st9" width="1.49" height="3.43"/>
		
			<rect x="830.1" y="783.61" transform="matrix(0.5908 0.8068 -0.8068 0.5908 973.6332 -348.8853)" class="st9" width="1.3" height="3.51"/>
		
			<rect x="834.2" y="788.53" transform="matrix(0.5908 0.8068 -0.8068 0.5908 979.2866 -350.2742)" class="st9" width="1.49" height="3.43"/>
		
			<rect x="838.64" y="793.5" transform="matrix(0.5908 0.8068 -0.8068 0.5908 985.1176 -351.8196)" class="st9" width="1.49" height="3.43"/>
		
			<rect x="802.19" y="770.94" transform="matrix(0.6015 0.7989 -0.7989 0.6015 937.272 -333.4431)" class="st9" width="1.3" height="3.51"/>
		
			<rect x="806.83" y="776.38" transform="matrix(0.6015 0.7989 -0.7989 0.6015 943.4718 -335.0772)" class="st9" width="1.49" height="3.43"/>
		
			<rect x="811.25" y="781.49" transform="matrix(0.6015 0.7989 -0.7989 0.6015 949.3056 -336.4785)" class="st9" width="1.3" height="3.51"/>
		
			<rect x="815.89" y="786.92" transform="matrix(0.6015 0.7989 -0.7989 0.6015 955.5054 -338.1126)" class="st9" width="1.49" height="3.43"/>
		
			<rect x="819.67" y="791.24" transform="matrix(0.6015 0.7989 -0.7989 0.6015 960.4542 -339.3123)" class="st9" width="1.3" height="3.51"/>
		
			<rect x="823.83" y="796.1" transform="matrix(0.6015 0.7989 -0.7989 0.6015 966.0046 -340.7942)" class="st9" width="1.49" height="3.43"/>
		
			<rect x="828.33" y="801.02" transform="matrix(0.6015 0.7989 -0.7989 0.6015 971.7274 -342.4339)" class="st9" width="1.49" height="3.43"/>
	</g>
</g>
</svg>
