<?xml version="1.0" encoding="utf-8"?>
<!-- Generator: Adobe Illustrator 23.1.0, SVG Export Plug-In . SVG Version: 6.00 Build 0)  -->
<svg version="1.1" id="Layer_1" xmlns="http://www.w3.org/2000/svg" xmlns:xlink="http://www.w3.org/1999/xlink" x="0px" y="0px"
	 viewBox="0 0 1133.86 1133.86" style="enable-background:new 0 0 1133.86 1133.86;" xml:space="preserve">
<style type="text/css">
	.st0{fill:#F1ECE1;}
	.st1{fill:#FCEE23;}
	.st2{fill:#F9AF9F;}
	.st3{fill:#31313B;}
	.st4{fill:#EF445C;}
	.st5{fill:#FFFFFF;}
	.st6{fill:#010101;}
	.st7{fill:#ED2224;}
	.st8{fill:none;stroke:#31313B;stroke-width:1.5;stroke-linecap:round;stroke-miterlimit:10;}
	.st9{fill:none;stroke:#FCEE23;stroke-width:3;stroke-miterlimit:10;}
</style>
<g>
	<path class="st0" d="M551.92,936.03l-29.41,91.02c0,0,31.55-12.84,47.42-34.45c15.87-21.62,22.6-55.12,22.6-55.12L551.92,936.03z"
		/>
	<path class="st1" d="M512.49,485.42c0.58,3.88-0.32,88.93-0.32,88.93l48.9-23.8l-24.45-82.65L512.49,485.42z"/>
	<path class="st0" d="M624.3,937.34l49.08,77.77c0,0-29.12-5.46-48.4-20.9c-19.28-15.44-35.74-43.73-35.74-43.73L624.3,937.34z"/>
	<path class="st2" d="M571.75,956.36c-6.4,19.86-26.7,32.46-31.57,30.66c-5.62-2.08,9.75-45.6,9.75-45.6s14.37-12,22.61-8.57
		C580.79,936.27,576.41,941.89,571.75,956.36z"/>
	<path class="st2" d="M632.22,947.66c8.27,14.72,18.91,30.35,13.3,33.88c-4.2,2.65-20.64,0.06-34.47-20.57
		c-8.02-11.97-12.82-22.78-5.66-27.28C612.56,929.2,625.17,935.1,632.22,947.66z"/>
	<path class="st0" d="M531.79,509.92c0,0-13.09,65.79-13.09,165.83c0,61.57,22.65,278.56,22.65,278.56l54.97,3.71l42.77-9.24
		c0,0,20.15-229.48,23.72-268.36c5.05-54.95,0.2-150.21-12.33-168C637.94,494.62,531.79,509.92,531.79,509.92z"/>
	<path class="st1" d="M518.7,467.9c0.9,1.27,26.8,103.72,26.8,103.72l110.11-53.88l-41.04-99.93L518.7,467.9z"/>
	<polygon class="st0" points="620.04,212.32 615.61,386.69 744.04,363.13 746.59,185.12 	"/>
	<polygon class="st2" points="453.68,259.11 490.57,350.85 531.05,326.1 505.81,268.95 	"/>
	<polygon class="st3" points="669.57,325.31 667.46,268.3 674.31,242.75 683.25,263.82 685.11,307.01 	"/>
	<path class="st2" d="M644.06,334.83c0,0,6.74-6.16,11.28-18.64c5.22-14.35,8.49-35.46,11.29-38.58c5.24-5.83,2.15,36.38,2.15,36.38
		l15.42-19.31c0,0-0.21-8.48-0.02-22.1c16.68,6.56,0.93,44.95,0.93,44.95s23.04-33.51,28.13-31.25c5.13,2.28-22.6,43.24-22.6,43.24
		s28.6-27.47,31.13-25.38c6.8,5.62-40.49,58.34-40.49,58.34L644.06,334.83z"/>
	<path class="st2" d="M750.12,220.15c6.05-0.79,22.86-4.45,11.76,8.7c11.45,0.98,5.34,12.41-0.09,17.52
		c6.58,3.06-5.2,15.24-11.26,19.49c-5.16,3.61-18.41,19.59-21.73,10.95c-2.42-6.29,19.28-26.58,19.28-26.58s-22.04,7.8-22.78,1.47
		c-0.91-7.83,25-18.06,25-18.06s-27.43,8.14-27.57,0.12C722.62,227.26,741.25,221.31,750.12,220.15z"/>
	<path class="st1" d="M618.99,288.94c0,0-93.42,19.93-142.53,67.61s-98.13,152.43-86.04,173.64
		c12.09,21.21,53.29,10.74,116.53-19.39s178.15-147.31,178.15-147.31l-35.55-40.29l-32.68,36L618.99,288.94z"/>
	<polygon class="st4" points="673.58,241.09 670.99,254.97 679.61,253.86 	"/>
	<path class="st2" d="M515.65,232.17c7.81,23.52,9.32,43.19-8.3,49.03c-17.62,5.85-47.69-4.34-55.5-27.86
		c-7.81-23.52,0.15-47.33,17.77-53.18c10.85-3.6,22.83,0.45,32.26,9.59C507.76,215.45,512.65,223.13,515.65,232.17z"/>
	<polygon class="st2" points="524.86,235.51 512.79,241.16 502.48,216.41 	"/>
	<path class="st5" d="M485.84,237.51c0.08-1.13-6-11.04,1.9-15.03c7.9-3.99,14.44,5.17,14.44,5.17s-6.31,2.54-8.23,3.67
		C491.74,232.63,485.84,237.51,485.84,237.51z"/>
	
		<ellipse transform="matrix(0.6533 -0.7571 0.7571 0.6533 -11.7147 461.4977)" class="st4" cx="498" cy="243.54" rx="8.65" ry="6.22"/>
	
		<ellipse transform="matrix(0.7122 -0.7019 0.7019 0.7122 -19.055 411.4331)" class="st3" cx="492.28" cy="228.96" rx="2.45" ry="3.88"/>
	<path class="st6" d="M445.13,239.02c-1.57-8.91-0.45-28.63,13.31-36.82c10.24-6.09,21.52-3.35,21.52-3.35s-2.65,18.47-6.41,31.21
		c-6.31,21.4-17.28,34.79-17.28,34.79S447.45,252.21,445.13,239.02z"/>
	<path class="st6" d="M445.68,228.08c0,0,1.13,49.48-14.22,47.68s-16.47-59.22-16.47-59.22s-6.77,54.69-25.44,46.92
		c-12.61-5.25-9.7-59.35-9.7-59.35s-6.21,47.79-17.13,41.77s-5.25-84.54,16.24-85.98c22.18-1.49,17.12,33.89,17.12,33.89
		s6.32-30.9,24.37-26.44c18.05,4.46,12.58,45.16,12.58,45.16s5.45-25.04,15.74-22.07c10.29,2.97,9.56,34.28,9.56,34.28
		L445.68,228.08z"/>
	
		<ellipse transform="matrix(0.4794 -0.8776 0.8776 0.4794 27.1093 534.4742)" class="st2" cx="464.07" cy="244.39" rx="9.63" ry="12.48"/>
	<path class="st6" d="M460.57,201.07c6.2-1.75,13.2-4.69,22.68-2.83c12.97,2.55,18.63,11.51,18.63,11.51l-28.29,2.2L460.57,201.07z"
		/>
	<g>
		<g>
			<path class="st3" d="M502.09,227.34c-3.57,1.1-6.97,2.66-10.01,4.83c-3.04,2.17-5.67,4.84-8.14,7.64
				c-0.53,0.6,0.35,1.49,0.88,0.88c2.39-2.71,4.93-5.33,7.88-7.44c2.96-2.12,6.24-3.64,9.71-4.71
				C503.19,228.31,502.86,227.1,502.09,227.34L502.09,227.34z"/>
		</g>
	</g>
	<path class="st5" d="M500.33,256.66l19.27-13.12l1.2,9.73c0,0-0.55,10.17-8,9.68C505.33,262.46,500.33,256.66,500.33,256.66z"/>
	<g>
		<g>
			<path class="st3" d="M488.49,215.11c-4.12,0.43-7.74,3.26-9.13,7.17c-0.27,0.76,0.94,1.09,1.21,0.33
				c1.18-3.34,4.39-5.89,7.92-6.26c0.34-0.04,0.62-0.26,0.63-0.63C489.12,215.42,488.82,215.07,488.49,215.11L488.49,215.11z"/>
		</g>
	</g>
	<g>
		<g>
			<path class="st3" d="M460.26,242.41c2.78,2.18,5.55,4.35,8.33,6.53c0.27,0.21,0.62,0.26,0.88,0c0.22-0.21,0.27-0.68,0-0.88
				c-2.78-2.18-5.55-4.35-8.33-6.53c-0.27-0.21-0.62-0.26-0.88,0C460.04,241.74,459.99,242.2,460.26,242.41L460.26,242.41z"/>
		</g>
	</g>
	<g>
		<g>
			<path class="st3" d="M511.47,278.5c-4.74,2.83-10.42,3.37-15.82,2.89c-5.49-0.49-10.93-2.04-15.91-4.38
				c-0.72-0.34-1.36,0.74-0.63,1.08c5.19,2.45,10.82,4.04,16.54,4.55c5.62,0.5,11.53-0.12,16.45-3.06
				C512.79,279.16,512.16,278.08,511.47,278.5L511.47,278.5z"/>
		</g>
	</g>
	<g>
		<g>
			<path class="st3" d="M457.85,466.11c-5.52,8.75-11.04,17.5-16.57,26.25c-0.43,0.68,0.65,1.31,1.08,0.63
				c5.52-8.75,11.04-17.5,16.57-26.25C459.36,466.06,458.28,465.43,457.85,466.11L457.85,466.11z"/>
		</g>
	</g>
	<g>
		<g>
			<path class="st3" d="M565.56,340.47c5.05,4.71,10.1,9.43,15.15,14.14c0.59,0.55,1.47-0.33,0.88-0.88
				c-5.05-4.71-10.1-9.43-15.15-14.14C565.86,339.03,564.97,339.92,565.56,340.47L565.56,340.47z"/>
		</g>
	</g>
	<g>
		<g>
			<path class="st3" d="M600.01,471.06c-3.29,14.3-6.58,28.6-9.86,42.9c-0.18,0.78,1.02,1.12,1.21,0.33
				c3.29-14.3,6.58-28.6,9.86-42.9C601.4,470.61,600.19,470.28,600.01,471.06L600.01,471.06z"/>
		</g>
	</g>
	<g>
		<g>
			<path class="st3" d="M518.45,346.65c-9.03,8.92-18.07,17.84-27.1,26.76c-0.57,0.57,0.31,1.45,0.88,0.88
				c9.03-8.92,18.07-17.84,27.1-26.76C519.91,346.97,519.02,346.09,518.45,346.65L518.45,346.65z"/>
		</g>
	</g>
	<g>
		<g>
			<path class="st3" d="M567.08,390.65c-4.26,2.85-8.52,5.7-12.78,8.55c-6.84,4.57-13.67,9.15-20.51,13.72
				c-1.57,1.05-3.14,2.1-4.71,3.15c-0.67,0.45-0.04,1.53,0.63,1.08c4.26-2.85,8.52-5.7,12.78-8.55c6.84-4.57,13.67-9.15,20.51-13.72
				c1.57-1.05,3.14-2.1,4.71-3.15C568.37,391.29,567.75,390.21,567.08,390.65L567.08,390.65z"/>
		</g>
	</g>
	<g>
		<g>
			<path class="st3" d="M565.69,470.69c-4.28,3.27-8.56,6.55-12.84,9.82c-6.82,5.21-13.64,10.43-20.47,15.64
				c-1.56,1.19-3.13,2.39-4.69,3.58c-0.63,0.48-0.01,1.57,0.63,1.08c4.28-3.27,8.56-6.55,12.84-9.82
				c6.82-5.21,13.64-10.43,20.47-15.64c1.56-1.19,3.13-2.39,4.69-3.58C566.95,471.28,566.33,470.2,565.69,470.69L565.69,470.69z"/>
		</g>
	</g>
	<g>
		<g>
			<path class="st7" d="M647.27,243.5c-2.91-1.51-7.13-1.02-10.01,0.34c-3.42,1.62-6.37,4.99-6.04,8.97
				c0.29,3.56,2.91,6.7,6.15,8.05c3.92,1.63,8.46,0.67,12.04-1.36c4.51-2.57,7.66-6.86,10.59-11.02c0.46-0.66-0.62-1.28-1.08-0.63
				c-4.19,5.94-9.71,12.97-17.81,12.57c-3.56-0.17-6.96-2.36-8.22-5.77c-1.3-3.53,0.54-6.93,3.52-8.9c2.7-1.78,7.22-2.73,10.23-1.17
				C647.35,244.95,647.98,243.87,647.27,243.5L647.27,243.5z"/>
		</g>
	</g>
	<g>
		<g>
			<path class="st7" d="M648.03,244.39c-4.7-5.05-6.96-13.02-4.59-19.67c1.11-3.11,4.11-6.52,7.68-4.58c3.18,1.73,4.52,6,5.28,9.28
				c1.05,4.51,0.96,9.21-0.19,13.69c-0.2,0.78,1.01,1.11,1.21,0.33c1.17-4.55,1.28-9.32,0.28-13.92c-0.8-3.69-2.28-8.16-5.66-10.29
				c-3.14-1.97-6.6-0.41-8.49,2.45c-2.18,3.29-2.56,7.65-2.07,11.48c0.58,4.52,2.56,8.77,5.66,12.1
				C647.7,245.87,648.58,244.98,648.03,244.39L648.03,244.39z"/>
		</g>
	</g>
	<g>
		<g>
			<path class="st7" d="M657.64,242.58c0.52-3.39,1.28-6.76,2.49-9.97c1.13-3,2.97-6.93,6.17-8.19c1.82-0.72,3.5,0.15,4.5,1.71
				c1.08,1.68,1.2,3.81,0.97,5.74c-0.39,3.28-1.73,6.49-3.63,9.18c-2.05,2.91-4.9,5.27-8.25,6.53c-0.75,0.28-0.42,1.49,0.33,1.21
				c6.85-2.57,11.74-9.29,12.73-16.46c0.47-3.37-0.28-8.27-4.19-9.29c-3.71-0.97-6.72,2.88-8.26,5.72
				c-2.25,4.13-3.36,8.87-4.07,13.48C656.31,243.03,657.52,243.37,657.64,242.58L657.64,242.58z"/>
		</g>
	</g>
	<g>
		<g>
			<path class="st7" d="M692.28,250.9c3.79,4.52,10.09,2.8,13.51-1.24c3.67-4.33,6.04-10.49,4.62-16.14
				c-1.02-4.08-3.95-9.05-8.72-9.01c-2.55,0.02-4.64,1.79-6.24,3.61c-1.64,1.86-3.11,4.04-4.13,6.3c-1.16,2.57-1.52,5.56-1.44,8.36
				c0.08,2.76,0.59,5.76,2.3,8c0.48,0.63,1.57,0.01,1.08-0.63c-2.65-3.47-2.57-8.9-1.56-12.95c0.5-2.01,1.49-3.79,2.62-5.51
				c1.29-1.96,2.86-4.02,4.93-5.22c4.22-2.45,7.92,1.79,9.34,5.41c1.88,4.77,0.83,9.72-1.72,14.05c-1.5,2.54-3.4,4.88-6.24,5.96
				c-2.77,1.06-5.54,0.41-7.46-1.87C692.65,249.4,691.77,250.29,692.28,250.9z"/>
		</g>
	</g>
	<path class="st8" d="M615.12,640.87c-7.21,210.78-27.97,316.15-27.97,316.15"/>
</g>
<g>
	<circle class="st9" cx="147.64" cy="949.66" r="48.72"/>
	<polygon class="st1" points="147.64,919.12 157.12,938.33 178.32,941.41 162.98,956.37 166.6,977.49 147.64,967.52 128.67,977.49 
		132.29,956.37 116.95,941.41 138.15,938.33 	"/>
</g>
</svg>
