<?xml version="1.0" encoding="utf-8"?>
<!-- Generator: Adobe Illustrator 23.1.0, SVG Export Plug-In . SVG Version: 6.00 Build 0)  -->
<svg version="1.1" id="Layer_1" xmlns="http://www.w3.org/2000/svg" xmlns:xlink="http://www.w3.org/1999/xlink" x="0px" y="0px"
	 viewBox="0 0 1133.86 1133.86" style="enable-background:new 0 0 1133.86 1133.86;" xml:space="preserve">
<style type="text/css">
	.st0{fill:none;stroke:#FCEE23;stroke-width:3;stroke-miterlimit:10;}
	.st1{fill:#FCEE23;}
	.st2{fill:#F9AF9F;}
	.st3{fill:#E5E5E5;}
	.st4{fill:#2E353B;}
	.st5{fill:#EF445C;}
	.st6{fill:#FFFFFF;}
	.st7{fill:#FFF200;}
	.st8{fill:#F05574;}
</style>
<g>
	<circle class="st0" cx="147.64" cy="949.66" r="48.72"/>
	<polygon class="st1" points="147.64,919.12 157.12,938.33 178.32,941.41 162.98,956.37 166.6,977.49 147.64,967.52 128.67,977.49 
		132.29,956.37 116.95,941.41 138.15,938.33 	"/>
</g>
<path d="M598.95,955.05l16.07,80.39c0,0-12.89,2.16-25.16-18.25c-6.44-10.71-18.51-41.47-21.93-57.08
	c-2.31-10.52,7.01-19.45,15.66-14.99L598.95,955.05z"/>
<path class="st2" d="M585.63,986.55c5.66,10.54,13.53,22.35,17.3,20.65c4.35-1.96-4.54-50.14-4.54-50.14s-16.14-13.07-22.52-9.83
	C569.5,950.46,574.22,965.31,585.63,986.55z"/>
<path d="M513.37,955.05l-16.76,80.39c0,0,13.44,2.16,26.25-18.25c6.72-10.71,19.31-41.47,22.87-57.08
	c2.41-10.52-7.32-19.45-16.33-14.99L513.37,955.05z"/>
<path class="st2" d="M527.26,986.55c-5.91,10.54-14.11,22.35-18.05,20.65c-4.53-1.96,4.74-50.14,4.74-50.14s16.84-13.07,23.49-9.83
	C544.1,950.46,539.17,965.31,527.26,986.55z"/>
<path class="st2" d="M504.64,700.39c0.28,0-1.38,96.07-1.38,96.07c1.3,48.87,10.14,163.27,10.14,163.27l27.14-8.53l19.63-253.76
	L504.64,700.39z"/>
<path class="st2" d="M607.36,700.39c-0.28,0,1.38,96.07,1.38,96.07c-1.3,48.87-10.14,163.27-10.14,163.27l-25.36-4.38l-21.41-257.91
	L607.36,700.39z"/>
<g>
	<rect x="440.64" y="63.85" class="st3" width="406.02" height="361.26"/>
	<rect x="440.64" y="408.28" class="st4" width="406.02" height="19.91"/>
</g>
<path d="M559.95,113.49c47.82-1.53,38.31,47.03,30.31,95.05c-5.9,35.39,38.63,35.89,28.17,68.69
	c-7.85,24.62-33.14,33.44-33.14,33.44l-81.52-4.14c-8.74,0.06-53.13-56.21-12.21-76.93c21.18-10.73,32.15-31.16,26.72-47.69
	C503.77,137.75,520.28,114.76,559.95,113.49z"/>
<path class="st2" d="M626.14,306.54c-28.67-46.22-63.58-37.12-63.58-37.12l16.6,18.01l13.12,27.06c0,0,19.83,85.37,27.35,114.88
	c1.13,4.44,2.22,9.06,3.26,13.81c13.81-1.61,26.29-11.84,40.11-12.95C656.63,386.17,648.02,341.82,626.14,306.54z"/>
<path class="st2" d="M530.43,170.24c0.51,21.42,8.85,43.98,27.39,45.41c15.41,1.18,30.14-28.63,29.63-50.04s-7.23-37.68-23.02-40.67
	C549.22,122.05,529.92,148.82,530.43,170.24z"/>
<path class="st2" d="M537.84,177.34c-0.07,1.24-0.77,93.71-0.77,93.71l39.89,0.6l-0.72-88.03L537.84,177.34z"/>
<path d="M530.18,148.83c-0.47-22.5,14.11-23.47,25.65-26.49c16.85-4.41,34.43,18.21,34.43,18.21S564.6,163.51,530.18,148.83z"/>
<g>
	<path d="M568.52,205.83c-0.67,0.49-1.37,0.94-2.1,1.35c-0.36,0.21-0.74,0.4-1.11,0.59c-0.2,0.1-0.4,0.2-0.61,0.29
		c-0.07,0.03-0.15,0.07-0.23,0.1c-0.08,0.03-0.15,0.07-0.23,0.1c0.16-0.07,0.17-0.07,0.01,0c-0.86,0.34-1.72,0.65-2.61,0.89
		c-0.45,0.12-0.9,0.23-1.35,0.33c-0.22,0.05-0.44,0.09-0.66,0.13c-0.13,0.02-0.27,0.05-0.4,0.07c-0.07,0.01-0.46,0.07-0.15,0.02
		c-1.02,0.13-2.05,0.19-3.08,0.17c-0.48-0.01-0.97-0.03-1.45-0.07c-0.27-0.02-0.54-0.05-0.81-0.09c-0.28-0.04,0.35,0.06-0.12-0.02
		c-0.17-0.03-0.35-0.06-0.52-0.09c-2.34-0.42-4.41-1.17-6.42-2.26c-2.8-1.53-5.22-3.6-7.38-5.95c-1.29-1.41-3.39,0.69-2.1,2.1
		c3.83,4.17,8.68,7.59,14.28,8.81c4.3,0.94,8.84,0.61,12.96-0.95c1.97-0.75,3.85-1.71,5.56-2.96c0.65-0.47,0.97-1.29,0.53-2.03
		C570.17,205.73,569.17,205.36,568.52,205.83L568.52,205.83z"/>
</g>
<ellipse transform="matrix(0.2592 -0.9658 0.9658 0.2592 277.717 694.759)" class="st2" cx="591.75" cy="166.35" rx="12.21" ry="6.94"/>
<ellipse transform="matrix(0.1375 -0.9905 0.9905 0.1375 320.6445 722.5001)" class="st5" cx="575.19" cy="177.13" rx="5.32" ry="8.77"/>
<ellipse transform="matrix(0.1376 -0.9905 0.9905 0.1376 289.9677 686.4938)" class="st5" cx="539.21" cy="176.73" rx="5.36" ry="8.77"/>
<path class="st5" d="M548.49,187.42c-0.17,3.26,1.88,5.21,6.68,5.81c5.12,0.64,7.14-1.38,8.08-4.19s-2.09-6.66-7.41-0.01
	C552.96,181.2,548.64,184.46,548.49,187.42z"/>
<g>
	<path d="M555.68,160.02c-0.28,2.26-0.9,4.47-1.51,6.66c-0.53,1.9-1.21,3.79-1.62,5.72c-0.42,1.98-0.61,4.07,0.79,5.72
		c1.18,1.4,3.22,2.17,5.01,1.66c1.83-0.53,1.05-3.4-0.79-2.86c-0.09,0.03-0.18,0.05-0.27,0.07c0.16-0.02,0.15-0.02-0.03-0.01
		c-0.02,0-0.47-0.03-0.18,0.01c-0.19-0.03-0.39-0.08-0.57-0.15c-0.27-0.1,0.07,0.06-0.2-0.09c-0.13-0.08-0.27-0.15-0.39-0.24
		c0.16,0.11-0.24-0.21-0.28-0.26c-0.01-0.01-0.27-0.35-0.15-0.16c-0.04-0.05-0.27-0.53-0.18-0.29c-0.05-0.13-0.09-0.28-0.11-0.42
		c0.04,0.25,0-0.27,0-0.33c0-0.28,0.02-0.76,0.05-0.93c0.11-0.88,0.35-1.76,0.59-2.62c1.08-3.8,2.32-7.54,2.81-11.48
		c0.1-0.8-0.75-1.48-1.48-1.48C556.28,158.54,555.78,159.22,555.68,160.02L555.68,160.02z"/>
</g>
<g>
	<path class="st4" d="M593.23,160.21c-2.18,2.45-3.73,5.43-4.4,8.65c-0.16,0.76,0.22,1.64,1.04,1.83c0.74,0.17,1.66-0.22,1.83-1.04
		c0.15-0.72,0.34-1.43,0.58-2.12c0.06-0.17,0.12-0.34,0.18-0.5c0.03-0.08,0.06-0.17,0.1-0.25c0.01-0.03,0.11-0.28,0.05-0.13
		c-0.06,0.15,0.05-0.1,0.06-0.13c0.04-0.08,0.07-0.16,0.11-0.24c0.08-0.18,0.17-0.36,0.26-0.54c0.32-0.63,0.68-1.25,1.07-1.84
		c0.1-0.15,0.2-0.29,0.3-0.44c0.06-0.09,0.13-0.18,0.2-0.27c0.02-0.02,0.18-0.24,0.08-0.11c-0.1,0.12,0.07-0.09,0.09-0.11
		c0.06-0.07,0.11-0.14,0.17-0.2c0.13-0.15,0.26-0.3,0.39-0.45c0.52-0.58,0.61-1.54,0-2.1C594.77,159.69,593.78,159.59,593.23,160.21
		L593.23,160.21z"/>
</g>
<path class="st6" d="M547.35,165.47c0,0,1.79-10.88-2.94-12.47c-6.85-2.31-9.15,11.61-9.15,11.61L547.35,165.47z"/>
<g>
	<path d="M549.09,164.81c-4.69-1.82-9.85-2.11-14.76-1.09c-0.79,0.16-1.24,1.09-1.04,1.83c0.22,0.81,1.04,1.2,1.83,1.04
		c4.41-0.92,8.98-0.54,13.18,1.09c0.75,0.29,1.63-0.32,1.83-1.04C550.36,165.8,549.84,165.1,549.09,164.81L549.09,164.81z"/>
</g>
<ellipse transform="matrix(0.0851 -0.9964 0.9964 0.0851 334.5942 687.5535)" cx="541.68" cy="161.59" rx="2.83" ry="1.39"/>
<path class="st6" d="M577.96,165.91c0,0,1.79-10.88-2.94-12.47c-6.85-2.31-9.15,11.61-9.15,11.61L577.96,165.91z"/>
<g>
	<path d="M579.7,165.25c-4.69-1.82-9.85-2.11-14.76-1.09c-0.78,0.16-1.24,1.09-1.04,1.83c0.22,0.81,1.04,1.2,1.83,1.04
		c4.41-0.92,8.98-0.54,13.18,1.09c0.75,0.29,1.63-0.32,1.83-1.04C580.96,166.24,580.45,165.55,579.7,165.25L579.7,165.25z"/>
</g>
<ellipse transform="matrix(0.0851 -0.9964 0.9964 0.0851 362.1564 718.4498)" cx="572.28" cy="162.03" rx="2.83" ry="1.39"/>
<path class="st2" d="M493.18,298.86c0,0,17.03,72.53,50.74,76.18c74.58,8.08,53.21-93.11,53.21-93.11s-10.73-20.15-38.26-19.37
	C509.59,263.95,493.18,298.86,493.18,298.86z"/>
<path d="M515.71,451.38c0,0-25.92,36.62-23.8,103.95s17.12,402.7,17.12,402.7h58.71l31.7,2.73c0,0,18.75-289.89,22.68-405.43
	c1.89-55.67-23.14-103.95-23.14-103.95H515.71z"/>
<path class="st7" d="M598.09,277.33l-0.01-0.26l-2.88-1.65l0,0l0,0l-6.61-3.77l-37.17,77.13l-30.23-77.77
	c0,0-12.31,6.45-18.32,11.81c-6.76,6.04-11.24,13.7-11.24,13.7l24.08,154.86c28.07-0.62,55.31,1.45,83.28,0l5.56-169.79
	L598.09,277.33z"/>
<path class="st2" d="M492.79,295c0,0-23.01,8.33-53.82,140.36c-6.38,31.16,19.92,34.24,28.66,28.5
	c14.57-34.94,30.83-66.29,33.92-99.74c0.03-0.33,0.09-1.01,0.09-1.01L492.79,295z"/>
<path class="st2" d="M351.11,621.16c5.13,3.59,32.47-32.64,32.97-33.2c0.49-0.55-2.33,23.31,6.12,24.07
	c3.31,0.3,9.67-33.14,12.09-46.61c7.76-13,33.58-43.08,61.45-95.15c8.06-15.06,8.69-35.74-8.35-36.89c-0.13-0.01-0.27-0.02-0.4-0.02
	c-15.84-0.84-30.16,31.57-38.95,45.44c-14.62,23.04-50.82,94.62-50.82,94.62S347.45,618.6,351.11,621.16z"/>
<g>
	<g>
		<path class="st2" d="M664.38,439.62c-5.18-33.59-17.22-18.08-24.13-17.52c-6.93,0.55-17.37,4.21-17.37,21.09
			c13.04,59.36,19.83,132.14,19.83,132.14l28.59-2.42c0,0,2.1-67.47-1.82-95.92C667.97,466.02,666.35,453.28,664.38,439.62z"/>
		<path class="st2" d="M671.3,572.91c0,0,13.37,53.46,9.43,55.05c-8.04,3.23-15.24-20.48-15.47-19.73
			c-0.23,0.75-10.38,47.53-16.55,46.56c-4.4-0.69-6.67-51.4-6.67-51.4l0.67-28.06L671.3,572.91z"/>
		<g>
			<path class="st4" d="M654.28,615.65c-1.18,5.65-2.37,11.3-3.55,16.95c-0.16,0.78-1.09,1.24-1.83,1.04
				c-0.81-0.22-1.2-1.04-1.04-1.83c1.18-5.65,2.37-11.3,3.55-16.95c0.16-0.78,1.09-1.24,1.83-1.04
				C654.05,614.05,654.44,614.87,654.28,615.65L654.28,615.65z"/>
		</g>
	</g>
	
		<rect x="781.85" y="516.33" transform="matrix(-0.3138 0.9495 -0.9495 -0.3138 1659.6158 123.7458)" class="st7" width="6.48" height="290.43"/>
</g>
<g>
	<path class="st8" d="M247.6,115.07c0,4.87,18.68,127.03,18.68,127.03l92.17-9.28L340.17,96.39L247.6,115.07z"/>
	<path class="st7" d="M294.35,133.27c-8.99,0-16.28,7.29-16.28,16.28c0,8.99,7.29,16.28,16.28,16.28c8.99,0,16.28-7.29,16.28-16.28
		C310.64,140.56,303.35,133.27,294.35,133.27z M294.35,161.27c-6.47,0-11.72-5.25-11.72-11.72c0-6.47,5.25-11.72,11.72-11.72
		c6.47,0,11.72,5.25,11.72,11.72C306.07,156.02,300.83,161.27,294.35,161.27z"/>
	
		<rect x="284.91" y="175.21" transform="matrix(0.9837 -0.1796 0.1796 0.9837 -27.026 56.6421)" class="st7" width="28.95" height="4.81"/>
	
		<rect x="286.3" y="187.64" transform="matrix(0.9837 -0.1796 0.1796 0.9837 -29.2348 57.0936)" class="st7" width="28.95" height="4.81"/>
</g>
<g>
	<rect x="710.2" y="159.07" transform="matrix(0.8257 0.5642 -0.5642 0.8257 224.0915 -370.6821)" width="3.22" height="36.33"/>
	<rect x="682.24" y="159.05" transform="matrix(0.8257 0.5642 -0.5642 0.8257 219.2032 -354.9117)" width="3.22" height="36.33"/>
	<rect x="710.2" y="159.07" transform="matrix(0.866 -0.5 0.5 0.866 6.7451 379.6494)" width="3.22" height="36.33"/>
	<rect x="774.9" y="157.49" transform="matrix(0.8844 0.4666 -0.4666 0.8844 171.6995 -342.0591)" width="3.22" height="36.33"/>
	<path d="M777.83,175.14l-11.12-15.01l-2.33,1.72l11.38,15.36C776.44,176.51,777.13,175.82,777.83,175.14z"/>
	<path d="M693.2,161.21l-18.59-1.76l-0.27,2.88l19.03,1.8C693.29,163.16,693.24,162.19,693.2,161.21z"/>
	<path d="M750.5,169.5l-18.68,0.19l0.03,2.89l19.11-0.19C750.79,171.43,750.63,170.46,750.5,169.5z"/>
	<path d="M750.17,178.55l-18.68,0.19l0.03,2.89l19.11-0.19C750.47,180.48,750.31,179.52,750.17,178.55z"/>
	<path d="M691.54,191.7l-18.59-1.76l-0.27,2.88l19.03,1.8C691.63,193.65,691.58,192.68,691.54,191.7z"/>
</g>
</svg>
